<?xml version="1.0" encoding="UTF-8" standalone="no"?>
<!DOCTYPE svg PUBLIC "-//W3C//DTD SVG 1.1//EN" "http://www.w3.org/Graphics/SVG/1.1/DTD/svg11.dtd">
<!-- Generated by Microsoft Visio, SVG Export hld_generic_controller.svg Sensor -->
<svg xmlns="http://www.w3.org/2000/svg" xmlns:xlink="http://www.w3.org/1999/xlink" xmlns:ev="http://www.w3.org/2001/xml-events"
		width="21.5in" height="16.5in" viewBox="0 0 1548 1188" xml:space="preserve" color-interpolation-filters="sRGB" class="st17">
	<style type="text/css">
	<![CDATA[
		.st1 {fill:#ffffff;stroke:#f0ab1a;stroke-linecap:round;stroke-linejoin:round;stroke-width:1}
		.st2 {stroke:#f0ab1a;stroke-linecap:round;stroke-linejoin:round;stroke-width:1}
		.st3 {fill:#8c6209;font-family:Calibri;font-size:1.00001em;font-stretch:semi-expanded}
		.st4 {fill:#ffffff;fill-opacity:0.4}
		.st5 {fill:#cccccc;fill-opacity:0.4}
		.st6 {fill:#8c6209;font-family:Calibri;font-size:0.75em}
		.st7 {fill:#ffffff;stroke:#267ca6;stroke-linecap:round;stroke-linejoin:round;stroke-width:1}
		.st8 {fill:#15455d;font-family:Calibri;font-size:0.666664em}
		.st9 {font-size:1em;text-decoration:line-through}
		.st10 {marker-end:url(#mrkr4-121);stroke:#267ca6;stroke-linecap:round;stroke-linejoin:round;stroke-width:1}
		.st11 {fill:#267ca6;fill-opacity:1;stroke:#267ca6;stroke-opacity:1;stroke-width:0.28409090909091}
		.st12 {fill:#ffffff;stroke:none;stroke-linecap:butt;stroke-width:7.2}
		.st13 {fill:#15445c;font-family:Calibri;font-size:0.666664em}
		.st14 {marker-end:url(#mrkr5-135);marker-start:url(#mrkr5-133);stroke:#267ca6;stroke-linecap:round;stroke-linejoin:round;stroke-width:1}
		.st15 {marker-end:url(#mrkr13-202);marker-start:url(#mrkr13-200);stroke:#267ca6;stroke-dasharray:1,2;stroke-linecap:round;stroke-linejoin:round;stroke-width:1}
		.st16 {font-size:1em}
		.st17 {fill:none;fill-rule:evenodd;font-size:12px;overflow:visible;stroke-linecap:square;stroke-miterlimit:3}
	]]>
	</style>

	<defs id="Patterns_And_Gradients">
		<linearGradient id="grad0-11" x1="0" y1="0" x2="1" y2="0" gradientTransform="rotate(90 0.5 0.5)">
			<stop offset="0.01" stop-color="#ffffff" stop-opacity="1"/>
			<stop offset="0.5" stop-color="#fefefe" stop-opacity="1"/>
			<stop offset="1" stop-color="#ffffff" stop-opacity="1"/>
		</linearGradient>
		<linearGradient id="grad0-15" x1="0" y1="0" x2="1" y2="0" gradientTransform="rotate(270 0.5 0.5)">
			<stop offset="0" stop-color="#fefefe" stop-opacity="1"/>
			<stop offset="1" stop-color="#ffffff" stop-opacity="1"/>
		</linearGradient>
	</defs>
	<defs id="Markers">
		<g id="lend4">
			<path d="M 2 1 L 0 0 L 2 -1 L 2 1 " style="stroke:none"/>
		</g>
		<marker id="mrkr4-121" class="st11" refX="-7.04" orient="auto" markerUnits="strokeWidth" overflow="visible">
			<use xlink:href="#lend4" transform="scale(-3.52,-3.52) "/>
		</marker>
		<g id="lend5">
			<path d="M 2 1 L 0 0 L 1.98117 -0.993387 C 1.67173 -0.364514 1.67301 0.372642 1.98465 1.00043 " style="stroke:none"/>
		</g>
		<marker id="mrkr5-133" class="st11" refX="5.8" orient="auto" markerUnits="strokeWidth" overflow="visible">
			<use xlink:href="#lend5" transform="scale(3.52) "/>
		</marker>
		<marker id="mrkr5-135" class="st11" refX="-6.16" orient="auto" markerUnits="strokeWidth" overflow="visible">
			<use xlink:href="#lend5" transform="scale(-3.52,-3.52) "/>
		</marker>
		<g id="lend13">
			<path d="M 3 1 L 0 0 L 3 -1 L 3 1 " style="stroke:none"/>
		</g>
		<marker id="mrkr13-200" class="st11" refX="10.2" orient="auto" markerUnits="strokeWidth" overflow="visible">
			<use xlink:href="#lend13" transform="scale(3.52) "/>
		</marker>
		<marker id="mrkr13-202" class="st11" refX="-10.56" orient="auto" markerUnits="strokeWidth" overflow="visible">
			<use xlink:href="#lend13" transform="scale(-3.52,-3.52) "/>
		</marker>
	</defs>
	<g>
		<title>HW System</title>
		<g id="group111-1" transform="translate(397.688,-660.043)">
			<title>Intersection</title>
			<g id="group112-2">
				<title>Sheet.112</title>
				<g id="shape113-3" transform="translate(2.88,2.88)">
					<title>Sheet.113</title>
				</g>
				<g id="shape112-5">
					<path d="M0 1188 L239.91 1188 L479.81 1188 L479.81 750.04 L0 750.04 L0 1188 Z" class="st1"/>
				</g>
			</g>
			<g id="group114-7" transform="translate(0,-415.457)">
				<title>Sheet.114</title>
				<desc>OpenROV</desc>
				<g id="shape115-8">
					<title>Sheet.115</title>
				</g>
				<g id="shape114-12">
					<path d="M407.81 1165.5 L484.31 1165.5" class="st2"/>
					<path d="" class="st2"/>
					<path d="M479.81 1161 L479.81 1188" class="st2"/>
					<text x="421.24" y="1180.35" class="st3">OpenROV</text>				</g>
			</g>
		</g>
		<g id="group121-20" transform="translate(556.313,-879.017)">
			<title>Translucent.21</title>
			<g id="group122-21">
				<title>Sheet.122</title>
				<g id="shape123-22" transform="translate(2.88,2.88)">
					<title>Sheet.123</title>
					<path d="M0 1188 L95.06 1188 L190.12 1188 L190.12 1000.52 L95.06 1000.52 L0 1000.52 L0 1188 Z" class="st4"/>
				</g>
				<g id="shape122-25">
					<path d="M0 1188 L95.06 1188 L190.12 1188 L190.12 1000.52 L95.06 1000.52 L0 1000.52 L0 1188 Z" class="st5"/>
				</g>
			</g>
			<g id="group124-28" transform="translate(0,-164.983)">
				<title>Sheet.124</title>
				<desc>BeagleBone Black</desc>
				<g id="shape125-29">
					<title>Sheet.125</title>
				</g>
				<g id="shape124-32">
					<text x="47.75" y="1180.35" class="st3">BeagleBone Black</text>				</g>
			</g>
		</g>
		<g id="group587-36" transform="translate(58.5,-795.965)">
			<title>Intersection.587</title>
			<g id="group588-37">
				<title>Sheet.588</title>
				<g id="shape589-38" transform="translate(2.88,2.88)">
					<title>Sheet.589</title>
				</g>
				<g id="shape588-40">
					<path d="M0 1188 L50.06 1188 L100.12 1188 L100.12 1002.97 L0 1002.97 L0 1188 Z" class="st1"/>
				</g>
			</g>
			<g id="group590-42" transform="translate(0,-162.535)">
				<title>Sheet.590</title>
				<desc>PC</desc>
				<g id="shape591-43">
					<title>Sheet.591</title>
				</g>
				<g id="shape590-46">
					<path d="M68.63 1165.5 L104.62 1165.5" class="st2"/>
					<path d="" class="st2"/>
					<path d="M100.12 1161 L100.12 1188" class="st2"/>
					<text x="80.27" y="1180.35" class="st3">PC</text>				</g>
			</g>
		</g>
		<g id="group630-53" transform="translate(463.5,-405)">
			<title>Intersection.630</title>
			<g id="group631-54">
				<title>Sheet.631</title>
				<g id="shape632-55" transform="translate(2.88,2.88)">
					<title>Sheet.632</title>
				</g>
				<g id="shape631-57">
					<path d="M0 1188 L50.06 1188 L100.12 1188 L100.12 1005.66 L0 1005.66 L0 1188 Z" class="st1"/>
				</g>
			</g>
			<g id="group633-59" transform="translate(0,-159.837)">
				<title>Sheet.633</title>
				<desc>Mechanical Gimbal</desc>
				<g id="shape634-60">
					<title>Sheet.634</title>
				</g>
				<g id="shape633-63">
					<path d="M14.63 1165.5 L104.62 1165.5" class="st2"/>
					<path d="" class="st2"/>
					<path d="M100.12 1161 L100.12 1188" class="st2"/>
					<text x="24.06" y="1180.35" class="st6">Mechanical Gimbal</text>				</g>
			</g>
		</g>
		<g id="shape139-70" transform="translate(565.312,-941.171)">
			<title>Box.32</title>
			<desc>GPIO pins</desc>
			<rect x="0" y="1147.33" width="82.125" height="40.6749" class="st7"/>
			<text x="25.23" y="1170.06" class="st8">GPIO pins</text>		</g>
		<g id="shape256-73" transform="translate(472.5,-515.163)">
			<title>Box.256</title>
			<desc>TX Optics</desc>
			<rect x="0" y="1147.33" width="82.125" height="40.6749" class="st7"/>
			<text x="25.87" y="1170.06" class="st8">TX Optics</text>		</g>
		<g id="shape334-76" transform="translate(655.313,-888.017)">
			<title>Box.334</title>
			<desc>USB Host</desc>
			<rect x="0" y="1147.33" width="82.125" height="40.6749" class="st7"/>
			<text x="26.07" y="1170.06" class="st8">USB Host</text>		</g>
		<g id="shape335-79" transform="translate(565.312,-994.325)">
			<title>Box.335</title>
			<desc>Ethernet Interface</desc>
			<rect x="0" y="1147.33" width="82.125" height="40.6749" class="st7"/>
			<text x="11.3" y="1170.06" class="st8">Ethernet Interface</text>		</g>
		<g id="shape337-82" transform="translate(565.313,-888.017)">
			<title>Box.337</title>
			<desc>SD Card</desc>
			<rect x="0" y="1147.33" width="82.125" height="40.6749" class="st7"/>
			<text x="28.31" y="1170.06" class="st8">SD Card</text>		</g>
		<g id="shape413-85" transform="translate(786.375,-888.017)">
			<title>Process</title>
			<desc>Camera</desc>
			<rect x="0" y="1147.33" width="82.125" height="40.6749" class="st7"/>
			<text x="28.52" y="1170.06" class="st8">Camera</text>		</g>
		<g id="shape473-88" transform="translate(230.625,-908.825)">
			<title>Process.473</title>
			<desc>Topside Interface Board</desc>
			<rect x="0" y="1147.33" width="82.125" height="40.6749" class="st7"/>
			<text x="2.17" y="1170.06" class="st8"><tspan class="st9">Topside Interface Board</tspan></text>		</g>
		<g id="shape474-92" transform="translate(230.625,-994.325)">
			<title>Process.474</title>
			<desc>Tenda Homeplug Adapter</desc>
			<rect x="0" y="1147.33" width="82.125" height="40.6749" class="st7"/>
			<text x="13.31" y="1165.26" class="st8"><tspan class="st9">Tenda Homeplug </tspan><tspan x="27.9" dy="1.2em"
						class="st9">Adapter</tspan></text>		</g>
		<g id="shape482-97" transform="translate(67.5,-908.825)">
			<title>Box.482</title>
			<desc>Power</desc>
			<rect x="0" y="1147.33" width="82.125" height="40.6749" class="st7"/>
			<text x="30.64" y="1170.06" class="st8">Power</text>		</g>
		<g id="shape483-100" transform="translate(67.5,-804.965)">
			<title>Box.483</title>
			<desc>Cockpit Interface</desc>
			<rect x="0" y="1147.33" width="82.125" height="40.6749" class="st7"/>
			<text x="13.39" y="1170.06" class="st8">Cockpit Interface</text>		</g>
		<g id="shape484-103" transform="translate(67.5,-856.895)">
			<title>Box.484</title>
			<desc>Ethernet Interface</desc>
			<rect x="0" y="1147.33" width="82.125" height="40.6749" class="st7"/>
			<text x="11.3" y="1170.06" class="st8">Ethernet Interface</text>		</g>
		<g id="group485-106" transform="translate(559.688,-744.017)">
			<title>Sheet.485</title>
			<g id="shape130-107">
				<title>Box.20</title>
				<desc>Arduino Mega</desc>
				<rect x="0" y="1087.3" width="133.891" height="100.7" class="st7"/>
				<text x="43.79" y="1140.05" class="st8">Arduino Mega</text>			</g>
			<g id="shape471-110" transform="translate(133.891,0)">
				<title>Box.471</title>
				<desc>Parallel Port</desc>
				<rect x="0" y="1087.3" width="56.2342" height="100.7" class="st7"/>
				<text x="1117.8" y="-25.72" transform="rotate(90)" class="st8">Parallel Port</text>			</g>
		</g>
		<g id="shape543-113" transform="translate(655.313,-941.171)">
			<title>Box.543</title>
			<desc>Serial Debug</desc>
			<rect x="0" y="1147.33" width="82.125" height="40.6749" class="st7"/>
			<text x="20.65" y="1170.06" class="st8">Serial Debug</text>		</g>
		<g id="shape610-116" transform="translate(149.625,-920.163)">
			<title>Dynamic connector</title>
			<desc>5V Micro USB</desc>
			<path d="M0 1179 L73.96 1179" class="st10"/>
			<rect x="25.7657" y="1169.4" width="29.4686" height="19.1997" class="st12"/>
			<text x="25.77" y="1176.6" class="st13"><tspan class="st9">5</tspan><tspan class="st9">V Micro </tspan><tspan x="33.92"
						dy="1.2em" class="st9">USB</tspan></text>		</g>
		<g id="shape611-127" transform="translate(149.625,-877.233)">
			<title>Dynamic connector.611</title>
			<desc>Ethernet</desc>
			<path d="M5.8 1188 L6.16 1188 L122.06 1188 L122.06 1162.57" class="st14"/>
			<rect x="62.6168" y="1183.2" width="28.4214" height="9.59985" class="st12"/>
			<text x="62.62" y="1190.4" class="st13"><tspan class="st9">Ethernet</tspan></text>		</g>
		<g id="shape612-139" transform="translate(262.688,-994.325)">
			<title>Dynamic connector.612</title>
			<desc>GPIO (5V power) &#38; Ethernet</desc>
			<path d="M9 1193.8 L9 1194.16 L9 1226.67" class="st14"/>
			<rect x="-18.2323" y="1200.81" width="54.4647" height="19.1997" class="st12"/>
			<text x="-18.23" y="1208.01" class="st13"><tspan class="st9">GPIO </tspan><tspan class="st9">(</tspan><tspan
						class="st9">5</tspan><tspan class="st9">V power</tspan><tspan class="st9">) </tspan><tspan x="-8.84"
						dy="1.2em" class="st9">&#38; </tspan><tspan class="st9">Ethernet</tspan></text>		</g>
		<g id="shape614-155" transform="translate(786.375,-917.355)">
			<title>Dynamic connector.614</title>
			<path d="M0 1197 L-41.9 1197" class="st10"/>
		</g>
		<g id="shape615-160" transform="translate(642.375,-844.717)">
			<title>Dynamic connector.615</title>
			<desc>SPI</desc>
			<path d="M9 1182.2 L9 1181.84 L9 1159.86" class="st14"/>
			<rect x="4.0878" y="1166.05" width="9.82425" height="9.59985" class="st12"/>
			<text x="4.09" y="1173.25" class="st13">SPI</text>		</g>
		<g id="shape616-169" transform="translate(586.688,-669.043)">
			<title>Process.616</title>
			<desc>Motors</desc>
			<rect x="0" y="1147.33" width="82.125" height="40.6749" class="st7"/>
			<text x="29.13" y="1170.06" class="st8">Motors</text>		</g>
		<g id="shape617-172" transform="translate(618.191,-744.017)">
			<title>Dynamic connector.617</title>
			<desc>ESC</desc>
			<path d="M8.44 1188 L8.44 1206 L9.56 1206 L9.56 1215.26" class="st10"/>
			<rect x="2.51769" y="1200.91" width="11.8477" height="9.59985" class="st12"/>
			<text x="2.52" y="1208.11" class="st13">ESC</text>		</g>
		<g id="shape618-179" transform="translate(415.688,-994.325)">
			<title>Process.618</title>
			<desc>Tenda Homeplug Adapter</desc>
			<rect x="0" y="1147.33" width="82.125" height="40.6749" class="st7"/>
			<text x="13.31" y="1165.26" class="st8"><tspan class="st9">Tenda Homeplug </tspan><tspan x="27.9" dy="1.2em"
						class="st9">Adapter</tspan></text>		</g>
		<g id="shape620-184" transform="translate(497.813,-1023.66)">
			<title>Dynamic connector.620</title>
			<desc>Ethernet</desc>
			<path d="M5.8 1197 L6.16 1197 L61.34 1197" class="st14"/>
			<rect x="19.5392" y="1192.2" width="28.4214" height="9.59985" class="st12"/>
			<text x="19.54" y="1199.4" class="st13"><tspan class="st9">Ethernet</tspan></text>		</g>
		<g id="shape623-194" transform="translate(415.688,-1005.66)">
			<title>Dynamic connector.623</title>
			<desc>Twisted-pair Tether</desc>
			<path d="M-10.2 1179 L-10.56 1179 L-92.38 1179" class="st15"/>
			<rect x="-71.7457" y="1169.4" width="40.5541" height="19.1997" class="st12"/>
			<text x="-71.75" y="1176.6" class="st13"><tspan class="st9">Twisted</tspan><tspan class="st9">-</tspan><tspan
						class="st9">pair </tspan><tspan x="-62.23" dy="1.2em" class="st9">Tether</tspan></text>		</g>
		<g id="shape624-209" transform="translate(559.688,-794.367)">
			<title>Dynamic connector.624</title>
			<desc>GPIO (5V power)</desc>
			<path d="M0 1188 L-102.94 1188 L-102.94 995.08" class="st10"/>
			<rect x="-130.17" y="1134.69" width="54.4647" height="9.59985" class="st12"/>
			<text x="-130.17" y="1141.89" class="st13"><tspan class="st9">GPIO </tspan><tspan class="st9">(</tspan><tspan
						class="st9">5</tspan><tspan class="st9">V power</tspan><tspan class="st9">)</tspan></text>		</g>
		<g id="shape625-221" transform="translate(67.5,-669.043)">
			<title>Process.625</title>
			<desc>Debug Interface</desc>
			<rect x="0" y="1147.33" width="82.125" height="40.6749" class="st7"/>
			<text x="14.97" y="1170.06" class="st8">Debug Interface</text>		</g>
		<g id="shape627-224" transform="translate(261.563,-593.308)">
			<title>Dynamic connector.627</title>
			<desc>Power</desc>
			<path d="M9 1188 L9 1238.77" class="st10"/>
			<rect x="-1.41992" y="1212.1" width="20.8397" height="9.59985" class="st12"/>
			<text x="-1.42" y="1219.3" class="st13">Power</text>		</g>
		<g id="shape628-231" transform="translate(99.5625,-795.965)">
			<title>Dynamic connector.628</title>
			<desc>USB, serial, Bluetooth</desc>
			<path d="M9 1193.8 L9 1194.16 L9 1268.09" class="st14"/>
			<rect x="-26.2709" y="1226.32" width="70.5421" height="9.59985" class="st12"/>
			<text x="-26.27" y="1233.52" class="st13">USB, serial, Bluetooth</text>		</g>
		<g id="shape640-240" transform="translate(472.5,-464.581)">
			<title>Box.640</title>
			<desc>RX Optics</desc>
			<rect x="0" y="1147.33" width="82.125" height="40.6749" class="st7"/>
			<text x="25.65" y="1170.06" class="st8">RX Optics</text>		</g>
		<g id="shape646-243" transform="translate(108.563,-669.043)">
			<title>Dynamic connector.646</title>
			<desc>USB, serial, Bluetooth</desc>
			<path d="M0 1193.8 L0 1194.16 L0 1371.89 L114.78 1371.89" class="st14"/>
			<rect x="-35.2709" y="1335.62" width="70.5421" height="9.59985" class="st12"/>
			<text x="-35.27" y="1342.82" class="st13">USB, serial, Bluetooth</text>		</g>
		<g id="shape652-252" transform="translate(266.063,-588.808)">
			<title>Concentric center.652</title>
			<ellipse cx="4.5" cy="1183.5" rx="4.5" ry="4.5" class="st7"/>
		</g>
		<g id="shape653-254" transform="translate(732.375,-383.987)">
			<title>Box.653</title>
			<desc>Mechanical Plane Controller</desc>
			<rect x="0" y="1087.3" width="82.125" height="100.7" class="st7"/>
			<text x="12.5" y="1135.25" class="st8">Mechanical Plane <tspan x="24.65" dy="1.2em" class="st16">Controller</tspan></text>		</g>
		<g id="shape654-258" transform="translate(764.438,-562.5)">
			<title>Dynamic connector.654</title>
			<desc>Power</desc>
			<path d="M9 1188 L9 1258.77" class="st10"/>
			<rect x="-1.41992" y="1222.11" width="20.8397" height="9.59985" class="st12"/>
			<text x="-1.42" y="1229.31" class="st13">Power</text>		</g>
		<g id="shape655-265" transform="translate(768.938,-558)">
			<title>Concentric center.655</title>
			<ellipse cx="4.5" cy="1183.5" rx="4.5" ry="4.5" class="st7"/>
		</g>
		<g id="shape657-267" transform="translate(504.563,-634.5)">
			<title>Dynamic connector.657</title>
			<desc>Power</desc>
			<path d="M9 1188 L9 1228.12" class="st10"/>
			<rect x="-1.41992" y="1206.78" width="20.8397" height="9.59985" class="st12"/>
			<text x="-1.42" y="1213.98" class="st13">Power</text>		</g>
		<g id="shape658-274" transform="translate(509.063,-634.5)">
			<title>Concentric center.658</title>
			<ellipse cx="4.5" cy="1183.5" rx="4.5" ry="4.5" class="st7"/>
		</g>
		<g id="shape659-276" transform="translate(67.5,-877.233)">
			<title>Dynamic connector.659</title>
			<desc>Ethernet</desc>
			<path d="M-5.8 1188 L-6.16 1188 L-18 1188 L-18 1651.23 L155.84 1651.23" class="st14"/>
			<rect x="-32.2108" y="1495.82" width="28.4214" height="9.59985" class="st12"/>
			<text x="-32.21" y="1503.02" class="st13">Ethernet</text>		</g>
		<g id="shape205-285" transform="translate(229.5,-434.8)">
			<title>Box.205</title>
			<desc>Data Plane Controller</desc>
			<rect x="0" y="1087.3" width="82.125" height="100.7" class="st7"/>
			<text x="6.22" y="1140.05" class="st8">Data Plane Controller</text>		</g>
		<g id="shape660-288" transform="translate(229.5,-393.663)">
			<title>Box.660</title>
			<desc>Ethernet Interface</desc>
			<rect x="0" y="1147.33" width="82.125" height="40.6749" class="st7"/>
			<text x="11.3" y="1170.06" class="st8">Ethernet Interface</text>		</g>
		<g id="shape663-291" transform="translate(351,-515.163)">
			<title>Box.663</title>
			<desc>LED/Laser Drivers</desc>
			<rect x="0" y="1147.33" width="82.125" height="40.6749" class="st7"/>
			<text x="12.44" y="1170.06" class="st8">LED/Laser Drivers</text>		</g>
		<g id="shape664-294" transform="translate(603,-414)">
			<title>Box.664</title>
			<desc>Servo/Motor Drivers</desc>
			<rect x="0" y="1147.33" width="82.125" height="40.6749" class="st7"/>
			<text x="7.57" y="1170.06" class="st8">Servo/Motor Drivers</text>		</g>
		<g id="shape665-297" transform="translate(768.938,-319.5)">
			<title>Concentric center.665</title>
			<ellipse cx="4.5" cy="1183.5" rx="4.5" ry="4.5" class="st7"/>
		</g>
		<g id="shape666-299" transform="translate(764.438,-328.5)">
			<title>Dynamic connector.666</title>
			<desc>Positioning Feedback Loop</desc>
			<path d="M9 1188 L9 1139.55" class="st10"/>
			<rect x="-34.2864" y="1155.46" width="86.5731" height="9.59985" class="st12"/>
			<text x="-34.29" y="1162.66" class="st13">Positioning Feedback Loop</text>		</g>
		<g id="shape669-306" transform="translate(433.125,-526.5)">
			<title>Dynamic connector.669</title>
			<path d="M0 1179 L32.34 1179" class="st10"/>
		</g>
		<g id="shape670-311" transform="translate(603,-425.337)">
			<title>Dynamic connector.670</title>
			<path d="M0 1179 L-41.34 1179" class="st10"/>
		</g>
		<g id="shape671-316" transform="translate(732.375,-425.337)">
			<title>Dynamic connector.671</title>
			<path d="M0 1179 L-40.21 1179" class="st10"/>
		</g>
		<g id="shape673-321" transform="translate(472.5,-414)">
			<title>Box.673</title>
			<desc>Servos/Motors</desc>
			<rect x="0" y="1147.33" width="82.125" height="40.6749" class="st7"/>
			<text x="16.88" y="1170.06" class="st8">Servos/Motors</text>		</g>
		<g id="shape674-324" transform="translate(472.5,-475.919)">
			<title>Dynamic connector.674</title>
			<path d="M0 1179 L-32.33 1179" class="st10"/>
		</g>
		<g id="shape676-329" transform="translate(311.625,-512.556)">
			<title>Dynamic connector.676</title>
			<path d="M0 1188 L7.88 1188 L7.88 1165.06 L32.33 1165.06" class="st10"/>
		</g>
		<g id="shape677-334" transform="translate(351,-464.581)">
			<title>Box.677</title>
			<desc>Amplifiers &#38; Buffers</desc>
			<rect x="0" y="1147.33" width="82.125" height="40.6749" class="st7"/>
			<text x="8.32" y="1170.06" class="st8">Amplifiers &#38; Buffers</text>		</g>
		<g id="shape679-337" transform="translate(351,-476.034)">
			<title>Dynamic connector.679</title>
			<path d="M0 1179.12 L-18 1179.12 L-18 1178.88 L-32.33 1178.88" class="st10"/>
		</g>
	</g>
</svg>
