%
M48
M72
T01C0.0180
T02C0.0200
T03C0.0240
T04C0.0290
T05C0.0310
T06C0.0320
T07C0.0394
T08C0.0400
T09C0.0610
T10C0.0827
T11C0.1240
%
T01
X8605Y4274
X10809Y5258
X11085Y4975
X13526Y5652
X12266Y7339
X11984Y7620
X12266Y7902
X12542Y8605
X12935Y8801
X12935Y10376
X17660Y12935
X19038Y14313
X21400Y13132
X20612Y12345
X19825Y11557
X21794Y10376
X22857Y12148
X22778Y13329
X19038Y4864
X17660Y3486
X19431Y2109
X20219Y2896
X21400Y3683
X22581Y2896
X22384Y927
X21794Y927
T02
X14707Y3683
X14510Y9786
X9983Y11951
T03
X11738Y12975
X12738Y13975
X13738Y12975
T04
X20416Y8620
X21123Y8327
X21416Y7620
X20416Y6620
X19416Y7620
T05
X8364Y4892
X7364Y4892
X6364Y4892
X5364Y4892
X4364Y4892
X3364Y4892
X2364Y4892
X1364Y4892
X1364Y13892
X2364Y13892
X3364Y13892
X4364Y13892
X5364Y13892
X6364Y13892
X7364Y13892
X8364Y13892
T06
X5061Y10573
X7620Y10376
X5061Y8605
X6931Y8211
X5061Y7423
X8841Y8250
X10494Y8120
X10494Y7120
X15494Y9589
X15888Y5652
T07
X13498Y2502
X12498Y2502
X11498Y2502
X10498Y2502
X9498Y2502
X8498Y2502
X7498Y2502
X6498Y2502
X5498Y2502
X4498Y2502
X4498Y1321
X5498Y1321
X6498Y1321
X7498Y1321
X8498Y1321
X9498Y1321
X10498Y1321
X11498Y1321
X12498Y1321
X13498Y1321
T08
X1321Y1305
X2502Y1305
X2502Y2305
X1321Y2305
X1321Y3305
X2502Y3305
T09
X12148Y4077
X12148Y11164
T10
X24353Y13723
X24353Y1518
T11
X16872Y7620
M30
