G75*
%MOIN*%
%OFA0B0*%
%FSLAX25Y25*%
%IPPOS*%
%LPD*%
%AMOC8*
5,1,8,0,0,1.08239X$1,22.5*
%
%ADD10R,0.06299X0.05118*%
%ADD11R,0.05118X0.06299*%
%ADD12R,0.07677X0.05512*%
%ADD13R,0.19685X0.09843*%
%ADD14C,0.05906*%
%ADD15R,0.05709X0.01772*%
%ADD16R,0.06890X0.09449*%
D10*
X0135258Y0071872D03*
X0135258Y0080534D03*
X0135258Y0089589D03*
X0135258Y0098250D03*
D11*
X0100219Y0095888D03*
X0091557Y0095888D03*
X0091557Y0105731D03*
X0100219Y0105731D03*
X0146676Y0133290D03*
X0155337Y0133290D03*
X0155337Y0141164D03*
X0146676Y0141164D03*
X0193920Y0129353D03*
X0202581Y0129353D03*
X0203762Y0117542D03*
X0212424Y0117542D03*
X0204550Y0034865D03*
X0195888Y0034865D03*
X0203762Y0023054D03*
X0212424Y0023054D03*
D12*
X0145101Y0070691D03*
X0145101Y0081715D03*
D13*
X0036833Y0078172D03*
X0036833Y0089983D03*
X0036833Y0101794D03*
D14*
X0137227Y0141164D03*
X0186439Y0123447D03*
X0212030Y0103762D03*
X0221872Y0127384D03*
X0196282Y0143132D03*
X0145101Y0089983D03*
X0145101Y0062424D03*
X0196282Y0048644D03*
X0186439Y0028959D03*
X0212030Y0009274D03*
X0231715Y0028959D03*
D15*
X0125416Y0092050D03*
X0125416Y0094609D03*
X0125416Y0097168D03*
X0125416Y0099727D03*
X0109668Y0099727D03*
X0109668Y0097168D03*
X0109668Y0094609D03*
X0109668Y0092050D03*
D16*
X0117542Y0095888D03*
M02*
