G75*
%MOIN*%
%OFA0B0*%
%FSLAX25Y25*%
%IPPOS*%
%LPD*%
%AMOC8*
5,1,8,0,0,1.08239X$1,22.5*
%
%ADD10C,0.01100*%
%ADD11R,0.02205X0.02205*%
%ADD12R,0.02205X0.01378*%
%ADD13R,0.01102X0.01102*%
%ADD14R,0.02205X0.01102*%
%ADD15R,0.05512X0.03307*%
%ADD16R,0.03307X0.04409*%
%ADD17R,0.01102X0.02205*%
%ADD18R,0.02205X0.03307*%
%ADD19R,0.01102X0.03307*%
%ADD20R,0.02205X0.00551*%
%ADD21R,0.01102X0.01929*%
%ADD22R,0.02205X0.01929*%
%ADD23R,0.01102X0.00551*%
%ADD24R,0.05512X0.00551*%
%ADD25R,0.03307X0.00551*%
%ADD26R,0.01102X0.00276*%
%ADD27R,0.03307X0.02205*%
%ADD28R,0.06799X0.05618*%
%ADD29R,0.05618X0.06799*%
%ADD30C,0.03600*%
%ADD31C,0.04850*%
%ADD32R,0.08177X0.06012*%
%ADD33C,0.04300*%
%ADD34R,0.20185X0.10343*%
%ADD35C,0.06406*%
%ADD36R,0.06209X0.02272*%
%ADD37R,0.07390X0.09949*%
%ADD38R,0.06500X0.06500*%
%ADD39C,0.06500*%
%ADD40OC8,0.06500*%
%ADD41C,0.12705*%
%ADD42R,0.06406X0.06406*%
%ADD43C,0.24122*%
%ADD44C,0.16248*%
%ADD45OC8,0.05300*%
D10*
X0106912Y0052187D02*
X0106914Y0052226D01*
X0106920Y0052265D01*
X0106930Y0052303D01*
X0106943Y0052340D01*
X0106960Y0052375D01*
X0106980Y0052409D01*
X0107004Y0052440D01*
X0107031Y0052469D01*
X0107060Y0052495D01*
X0107092Y0052518D01*
X0107126Y0052538D01*
X0107162Y0052554D01*
X0107199Y0052566D01*
X0107238Y0052575D01*
X0107277Y0052580D01*
X0107316Y0052581D01*
X0107355Y0052578D01*
X0107394Y0052571D01*
X0107431Y0052560D01*
X0107468Y0052546D01*
X0107503Y0052528D01*
X0107536Y0052507D01*
X0107567Y0052482D01*
X0107595Y0052455D01*
X0107620Y0052425D01*
X0107642Y0052392D01*
X0107661Y0052358D01*
X0107676Y0052322D01*
X0107688Y0052284D01*
X0107696Y0052246D01*
X0107700Y0052207D01*
X0107700Y0052167D01*
X0107696Y0052128D01*
X0107688Y0052090D01*
X0107676Y0052052D01*
X0107661Y0052016D01*
X0107642Y0051982D01*
X0107620Y0051949D01*
X0107595Y0051919D01*
X0107567Y0051892D01*
X0107536Y0051867D01*
X0107503Y0051846D01*
X0107468Y0051828D01*
X0107431Y0051814D01*
X0107394Y0051803D01*
X0107355Y0051796D01*
X0107316Y0051793D01*
X0107277Y0051794D01*
X0107238Y0051799D01*
X0107199Y0051808D01*
X0107162Y0051820D01*
X0107126Y0051836D01*
X0107092Y0051856D01*
X0107060Y0051879D01*
X0107031Y0051905D01*
X0107004Y0051934D01*
X0106980Y0051965D01*
X0106960Y0051999D01*
X0106943Y0052034D01*
X0106930Y0052071D01*
X0106920Y0052109D01*
X0106914Y0052148D01*
X0106912Y0052187D01*
X0109667Y0049431D02*
X0109669Y0049470D01*
X0109675Y0049509D01*
X0109685Y0049547D01*
X0109698Y0049584D01*
X0109715Y0049619D01*
X0109735Y0049653D01*
X0109759Y0049684D01*
X0109786Y0049713D01*
X0109815Y0049739D01*
X0109847Y0049762D01*
X0109881Y0049782D01*
X0109917Y0049798D01*
X0109954Y0049810D01*
X0109993Y0049819D01*
X0110032Y0049824D01*
X0110071Y0049825D01*
X0110110Y0049822D01*
X0110149Y0049815D01*
X0110186Y0049804D01*
X0110223Y0049790D01*
X0110258Y0049772D01*
X0110291Y0049751D01*
X0110322Y0049726D01*
X0110350Y0049699D01*
X0110375Y0049669D01*
X0110397Y0049636D01*
X0110416Y0049602D01*
X0110431Y0049566D01*
X0110443Y0049528D01*
X0110451Y0049490D01*
X0110455Y0049451D01*
X0110455Y0049411D01*
X0110451Y0049372D01*
X0110443Y0049334D01*
X0110431Y0049296D01*
X0110416Y0049260D01*
X0110397Y0049226D01*
X0110375Y0049193D01*
X0110350Y0049163D01*
X0110322Y0049136D01*
X0110291Y0049111D01*
X0110258Y0049090D01*
X0110223Y0049072D01*
X0110186Y0049058D01*
X0110149Y0049047D01*
X0110110Y0049040D01*
X0110071Y0049037D01*
X0110032Y0049038D01*
X0109993Y0049043D01*
X0109954Y0049052D01*
X0109917Y0049064D01*
X0109881Y0049080D01*
X0109847Y0049100D01*
X0109815Y0049123D01*
X0109786Y0049149D01*
X0109759Y0049178D01*
X0109735Y0049209D01*
X0109715Y0049243D01*
X0109698Y0049278D01*
X0109685Y0049315D01*
X0109675Y0049353D01*
X0109669Y0049392D01*
X0109667Y0049431D01*
D11*
X0225455Y0054313D03*
X0228762Y0054313D03*
X0232069Y0054313D03*
X0235376Y0054313D03*
X0235376Y0057620D03*
X0232069Y0057620D03*
X0232069Y0060928D03*
X0235376Y0060928D03*
X0238683Y0060928D03*
X0241991Y0060928D03*
X0241991Y0057620D03*
X0238683Y0057620D03*
X0238683Y0054313D03*
X0241991Y0054313D03*
X0228762Y0048802D03*
X0232069Y0064235D03*
X0235376Y0064235D03*
X0238683Y0064235D03*
X0241991Y0064235D03*
D12*
X0245298Y0053900D03*
D13*
X0243644Y0049353D03*
X0240337Y0046046D03*
X0237030Y0049353D03*
X0233723Y0046046D03*
X0230416Y0044943D03*
X0222699Y0051557D03*
X0220494Y0051557D03*
X0218290Y0051557D03*
X0219392Y0053762D03*
X0217187Y0053762D03*
X0221597Y0053762D03*
X0223802Y0053762D03*
D14*
X0225455Y0049353D03*
X0228762Y0046046D03*
X0232069Y0046046D03*
X0235376Y0046046D03*
X0235376Y0049353D03*
X0232069Y0049353D03*
X0238683Y0049353D03*
X0241991Y0049353D03*
X0245298Y0048250D03*
X0245298Y0046046D03*
X0241991Y0046046D03*
X0238683Y0046046D03*
X0238683Y0042739D03*
X0241991Y0042739D03*
X0245298Y0043841D03*
X0235376Y0042739D03*
X0232069Y0042739D03*
X0228762Y0058172D03*
X0228762Y0060376D03*
X0245298Y0060376D03*
X0245298Y0058172D03*
D15*
X0240337Y0038329D03*
X0233723Y0038329D03*
D16*
X0229313Y0042187D03*
D17*
X0233723Y0041085D03*
X0240337Y0041085D03*
X0240337Y0044392D03*
X0237030Y0044392D03*
X0233723Y0044392D03*
X0233723Y0047699D03*
X0237030Y0047699D03*
X0240337Y0047699D03*
X0243644Y0047699D03*
X0243644Y0044392D03*
X0243644Y0051006D03*
X0240337Y0051006D03*
X0237030Y0051006D03*
X0233723Y0051006D03*
X0230416Y0047699D03*
X0227109Y0051006D03*
X0223802Y0049904D03*
D18*
X0215534Y0050455D03*
X0245298Y0041636D03*
D19*
X0243644Y0041636D03*
X0246951Y0046046D03*
X0237030Y0041636D03*
X0227109Y0046046D03*
X0230416Y0050455D03*
D20*
X0238683Y0052384D03*
X0241991Y0052384D03*
X0245298Y0052384D03*
D21*
X0246951Y0051695D03*
X0217187Y0049766D03*
D22*
X0245298Y0049766D03*
D23*
X0240337Y0052384D03*
D24*
X0233723Y0052384D03*
X0227109Y0052384D03*
D25*
X0222699Y0052384D03*
X0218290Y0052384D03*
D26*
X0217187Y0050869D03*
D27*
X0220494Y0049904D03*
D28*
X0135258Y0071872D03*
X0135258Y0080534D03*
X0135258Y0089589D03*
X0135258Y0098250D03*
D29*
X0100219Y0095888D03*
X0091557Y0095888D03*
X0091557Y0105731D03*
X0100219Y0105731D03*
X0146676Y0133290D03*
X0155337Y0133290D03*
X0155337Y0141164D03*
X0146676Y0141164D03*
X0193920Y0129353D03*
X0202581Y0129353D03*
X0203762Y0117542D03*
X0212424Y0117542D03*
X0204550Y0034865D03*
X0195888Y0034865D03*
X0203762Y0023054D03*
X0212424Y0023054D03*
D30*
X0122660Y0073392D03*
X0119849Y0076203D03*
X0122660Y0079014D03*
D31*
X0194156Y0076203D03*
X0204156Y0086203D03*
X0211227Y0083274D03*
X0214156Y0076203D03*
X0204156Y0066203D03*
D32*
X0145101Y0070691D03*
X0145101Y0081715D03*
D33*
X0137384Y0129746D03*
X0127384Y0139746D03*
X0117384Y0129746D03*
D34*
X0036833Y0101794D03*
X0036833Y0089983D03*
X0036833Y0078172D03*
D35*
X0054983Y0025022D03*
X0064983Y0025022D03*
X0074983Y0025022D03*
X0084983Y0025022D03*
X0094983Y0025022D03*
X0104983Y0025022D03*
X0114983Y0025022D03*
X0124983Y0025022D03*
X0134983Y0025022D03*
X0134983Y0013211D03*
X0124983Y0013211D03*
X0114983Y0013211D03*
X0104983Y0013211D03*
X0094983Y0013211D03*
X0084983Y0013211D03*
X0074983Y0013211D03*
X0064983Y0013211D03*
X0054983Y0013211D03*
X0145101Y0062424D03*
X0145101Y0089983D03*
X0186439Y0123447D03*
X0212030Y0103762D03*
X0221872Y0127384D03*
X0196282Y0143132D03*
X0137227Y0141164D03*
X0196282Y0048644D03*
X0186439Y0028959D03*
X0212030Y0009274D03*
X0231715Y0028959D03*
D36*
X0125416Y0092050D03*
X0125416Y0094609D03*
X0125416Y0097168D03*
X0125416Y0099727D03*
X0109668Y0099727D03*
X0109668Y0097168D03*
X0109668Y0094609D03*
X0109668Y0092050D03*
D37*
X0117542Y0095888D03*
D38*
X0013644Y0138920D03*
X0013644Y0048920D03*
X0013211Y0033054D03*
X0025022Y0033054D03*
D39*
X0023644Y0048920D03*
X0033644Y0048920D03*
X0043644Y0048920D03*
X0053644Y0048920D03*
X0063644Y0048920D03*
X0073644Y0048920D03*
X0083644Y0048920D03*
X0083644Y0138920D03*
X0073644Y0138920D03*
X0063644Y0138920D03*
X0053644Y0138920D03*
X0043644Y0138920D03*
X0033644Y0138920D03*
X0023644Y0138920D03*
D40*
X0013211Y0013054D03*
X0025022Y0013054D03*
X0025022Y0023054D03*
X0013211Y0023054D03*
D41*
X0121479Y0040770D03*
X0121479Y0111636D03*
D42*
X0044983Y0025022D03*
X0044983Y0013211D03*
D43*
X0168723Y0076203D03*
D44*
X0243526Y0137227D03*
X0243526Y0015180D03*
D45*
X0104943Y0071203D03*
X0104943Y0081203D03*
M02*
