G75*
%MOIN*%
%OFA0B0*%
%FSLAX25Y25*%
%IPPOS*%
%LPD*%
%AMOC8*
5,1,8,0,0,1.08239X$1,22.5*
%
%ADD10C,0.00600*%
%ADD11C,0.00787*%
%ADD12C,0.00500*%
%ADD13C,0.00200*%
%ADD14C,0.01600*%
%ADD15C,0.01200*%
%ADD16C,0.02000*%
%ADD17C,0.00100*%
D10*
X0008093Y0007699D02*
X0018329Y0007699D01*
X0018329Y0038408D01*
X0008093Y0038408D01*
X0008093Y0007699D01*
X0019904Y0007699D02*
X0030140Y0007699D01*
X0030140Y0038408D01*
X0019904Y0038408D01*
X0019904Y0007699D01*
X0039589Y0007699D02*
X0140376Y0007699D01*
X0140376Y0018723D01*
X0039589Y0018723D01*
X0039589Y0007699D01*
X0049983Y0008014D02*
X0049983Y0018408D01*
X0049983Y0019825D02*
X0049983Y0030219D01*
X0039589Y0030534D02*
X0140376Y0030534D01*
X0140376Y0019510D01*
X0039589Y0019510D01*
X0039589Y0030534D01*
X0029924Y0028054D02*
X0020120Y0028054D01*
X0018113Y0028054D02*
X0008309Y0028054D01*
X0008644Y0043920D02*
X0008644Y0053920D01*
X0018644Y0053920D01*
X0018644Y0043920D01*
X0088644Y0043920D01*
X0088644Y0053920D01*
X0018644Y0053920D01*
X0018676Y0053931D02*
X0018676Y0057931D01*
X0028676Y0057931D02*
X0028676Y0053931D01*
X0038676Y0053931D02*
X0038676Y0057931D01*
X0048676Y0057931D02*
X0048676Y0053931D01*
X0058676Y0053931D02*
X0058676Y0057931D01*
X0068676Y0057931D02*
X0068676Y0053931D01*
X0078676Y0053931D02*
X0078676Y0057931D01*
X0068329Y0067542D02*
X0064589Y0067542D01*
X0060258Y0067542D02*
X0056518Y0067542D01*
X0056518Y0073054D01*
X0060849Y0073054D02*
X0063998Y0073054D01*
X0068329Y0073054D02*
X0068329Y0067542D01*
X0076991Y0069510D02*
X0076991Y0071085D01*
X0082896Y0071085D02*
X0082896Y0069707D01*
X0115180Y0072169D02*
X0115180Y0080237D01*
X0103653Y0076203D02*
X0103658Y0076640D01*
X0103674Y0077078D01*
X0103701Y0077514D01*
X0103739Y0077950D01*
X0103787Y0078385D01*
X0103846Y0078819D01*
X0103915Y0079251D01*
X0103996Y0079681D01*
X0104086Y0080109D01*
X0104187Y0080534D01*
X0104299Y0080957D01*
X0104421Y0081378D01*
X0104553Y0081795D01*
X0104695Y0082208D01*
X0104847Y0082618D01*
X0105010Y0083025D01*
X0105182Y0083427D01*
X0105364Y0083825D01*
X0105556Y0084218D01*
X0105758Y0084606D01*
X0105969Y0084989D01*
X0106189Y0085367D01*
X0106419Y0085740D01*
X0106657Y0086107D01*
X0106905Y0086467D01*
X0107161Y0086822D01*
X0107426Y0087170D01*
X0107699Y0087512D01*
X0107981Y0087846D01*
X0108271Y0088174D01*
X0108569Y0088495D01*
X0108874Y0088808D01*
X0109187Y0089113D01*
X0109508Y0089411D01*
X0109836Y0089701D01*
X0110170Y0089983D01*
X0110512Y0090256D01*
X0110860Y0090521D01*
X0111215Y0090777D01*
X0111575Y0091025D01*
X0111942Y0091263D01*
X0112315Y0091493D01*
X0112693Y0091713D01*
X0113076Y0091924D01*
X0113464Y0092126D01*
X0113857Y0092318D01*
X0114255Y0092500D01*
X0114657Y0092672D01*
X0115064Y0092835D01*
X0115474Y0092987D01*
X0115887Y0093129D01*
X0116304Y0093261D01*
X0116725Y0093383D01*
X0117148Y0093495D01*
X0117573Y0093596D01*
X0118001Y0093686D01*
X0118431Y0093767D01*
X0118863Y0093836D01*
X0119297Y0093895D01*
X0119732Y0093943D01*
X0120168Y0093981D01*
X0120604Y0094008D01*
X0121042Y0094024D01*
X0121479Y0094029D01*
X0121916Y0094024D01*
X0122354Y0094008D01*
X0122790Y0093981D01*
X0123226Y0093943D01*
X0123661Y0093895D01*
X0124095Y0093836D01*
X0124527Y0093767D01*
X0124957Y0093686D01*
X0125385Y0093596D01*
X0125810Y0093495D01*
X0126233Y0093383D01*
X0126654Y0093261D01*
X0127071Y0093129D01*
X0127484Y0092987D01*
X0127894Y0092835D01*
X0128301Y0092672D01*
X0128703Y0092500D01*
X0129101Y0092318D01*
X0129494Y0092126D01*
X0129882Y0091924D01*
X0130265Y0091713D01*
X0130643Y0091493D01*
X0131016Y0091263D01*
X0131383Y0091025D01*
X0131743Y0090777D01*
X0132098Y0090521D01*
X0132446Y0090256D01*
X0132788Y0089983D01*
X0133122Y0089701D01*
X0133450Y0089411D01*
X0133771Y0089113D01*
X0134084Y0088808D01*
X0134389Y0088495D01*
X0134687Y0088174D01*
X0134977Y0087846D01*
X0135259Y0087512D01*
X0135532Y0087170D01*
X0135797Y0086822D01*
X0136053Y0086467D01*
X0136301Y0086107D01*
X0136539Y0085740D01*
X0136769Y0085367D01*
X0136989Y0084989D01*
X0137200Y0084606D01*
X0137402Y0084218D01*
X0137594Y0083825D01*
X0137776Y0083427D01*
X0137948Y0083025D01*
X0138111Y0082618D01*
X0138263Y0082208D01*
X0138405Y0081795D01*
X0138537Y0081378D01*
X0138659Y0080957D01*
X0138771Y0080534D01*
X0138872Y0080109D01*
X0138962Y0079681D01*
X0139043Y0079251D01*
X0139112Y0078819D01*
X0139171Y0078385D01*
X0139219Y0077950D01*
X0139257Y0077514D01*
X0139284Y0077078D01*
X0139300Y0076640D01*
X0139305Y0076203D01*
X0139300Y0075766D01*
X0139284Y0075328D01*
X0139257Y0074892D01*
X0139219Y0074456D01*
X0139171Y0074021D01*
X0139112Y0073587D01*
X0139043Y0073155D01*
X0138962Y0072725D01*
X0138872Y0072297D01*
X0138771Y0071872D01*
X0138659Y0071449D01*
X0138537Y0071028D01*
X0138405Y0070611D01*
X0138263Y0070198D01*
X0138111Y0069788D01*
X0137948Y0069381D01*
X0137776Y0068979D01*
X0137594Y0068581D01*
X0137402Y0068188D01*
X0137200Y0067800D01*
X0136989Y0067417D01*
X0136769Y0067039D01*
X0136539Y0066666D01*
X0136301Y0066299D01*
X0136053Y0065939D01*
X0135797Y0065584D01*
X0135532Y0065236D01*
X0135259Y0064894D01*
X0134977Y0064560D01*
X0134687Y0064232D01*
X0134389Y0063911D01*
X0134084Y0063598D01*
X0133771Y0063293D01*
X0133450Y0062995D01*
X0133122Y0062705D01*
X0132788Y0062423D01*
X0132446Y0062150D01*
X0132098Y0061885D01*
X0131743Y0061629D01*
X0131383Y0061381D01*
X0131016Y0061143D01*
X0130643Y0060913D01*
X0130265Y0060693D01*
X0129882Y0060482D01*
X0129494Y0060280D01*
X0129101Y0060088D01*
X0128703Y0059906D01*
X0128301Y0059734D01*
X0127894Y0059571D01*
X0127484Y0059419D01*
X0127071Y0059277D01*
X0126654Y0059145D01*
X0126233Y0059023D01*
X0125810Y0058911D01*
X0125385Y0058810D01*
X0124957Y0058720D01*
X0124527Y0058639D01*
X0124095Y0058570D01*
X0123661Y0058511D01*
X0123226Y0058463D01*
X0122790Y0058425D01*
X0122354Y0058398D01*
X0121916Y0058382D01*
X0121479Y0058377D01*
X0121042Y0058382D01*
X0120604Y0058398D01*
X0120168Y0058425D01*
X0119732Y0058463D01*
X0119297Y0058511D01*
X0118863Y0058570D01*
X0118431Y0058639D01*
X0118001Y0058720D01*
X0117573Y0058810D01*
X0117148Y0058911D01*
X0116725Y0059023D01*
X0116304Y0059145D01*
X0115887Y0059277D01*
X0115474Y0059419D01*
X0115064Y0059571D01*
X0114657Y0059734D01*
X0114255Y0059906D01*
X0113857Y0060088D01*
X0113464Y0060280D01*
X0113076Y0060482D01*
X0112693Y0060693D01*
X0112315Y0060913D01*
X0111942Y0061143D01*
X0111575Y0061381D01*
X0111215Y0061629D01*
X0110860Y0061885D01*
X0110512Y0062150D01*
X0110170Y0062423D01*
X0109836Y0062705D01*
X0109508Y0062995D01*
X0109187Y0063293D01*
X0108874Y0063598D01*
X0108569Y0063911D01*
X0108271Y0064232D01*
X0107981Y0064560D01*
X0107699Y0064894D01*
X0107426Y0065236D01*
X0107161Y0065584D01*
X0106905Y0065939D01*
X0106657Y0066299D01*
X0106419Y0066666D01*
X0106189Y0067039D01*
X0105969Y0067417D01*
X0105758Y0067800D01*
X0105556Y0068188D01*
X0105364Y0068581D01*
X0105182Y0068979D01*
X0105010Y0069381D01*
X0104847Y0069788D01*
X0104695Y0070198D01*
X0104553Y0070611D01*
X0104421Y0071028D01*
X0104299Y0071449D01*
X0104187Y0071872D01*
X0104086Y0072297D01*
X0103996Y0072725D01*
X0103915Y0073155D01*
X0103846Y0073587D01*
X0103787Y0074021D01*
X0103739Y0074456D01*
X0103701Y0074892D01*
X0103674Y0075328D01*
X0103658Y0075766D01*
X0103653Y0076203D01*
X0115180Y0072169D02*
X0115280Y0072016D01*
X0115384Y0071866D01*
X0115492Y0071719D01*
X0115603Y0071574D01*
X0115718Y0071432D01*
X0115836Y0071293D01*
X0115958Y0071156D01*
X0116083Y0071023D01*
X0116211Y0070893D01*
X0116342Y0070766D01*
X0116477Y0070642D01*
X0116614Y0070521D01*
X0116754Y0070404D01*
X0116897Y0070291D01*
X0117043Y0070181D01*
X0117191Y0070074D01*
X0117342Y0069971D01*
X0117495Y0069872D01*
X0117651Y0069777D01*
X0117809Y0069685D01*
X0117969Y0069597D01*
X0118132Y0069514D01*
X0118296Y0069434D01*
X0118462Y0069358D01*
X0118630Y0069287D01*
X0118800Y0069219D01*
X0118971Y0069156D01*
X0119144Y0069097D01*
X0119318Y0069042D01*
X0119494Y0068991D01*
X0119671Y0068945D01*
X0119848Y0068903D01*
X0120027Y0068865D01*
X0120207Y0068832D01*
X0120387Y0068803D01*
X0120568Y0068779D01*
X0120750Y0068759D01*
X0120932Y0068743D01*
X0121114Y0068732D01*
X0121296Y0068725D01*
X0121479Y0068723D01*
X0121662Y0068725D01*
X0121844Y0068732D01*
X0122026Y0068743D01*
X0122208Y0068759D01*
X0122390Y0068779D01*
X0122571Y0068803D01*
X0122751Y0068832D01*
X0122931Y0068865D01*
X0123110Y0068903D01*
X0123287Y0068945D01*
X0123464Y0068991D01*
X0123640Y0069042D01*
X0123814Y0069097D01*
X0123987Y0069156D01*
X0124158Y0069219D01*
X0124328Y0069287D01*
X0124496Y0069358D01*
X0124662Y0069434D01*
X0124826Y0069514D01*
X0124989Y0069597D01*
X0125149Y0069685D01*
X0125307Y0069777D01*
X0125463Y0069872D01*
X0125616Y0069971D01*
X0125767Y0070074D01*
X0125915Y0070181D01*
X0126061Y0070291D01*
X0126204Y0070404D01*
X0126344Y0070521D01*
X0126481Y0070642D01*
X0126616Y0070766D01*
X0126747Y0070893D01*
X0126875Y0071023D01*
X0127000Y0071156D01*
X0127122Y0071293D01*
X0127240Y0071432D01*
X0127355Y0071574D01*
X0127466Y0071719D01*
X0127574Y0071866D01*
X0127678Y0072016D01*
X0127778Y0072169D01*
X0127778Y0080237D01*
X0127678Y0080390D01*
X0127574Y0080540D01*
X0127466Y0080687D01*
X0127355Y0080832D01*
X0127240Y0080974D01*
X0127122Y0081113D01*
X0127000Y0081250D01*
X0126875Y0081383D01*
X0126747Y0081513D01*
X0126616Y0081640D01*
X0126481Y0081764D01*
X0126344Y0081885D01*
X0126204Y0082002D01*
X0126061Y0082115D01*
X0125915Y0082225D01*
X0125767Y0082332D01*
X0125616Y0082435D01*
X0125463Y0082534D01*
X0125307Y0082629D01*
X0125149Y0082721D01*
X0124989Y0082809D01*
X0124826Y0082892D01*
X0124662Y0082972D01*
X0124496Y0083048D01*
X0124328Y0083119D01*
X0124158Y0083187D01*
X0123987Y0083250D01*
X0123814Y0083309D01*
X0123640Y0083364D01*
X0123464Y0083415D01*
X0123287Y0083461D01*
X0123110Y0083503D01*
X0122931Y0083541D01*
X0122751Y0083574D01*
X0122571Y0083603D01*
X0122390Y0083627D01*
X0122208Y0083647D01*
X0122026Y0083663D01*
X0121844Y0083674D01*
X0121662Y0083681D01*
X0121479Y0083683D01*
X0121296Y0083681D01*
X0121114Y0083674D01*
X0120932Y0083663D01*
X0120750Y0083647D01*
X0120568Y0083627D01*
X0120387Y0083603D01*
X0120207Y0083574D01*
X0120027Y0083541D01*
X0119848Y0083503D01*
X0119671Y0083461D01*
X0119494Y0083415D01*
X0119318Y0083364D01*
X0119144Y0083309D01*
X0118971Y0083250D01*
X0118800Y0083187D01*
X0118630Y0083119D01*
X0118462Y0083048D01*
X0118296Y0082972D01*
X0118132Y0082892D01*
X0117969Y0082809D01*
X0117809Y0082721D01*
X0117651Y0082629D01*
X0117495Y0082534D01*
X0117342Y0082435D01*
X0117191Y0082332D01*
X0117043Y0082225D01*
X0116897Y0082115D01*
X0116754Y0082002D01*
X0116614Y0081885D01*
X0116477Y0081764D01*
X0116342Y0081640D01*
X0116211Y0081513D01*
X0116083Y0081383D01*
X0115958Y0081250D01*
X0115836Y0081113D01*
X0115718Y0080974D01*
X0115603Y0080832D01*
X0115492Y0080687D01*
X0115384Y0080540D01*
X0115280Y0080390D01*
X0115180Y0080237D01*
X0113605Y0107699D02*
X0091951Y0107699D01*
X0091951Y0044707D01*
X0113605Y0044707D01*
X0113605Y0040770D01*
X0121479Y0032896D02*
X0121669Y0032898D01*
X0121859Y0032905D01*
X0122049Y0032917D01*
X0122239Y0032933D01*
X0122428Y0032953D01*
X0122617Y0032979D01*
X0122805Y0033008D01*
X0122992Y0033043D01*
X0123178Y0033082D01*
X0123363Y0033125D01*
X0123548Y0033173D01*
X0123731Y0033225D01*
X0123912Y0033281D01*
X0124092Y0033342D01*
X0124271Y0033408D01*
X0124448Y0033477D01*
X0124624Y0033551D01*
X0124797Y0033629D01*
X0124969Y0033712D01*
X0125138Y0033798D01*
X0125306Y0033888D01*
X0125471Y0033983D01*
X0125634Y0034081D01*
X0125794Y0034184D01*
X0125952Y0034290D01*
X0126107Y0034400D01*
X0126260Y0034513D01*
X0126410Y0034631D01*
X0126556Y0034752D01*
X0126700Y0034876D01*
X0126841Y0035004D01*
X0126979Y0035135D01*
X0127114Y0035270D01*
X0127245Y0035408D01*
X0127373Y0035549D01*
X0127497Y0035693D01*
X0127618Y0035839D01*
X0127736Y0035989D01*
X0127849Y0036142D01*
X0127959Y0036297D01*
X0128065Y0036455D01*
X0128168Y0036615D01*
X0128266Y0036778D01*
X0128361Y0036943D01*
X0128451Y0037111D01*
X0128537Y0037280D01*
X0128620Y0037452D01*
X0128698Y0037625D01*
X0128772Y0037801D01*
X0128841Y0037978D01*
X0128907Y0038157D01*
X0128968Y0038337D01*
X0129024Y0038518D01*
X0129076Y0038701D01*
X0129124Y0038886D01*
X0129167Y0039071D01*
X0129206Y0039257D01*
X0129241Y0039444D01*
X0129270Y0039632D01*
X0129296Y0039821D01*
X0129316Y0040010D01*
X0129332Y0040200D01*
X0129344Y0040390D01*
X0129351Y0040580D01*
X0129353Y0040770D01*
X0129353Y0044707D01*
X0151006Y0044707D01*
X0151006Y0107699D01*
X0129353Y0107699D01*
X0129353Y0111636D01*
X0121479Y0119510D02*
X0121289Y0119508D01*
X0121099Y0119501D01*
X0120909Y0119489D01*
X0120719Y0119473D01*
X0120530Y0119453D01*
X0120341Y0119427D01*
X0120153Y0119398D01*
X0119966Y0119363D01*
X0119780Y0119324D01*
X0119595Y0119281D01*
X0119410Y0119233D01*
X0119227Y0119181D01*
X0119046Y0119125D01*
X0118866Y0119064D01*
X0118687Y0118998D01*
X0118510Y0118929D01*
X0118334Y0118855D01*
X0118161Y0118777D01*
X0117989Y0118694D01*
X0117820Y0118608D01*
X0117652Y0118518D01*
X0117487Y0118423D01*
X0117324Y0118325D01*
X0117164Y0118222D01*
X0117006Y0118116D01*
X0116851Y0118006D01*
X0116698Y0117893D01*
X0116548Y0117775D01*
X0116402Y0117654D01*
X0116258Y0117530D01*
X0116117Y0117402D01*
X0115979Y0117271D01*
X0115844Y0117136D01*
X0115713Y0116998D01*
X0115585Y0116857D01*
X0115461Y0116713D01*
X0115340Y0116567D01*
X0115222Y0116417D01*
X0115109Y0116264D01*
X0114999Y0116109D01*
X0114893Y0115951D01*
X0114790Y0115791D01*
X0114692Y0115628D01*
X0114597Y0115463D01*
X0114507Y0115295D01*
X0114421Y0115126D01*
X0114338Y0114954D01*
X0114260Y0114781D01*
X0114186Y0114605D01*
X0114117Y0114428D01*
X0114051Y0114249D01*
X0113990Y0114069D01*
X0113934Y0113888D01*
X0113882Y0113705D01*
X0113834Y0113520D01*
X0113791Y0113335D01*
X0113752Y0113149D01*
X0113717Y0112962D01*
X0113688Y0112774D01*
X0113662Y0112585D01*
X0113642Y0112396D01*
X0113626Y0112206D01*
X0113614Y0112016D01*
X0113607Y0111826D01*
X0113605Y0111636D01*
X0113605Y0107699D01*
X0121479Y0119510D02*
X0121669Y0119508D01*
X0121859Y0119501D01*
X0122049Y0119489D01*
X0122239Y0119473D01*
X0122428Y0119453D01*
X0122617Y0119427D01*
X0122805Y0119398D01*
X0122992Y0119363D01*
X0123178Y0119324D01*
X0123363Y0119281D01*
X0123548Y0119233D01*
X0123731Y0119181D01*
X0123912Y0119125D01*
X0124092Y0119064D01*
X0124271Y0118998D01*
X0124448Y0118929D01*
X0124624Y0118855D01*
X0124797Y0118777D01*
X0124969Y0118694D01*
X0125138Y0118608D01*
X0125306Y0118518D01*
X0125471Y0118423D01*
X0125634Y0118325D01*
X0125794Y0118222D01*
X0125952Y0118116D01*
X0126107Y0118006D01*
X0126260Y0117893D01*
X0126410Y0117775D01*
X0126556Y0117654D01*
X0126700Y0117530D01*
X0126841Y0117402D01*
X0126979Y0117271D01*
X0127114Y0117136D01*
X0127245Y0116998D01*
X0127373Y0116857D01*
X0127497Y0116713D01*
X0127618Y0116567D01*
X0127736Y0116417D01*
X0127849Y0116264D01*
X0127959Y0116109D01*
X0128065Y0115951D01*
X0128168Y0115791D01*
X0128266Y0115628D01*
X0128361Y0115463D01*
X0128451Y0115295D01*
X0128537Y0115126D01*
X0128620Y0114954D01*
X0128698Y0114781D01*
X0128772Y0114605D01*
X0128841Y0114428D01*
X0128907Y0114249D01*
X0128968Y0114069D01*
X0129024Y0113888D01*
X0129076Y0113705D01*
X0129124Y0113520D01*
X0129167Y0113335D01*
X0129206Y0113149D01*
X0129241Y0112962D01*
X0129270Y0112774D01*
X0129296Y0112585D01*
X0129316Y0112396D01*
X0129332Y0112206D01*
X0129344Y0112016D01*
X0129351Y0111826D01*
X0129353Y0111636D01*
X0135652Y0127384D02*
X0119117Y0127384D01*
X0115573Y0127384D02*
X0108093Y0127384D01*
X0108093Y0147069D01*
X0146676Y0147069D01*
X0146676Y0127384D01*
X0139195Y0127384D01*
X0162817Y0119117D02*
X0166361Y0119117D01*
X0166361Y0112030D02*
X0162817Y0112030D01*
X0162030Y0108880D02*
X0163605Y0108880D01*
X0172660Y0107699D02*
X0175493Y0104866D01*
X0178277Y0102082D02*
X0181110Y0099249D01*
X0183894Y0096465D02*
X0186728Y0093631D01*
X0189512Y0090848D02*
X0192345Y0088014D01*
X0186041Y0076203D02*
X0186046Y0076648D01*
X0186063Y0077092D01*
X0186090Y0077536D01*
X0186128Y0077979D01*
X0186177Y0078420D01*
X0186237Y0078861D01*
X0186308Y0079300D01*
X0186389Y0079737D01*
X0186481Y0080172D01*
X0186584Y0080605D01*
X0186697Y0081035D01*
X0186821Y0081462D01*
X0186955Y0081885D01*
X0187100Y0082306D01*
X0187255Y0082722D01*
X0187420Y0083135D01*
X0187595Y0083544D01*
X0187780Y0083948D01*
X0187975Y0084348D01*
X0188180Y0084742D01*
X0188394Y0085132D01*
X0188618Y0085516D01*
X0188851Y0085894D01*
X0189094Y0086267D01*
X0189345Y0086634D01*
X0189606Y0086994D01*
X0189875Y0087348D01*
X0190153Y0087695D01*
X0190439Y0088035D01*
X0190734Y0088368D01*
X0191036Y0088694D01*
X0191347Y0089012D01*
X0191665Y0089323D01*
X0191991Y0089625D01*
X0192324Y0089920D01*
X0192664Y0090206D01*
X0193011Y0090484D01*
X0193365Y0090753D01*
X0193725Y0091014D01*
X0194092Y0091265D01*
X0194465Y0091508D01*
X0194843Y0091741D01*
X0195227Y0091965D01*
X0195617Y0092179D01*
X0196011Y0092384D01*
X0196411Y0092579D01*
X0196815Y0092764D01*
X0197224Y0092939D01*
X0197637Y0093104D01*
X0198053Y0093259D01*
X0198474Y0093404D01*
X0198897Y0093538D01*
X0199324Y0093662D01*
X0199754Y0093775D01*
X0200187Y0093878D01*
X0200622Y0093970D01*
X0201059Y0094051D01*
X0201498Y0094122D01*
X0201939Y0094182D01*
X0202380Y0094231D01*
X0202823Y0094269D01*
X0203267Y0094296D01*
X0203711Y0094313D01*
X0204156Y0094318D01*
X0204601Y0094313D01*
X0205045Y0094296D01*
X0205489Y0094269D01*
X0205932Y0094231D01*
X0206373Y0094182D01*
X0206814Y0094122D01*
X0207253Y0094051D01*
X0207690Y0093970D01*
X0208125Y0093878D01*
X0208558Y0093775D01*
X0208988Y0093662D01*
X0209415Y0093538D01*
X0209838Y0093404D01*
X0210259Y0093259D01*
X0210675Y0093104D01*
X0211088Y0092939D01*
X0211497Y0092764D01*
X0211901Y0092579D01*
X0212301Y0092384D01*
X0212695Y0092179D01*
X0213085Y0091965D01*
X0213469Y0091741D01*
X0213847Y0091508D01*
X0214220Y0091265D01*
X0214587Y0091014D01*
X0214947Y0090753D01*
X0215301Y0090484D01*
X0215648Y0090206D01*
X0215988Y0089920D01*
X0216321Y0089625D01*
X0216647Y0089323D01*
X0216965Y0089012D01*
X0217276Y0088694D01*
X0217578Y0088368D01*
X0217873Y0088035D01*
X0218159Y0087695D01*
X0218437Y0087348D01*
X0218706Y0086994D01*
X0218967Y0086634D01*
X0219218Y0086267D01*
X0219461Y0085894D01*
X0219694Y0085516D01*
X0219918Y0085132D01*
X0220132Y0084742D01*
X0220337Y0084348D01*
X0220532Y0083948D01*
X0220717Y0083544D01*
X0220892Y0083135D01*
X0221057Y0082722D01*
X0221212Y0082306D01*
X0221357Y0081885D01*
X0221491Y0081462D01*
X0221615Y0081035D01*
X0221728Y0080605D01*
X0221831Y0080172D01*
X0221923Y0079737D01*
X0222004Y0079300D01*
X0222075Y0078861D01*
X0222135Y0078420D01*
X0222184Y0077979D01*
X0222222Y0077536D01*
X0222249Y0077092D01*
X0222266Y0076648D01*
X0222271Y0076203D01*
X0222266Y0075758D01*
X0222249Y0075314D01*
X0222222Y0074870D01*
X0222184Y0074427D01*
X0222135Y0073986D01*
X0222075Y0073545D01*
X0222004Y0073106D01*
X0221923Y0072669D01*
X0221831Y0072234D01*
X0221728Y0071801D01*
X0221615Y0071371D01*
X0221491Y0070944D01*
X0221357Y0070521D01*
X0221212Y0070100D01*
X0221057Y0069684D01*
X0220892Y0069271D01*
X0220717Y0068862D01*
X0220532Y0068458D01*
X0220337Y0068058D01*
X0220132Y0067664D01*
X0219918Y0067274D01*
X0219694Y0066890D01*
X0219461Y0066512D01*
X0219218Y0066139D01*
X0218967Y0065772D01*
X0218706Y0065412D01*
X0218437Y0065058D01*
X0218159Y0064711D01*
X0217873Y0064371D01*
X0217578Y0064038D01*
X0217276Y0063712D01*
X0216965Y0063394D01*
X0216647Y0063083D01*
X0216321Y0062781D01*
X0215988Y0062486D01*
X0215648Y0062200D01*
X0215301Y0061922D01*
X0214947Y0061653D01*
X0214587Y0061392D01*
X0214220Y0061141D01*
X0213847Y0060898D01*
X0213469Y0060665D01*
X0213085Y0060441D01*
X0212695Y0060227D01*
X0212301Y0060022D01*
X0211901Y0059827D01*
X0211497Y0059642D01*
X0211088Y0059467D01*
X0210675Y0059302D01*
X0210259Y0059147D01*
X0209838Y0059002D01*
X0209415Y0058868D01*
X0208988Y0058744D01*
X0208558Y0058631D01*
X0208125Y0058528D01*
X0207690Y0058436D01*
X0207253Y0058355D01*
X0206814Y0058284D01*
X0206373Y0058224D01*
X0205932Y0058175D01*
X0205489Y0058137D01*
X0205045Y0058110D01*
X0204601Y0058093D01*
X0204156Y0058088D01*
X0203711Y0058093D01*
X0203267Y0058110D01*
X0202823Y0058137D01*
X0202380Y0058175D01*
X0201939Y0058224D01*
X0201498Y0058284D01*
X0201059Y0058355D01*
X0200622Y0058436D01*
X0200187Y0058528D01*
X0199754Y0058631D01*
X0199324Y0058744D01*
X0198897Y0058868D01*
X0198474Y0059002D01*
X0198053Y0059147D01*
X0197637Y0059302D01*
X0197224Y0059467D01*
X0196815Y0059642D01*
X0196411Y0059827D01*
X0196011Y0060022D01*
X0195617Y0060227D01*
X0195227Y0060441D01*
X0194843Y0060665D01*
X0194465Y0060898D01*
X0194092Y0061141D01*
X0193725Y0061392D01*
X0193365Y0061653D01*
X0193011Y0061922D01*
X0192664Y0062200D01*
X0192324Y0062486D01*
X0191991Y0062781D01*
X0191665Y0063083D01*
X0191347Y0063394D01*
X0191036Y0063712D01*
X0190734Y0064038D01*
X0190439Y0064371D01*
X0190153Y0064711D01*
X0189875Y0065058D01*
X0189606Y0065412D01*
X0189345Y0065772D01*
X0189094Y0066139D01*
X0188851Y0066512D01*
X0188618Y0066890D01*
X0188394Y0067274D01*
X0188180Y0067664D01*
X0187975Y0068058D01*
X0187780Y0068458D01*
X0187595Y0068862D01*
X0187420Y0069271D01*
X0187255Y0069684D01*
X0187100Y0070100D01*
X0186955Y0070521D01*
X0186821Y0070944D01*
X0186697Y0071371D01*
X0186584Y0071801D01*
X0186481Y0072234D01*
X0186389Y0072669D01*
X0186308Y0073106D01*
X0186237Y0073545D01*
X0186177Y0073986D01*
X0186128Y0074427D01*
X0186090Y0074870D01*
X0186063Y0075314D01*
X0186046Y0075758D01*
X0186041Y0076203D01*
X0188152Y0076203D02*
X0188157Y0076596D01*
X0188171Y0076988D01*
X0188195Y0077380D01*
X0188229Y0077772D01*
X0188272Y0078162D01*
X0188325Y0078551D01*
X0188388Y0078939D01*
X0188460Y0079325D01*
X0188541Y0079709D01*
X0188632Y0080092D01*
X0188732Y0080471D01*
X0188841Y0080849D01*
X0188960Y0081223D01*
X0189088Y0081595D01*
X0189224Y0081963D01*
X0189370Y0082327D01*
X0189525Y0082688D01*
X0189689Y0083046D01*
X0189861Y0083399D01*
X0190042Y0083747D01*
X0190231Y0084091D01*
X0190429Y0084431D01*
X0190635Y0084765D01*
X0190849Y0085094D01*
X0191071Y0085418D01*
X0191301Y0085737D01*
X0191539Y0086049D01*
X0191785Y0086356D01*
X0192038Y0086656D01*
X0192298Y0086951D01*
X0192565Y0087238D01*
X0192839Y0087520D01*
X0193121Y0087794D01*
X0193408Y0088061D01*
X0193703Y0088321D01*
X0194003Y0088574D01*
X0194310Y0088820D01*
X0194622Y0089058D01*
X0194941Y0089288D01*
X0195265Y0089510D01*
X0195594Y0089724D01*
X0195928Y0089930D01*
X0196268Y0090128D01*
X0196612Y0090317D01*
X0196960Y0090498D01*
X0197313Y0090670D01*
X0197671Y0090834D01*
X0198032Y0090989D01*
X0198396Y0091135D01*
X0198764Y0091271D01*
X0199136Y0091399D01*
X0199510Y0091518D01*
X0199888Y0091627D01*
X0200267Y0091727D01*
X0200650Y0091818D01*
X0201034Y0091899D01*
X0201420Y0091971D01*
X0201808Y0092034D01*
X0202197Y0092087D01*
X0202587Y0092130D01*
X0202979Y0092164D01*
X0203371Y0092188D01*
X0203763Y0092202D01*
X0204156Y0092207D01*
X0204549Y0092202D01*
X0204941Y0092188D01*
X0205333Y0092164D01*
X0205725Y0092130D01*
X0206115Y0092087D01*
X0206504Y0092034D01*
X0206892Y0091971D01*
X0207278Y0091899D01*
X0207662Y0091818D01*
X0208045Y0091727D01*
X0208424Y0091627D01*
X0208802Y0091518D01*
X0209176Y0091399D01*
X0209548Y0091271D01*
X0209916Y0091135D01*
X0210280Y0090989D01*
X0210641Y0090834D01*
X0210999Y0090670D01*
X0211352Y0090498D01*
X0211700Y0090317D01*
X0212044Y0090128D01*
X0212384Y0089930D01*
X0212718Y0089724D01*
X0213047Y0089510D01*
X0213371Y0089288D01*
X0213690Y0089058D01*
X0214002Y0088820D01*
X0214309Y0088574D01*
X0214609Y0088321D01*
X0214904Y0088061D01*
X0215191Y0087794D01*
X0215473Y0087520D01*
X0215747Y0087238D01*
X0216014Y0086951D01*
X0216274Y0086656D01*
X0216527Y0086356D01*
X0216773Y0086049D01*
X0217011Y0085737D01*
X0217241Y0085418D01*
X0217463Y0085094D01*
X0217677Y0084765D01*
X0217883Y0084431D01*
X0218081Y0084091D01*
X0218270Y0083747D01*
X0218451Y0083399D01*
X0218623Y0083046D01*
X0218787Y0082688D01*
X0218942Y0082327D01*
X0219088Y0081963D01*
X0219224Y0081595D01*
X0219352Y0081223D01*
X0219471Y0080849D01*
X0219580Y0080471D01*
X0219680Y0080092D01*
X0219771Y0079709D01*
X0219852Y0079325D01*
X0219924Y0078939D01*
X0219987Y0078551D01*
X0220040Y0078162D01*
X0220083Y0077772D01*
X0220117Y0077380D01*
X0220141Y0076988D01*
X0220155Y0076596D01*
X0220160Y0076203D01*
X0220155Y0075810D01*
X0220141Y0075418D01*
X0220117Y0075026D01*
X0220083Y0074634D01*
X0220040Y0074244D01*
X0219987Y0073855D01*
X0219924Y0073467D01*
X0219852Y0073081D01*
X0219771Y0072697D01*
X0219680Y0072314D01*
X0219580Y0071935D01*
X0219471Y0071557D01*
X0219352Y0071183D01*
X0219224Y0070811D01*
X0219088Y0070443D01*
X0218942Y0070079D01*
X0218787Y0069718D01*
X0218623Y0069360D01*
X0218451Y0069007D01*
X0218270Y0068659D01*
X0218081Y0068315D01*
X0217883Y0067975D01*
X0217677Y0067641D01*
X0217463Y0067312D01*
X0217241Y0066988D01*
X0217011Y0066669D01*
X0216773Y0066357D01*
X0216527Y0066050D01*
X0216274Y0065750D01*
X0216014Y0065455D01*
X0215747Y0065168D01*
X0215473Y0064886D01*
X0215191Y0064612D01*
X0214904Y0064345D01*
X0214609Y0064085D01*
X0214309Y0063832D01*
X0214002Y0063586D01*
X0213690Y0063348D01*
X0213371Y0063118D01*
X0213047Y0062896D01*
X0212718Y0062682D01*
X0212384Y0062476D01*
X0212044Y0062278D01*
X0211700Y0062089D01*
X0211352Y0061908D01*
X0210999Y0061736D01*
X0210641Y0061572D01*
X0210280Y0061417D01*
X0209916Y0061271D01*
X0209548Y0061135D01*
X0209176Y0061007D01*
X0208802Y0060888D01*
X0208424Y0060779D01*
X0208045Y0060679D01*
X0207662Y0060588D01*
X0207278Y0060507D01*
X0206892Y0060435D01*
X0206504Y0060372D01*
X0206115Y0060319D01*
X0205725Y0060276D01*
X0205333Y0060242D01*
X0204941Y0060218D01*
X0204549Y0060204D01*
X0204156Y0060199D01*
X0203763Y0060204D01*
X0203371Y0060218D01*
X0202979Y0060242D01*
X0202587Y0060276D01*
X0202197Y0060319D01*
X0201808Y0060372D01*
X0201420Y0060435D01*
X0201034Y0060507D01*
X0200650Y0060588D01*
X0200267Y0060679D01*
X0199888Y0060779D01*
X0199510Y0060888D01*
X0199136Y0061007D01*
X0198764Y0061135D01*
X0198396Y0061271D01*
X0198032Y0061417D01*
X0197671Y0061572D01*
X0197313Y0061736D01*
X0196960Y0061908D01*
X0196612Y0062089D01*
X0196268Y0062278D01*
X0195928Y0062476D01*
X0195594Y0062682D01*
X0195265Y0062896D01*
X0194941Y0063118D01*
X0194622Y0063348D01*
X0194310Y0063586D01*
X0194003Y0063832D01*
X0193703Y0064085D01*
X0193408Y0064345D01*
X0193121Y0064612D01*
X0192839Y0064886D01*
X0192565Y0065168D01*
X0192298Y0065455D01*
X0192038Y0065750D01*
X0191785Y0066050D01*
X0191539Y0066357D01*
X0191301Y0066669D01*
X0191071Y0066988D01*
X0190849Y0067312D01*
X0190635Y0067641D01*
X0190429Y0067975D01*
X0190231Y0068315D01*
X0190042Y0068659D01*
X0189861Y0069007D01*
X0189689Y0069360D01*
X0189525Y0069718D01*
X0189370Y0070079D01*
X0189224Y0070443D01*
X0189088Y0070811D01*
X0188960Y0071183D01*
X0188841Y0071557D01*
X0188732Y0071935D01*
X0188632Y0072314D01*
X0188541Y0072697D01*
X0188460Y0073081D01*
X0188388Y0073467D01*
X0188325Y0073855D01*
X0188272Y0074244D01*
X0188229Y0074634D01*
X0188195Y0075026D01*
X0188171Y0075418D01*
X0188157Y0075810D01*
X0188152Y0076203D01*
X0192345Y0064392D02*
X0189512Y0061559D01*
X0186728Y0058775D02*
X0183894Y0055942D01*
X0181110Y0053158D02*
X0178277Y0050324D01*
X0175493Y0047540D02*
X0172660Y0044707D01*
X0166361Y0040376D02*
X0162817Y0040376D01*
X0162227Y0043920D02*
X0163605Y0043920D01*
X0163605Y0049825D02*
X0162030Y0049825D01*
X0164786Y0052581D02*
X0164786Y0056518D01*
X0164786Y0060455D02*
X0164786Y0064392D01*
X0199431Y0045888D02*
X0201006Y0045888D01*
X0201006Y0039983D02*
X0199628Y0039983D01*
X0197857Y0035258D02*
X0197857Y0034471D01*
X0197857Y0035258D02*
X0210455Y0035258D01*
X0210455Y0034471D01*
X0217345Y0039983D02*
X0218723Y0039983D01*
X0218723Y0045888D02*
X0217148Y0045888D01*
X0227201Y0053158D02*
X0230035Y0050324D01*
X0232819Y0047540D02*
X0235652Y0044707D01*
X0241557Y0040376D02*
X0245101Y0040376D01*
X0244904Y0043920D02*
X0246282Y0043920D01*
X0246282Y0049825D02*
X0244707Y0049825D01*
X0243526Y0052581D02*
X0243526Y0057174D01*
X0243526Y0061111D02*
X0243526Y0065704D01*
X0243526Y0069641D02*
X0243526Y0074235D01*
X0243526Y0078172D02*
X0243526Y0082765D01*
X0243526Y0086702D02*
X0243526Y0091295D01*
X0243526Y0095232D02*
X0243526Y0099825D01*
X0244904Y0102975D02*
X0246282Y0102975D01*
X0246282Y0108880D02*
X0244707Y0108880D01*
X0245101Y0112030D02*
X0241557Y0112030D01*
X0235652Y0107699D02*
X0232819Y0104866D01*
X0230035Y0102082D02*
X0227201Y0099249D01*
X0224418Y0096465D02*
X0221584Y0093631D01*
X0220056Y0090103D02*
X0217956Y0092203D01*
X0215856Y0090103D01*
X0215967Y0088014D02*
X0218800Y0090848D01*
X0220056Y0090103D02*
X0217956Y0088003D01*
X0208880Y0106518D02*
X0207306Y0106518D01*
X0207306Y0112424D02*
X0208683Y0112424D01*
X0210455Y0117148D02*
X0210455Y0117935D01*
X0210455Y0117148D02*
X0197857Y0117148D01*
X0197857Y0117935D01*
X0190967Y0112424D02*
X0189589Y0112424D01*
X0189589Y0106518D02*
X0191164Y0106518D01*
X0164786Y0099825D02*
X0164786Y0095888D01*
X0164786Y0091951D02*
X0164786Y0088014D01*
X0163605Y0102975D02*
X0162227Y0102975D01*
X0197857Y0128959D02*
X0197857Y0129746D01*
X0210455Y0129746D01*
X0210455Y0128959D01*
X0217345Y0134471D02*
X0218723Y0134471D01*
X0218723Y0140376D02*
X0217148Y0140376D01*
X0201006Y0140376D02*
X0199431Y0140376D01*
X0199628Y0134471D02*
X0201006Y0134471D01*
X0189195Y0134077D02*
X0189195Y0132699D01*
X0183290Y0132502D02*
X0183290Y0134077D01*
X0219117Y0114195D02*
X0219117Y0112817D01*
X0225022Y0112817D02*
X0225022Y0114392D01*
X0241557Y0119117D02*
X0245101Y0119117D01*
X0215967Y0064392D02*
X0218800Y0061559D01*
X0221584Y0058775D02*
X0224418Y0055942D01*
X0189195Y0039589D02*
X0189195Y0038211D01*
X0183290Y0038014D02*
X0183290Y0039589D01*
X0166361Y0033290D02*
X0162817Y0033290D01*
X0189589Y0017935D02*
X0190967Y0017935D01*
X0197857Y0022660D02*
X0210455Y0022660D01*
X0210455Y0023447D01*
X0219117Y0019707D02*
X0219117Y0018329D01*
X0225022Y0018329D02*
X0225022Y0019904D01*
X0208683Y0017935D02*
X0207306Y0017935D01*
X0207306Y0012030D02*
X0208880Y0012030D01*
X0197857Y0022660D02*
X0197857Y0023447D01*
X0191164Y0012030D02*
X0189589Y0012030D01*
X0241557Y0033290D02*
X0245101Y0033290D01*
X0121479Y0032896D02*
X0121289Y0032898D01*
X0121099Y0032905D01*
X0120909Y0032917D01*
X0120719Y0032933D01*
X0120530Y0032953D01*
X0120341Y0032979D01*
X0120153Y0033008D01*
X0119966Y0033043D01*
X0119780Y0033082D01*
X0119595Y0033125D01*
X0119410Y0033173D01*
X0119227Y0033225D01*
X0119046Y0033281D01*
X0118866Y0033342D01*
X0118687Y0033408D01*
X0118510Y0033477D01*
X0118334Y0033551D01*
X0118161Y0033629D01*
X0117989Y0033712D01*
X0117820Y0033798D01*
X0117652Y0033888D01*
X0117487Y0033983D01*
X0117324Y0034081D01*
X0117164Y0034184D01*
X0117006Y0034290D01*
X0116851Y0034400D01*
X0116698Y0034513D01*
X0116548Y0034631D01*
X0116402Y0034752D01*
X0116258Y0034876D01*
X0116117Y0035004D01*
X0115979Y0035135D01*
X0115844Y0035270D01*
X0115713Y0035408D01*
X0115585Y0035549D01*
X0115461Y0035693D01*
X0115340Y0035839D01*
X0115222Y0035989D01*
X0115109Y0036142D01*
X0114999Y0036297D01*
X0114893Y0036455D01*
X0114790Y0036615D01*
X0114692Y0036778D01*
X0114597Y0036943D01*
X0114507Y0037111D01*
X0114421Y0037280D01*
X0114338Y0037452D01*
X0114260Y0037625D01*
X0114186Y0037801D01*
X0114117Y0037978D01*
X0114051Y0038157D01*
X0113990Y0038337D01*
X0113934Y0038518D01*
X0113882Y0038701D01*
X0113834Y0038886D01*
X0113791Y0039071D01*
X0113752Y0039257D01*
X0113717Y0039444D01*
X0113688Y0039632D01*
X0113662Y0039821D01*
X0113642Y0040010D01*
X0113626Y0040200D01*
X0113614Y0040390D01*
X0113607Y0040580D01*
X0113605Y0040770D01*
X0037620Y0075022D02*
X0036046Y0075022D01*
X0036046Y0080928D02*
X0037424Y0080928D01*
X0037620Y0086833D02*
X0036046Y0086833D01*
X0036046Y0092739D02*
X0037424Y0092739D01*
X0037620Y0098644D02*
X0036046Y0098644D01*
X0036046Y0104550D02*
X0037424Y0104550D01*
X0037620Y0110455D02*
X0036046Y0110455D01*
X0036046Y0116361D02*
X0037424Y0116361D01*
X0018723Y0117148D02*
X0015180Y0117148D01*
X0015180Y0110061D02*
X0018723Y0110061D01*
X0018723Y0105337D02*
X0015180Y0105337D01*
X0015180Y0098250D02*
X0018723Y0098250D01*
X0018723Y0093526D02*
X0015180Y0093526D01*
X0015180Y0086439D02*
X0018723Y0086439D01*
X0018723Y0081715D02*
X0015180Y0081715D01*
X0015180Y0074628D02*
X0018723Y0074628D01*
X0053369Y0095101D02*
X0053369Y0096676D01*
X0059274Y0096676D02*
X0059274Y0095298D01*
X0061243Y0095101D02*
X0061243Y0096676D01*
X0067148Y0096676D02*
X0067148Y0095298D01*
X0068329Y0116754D02*
X0064589Y0116754D01*
X0060258Y0116754D02*
X0056518Y0116754D01*
X0056518Y0122266D01*
X0060849Y0122266D02*
X0063998Y0122266D01*
X0068329Y0122266D02*
X0068329Y0116754D01*
X0068676Y0129931D02*
X0068676Y0133931D01*
X0058676Y0133931D02*
X0058676Y0129931D01*
X0048676Y0129931D02*
X0048676Y0133931D01*
X0038676Y0133931D02*
X0038676Y0129931D01*
X0028676Y0129931D02*
X0028676Y0133931D01*
X0018676Y0133931D02*
X0018676Y0129931D01*
X0018644Y0133920D02*
X0088644Y0133920D01*
X0088644Y0143920D01*
X0093644Y0138920D01*
X0088644Y0143920D02*
X0008644Y0143920D01*
X0008644Y0133920D01*
X0018644Y0133920D01*
X0018644Y0143920D01*
X0078676Y0133931D02*
X0078676Y0129931D01*
X0110258Y0142345D02*
X0110260Y0142476D01*
X0110266Y0142608D01*
X0110276Y0142739D01*
X0110290Y0142870D01*
X0110308Y0143000D01*
X0110330Y0143129D01*
X0110355Y0143258D01*
X0110385Y0143386D01*
X0110419Y0143513D01*
X0110456Y0143640D01*
X0110497Y0143764D01*
X0110542Y0143888D01*
X0110591Y0144010D01*
X0110643Y0144131D01*
X0110699Y0144249D01*
X0110759Y0144367D01*
X0110822Y0144482D01*
X0110889Y0144595D01*
X0110959Y0144707D01*
X0111032Y0144816D01*
X0111108Y0144922D01*
X0111188Y0145027D01*
X0111271Y0145129D01*
X0111357Y0145228D01*
X0111446Y0145325D01*
X0111538Y0145419D01*
X0111633Y0145510D01*
X0111730Y0145599D01*
X0111830Y0145684D01*
X0111933Y0145766D01*
X0112038Y0145845D01*
X0112145Y0145921D01*
X0112255Y0145993D01*
X0112367Y0146062D01*
X0112481Y0146128D01*
X0112596Y0146190D01*
X0112714Y0146249D01*
X0112833Y0146304D01*
X0112954Y0146356D01*
X0113077Y0146403D01*
X0113201Y0146447D01*
X0113326Y0146488D01*
X0113452Y0146524D01*
X0113580Y0146557D01*
X0113708Y0146585D01*
X0113837Y0146610D01*
X0113967Y0146631D01*
X0114097Y0146648D01*
X0114228Y0146661D01*
X0114359Y0146670D01*
X0114490Y0146675D01*
X0114622Y0146676D01*
X0114753Y0146673D01*
X0114885Y0146666D01*
X0115016Y0146655D01*
X0115146Y0146640D01*
X0115276Y0146621D01*
X0115406Y0146598D01*
X0115534Y0146572D01*
X0115662Y0146541D01*
X0115789Y0146506D01*
X0115915Y0146468D01*
X0116039Y0146426D01*
X0116163Y0146380D01*
X0116284Y0146330D01*
X0116404Y0146277D01*
X0116523Y0146220D01*
X0116640Y0146160D01*
X0116754Y0146096D01*
X0116867Y0146028D01*
X0116978Y0145957D01*
X0117087Y0145883D01*
X0117193Y0145806D01*
X0117297Y0145725D01*
X0117398Y0145642D01*
X0117497Y0145555D01*
X0117593Y0145465D01*
X0117686Y0145372D01*
X0117777Y0145277D01*
X0117864Y0145179D01*
X0117949Y0145078D01*
X0118030Y0144975D01*
X0118108Y0144869D01*
X0118183Y0144761D01*
X0118255Y0144651D01*
X0118323Y0144539D01*
X0118388Y0144425D01*
X0118449Y0144308D01*
X0118507Y0144190D01*
X0118561Y0144070D01*
X0118612Y0143949D01*
X0118659Y0143826D01*
X0118702Y0143702D01*
X0118741Y0143577D01*
X0118777Y0143450D01*
X0118808Y0143322D01*
X0118836Y0143194D01*
X0118860Y0143065D01*
X0118880Y0142935D01*
X0118896Y0142804D01*
X0118908Y0142673D01*
X0118916Y0142542D01*
X0118920Y0142411D01*
X0118920Y0142279D01*
X0118916Y0142148D01*
X0118908Y0142017D01*
X0118896Y0141886D01*
X0118880Y0141755D01*
X0118860Y0141625D01*
X0118836Y0141496D01*
X0118808Y0141368D01*
X0118777Y0141240D01*
X0118741Y0141113D01*
X0118702Y0140988D01*
X0118659Y0140864D01*
X0118612Y0140741D01*
X0118561Y0140620D01*
X0118507Y0140500D01*
X0118449Y0140382D01*
X0118388Y0140265D01*
X0118323Y0140151D01*
X0118255Y0140039D01*
X0118183Y0139929D01*
X0118108Y0139821D01*
X0118030Y0139715D01*
X0117949Y0139612D01*
X0117864Y0139511D01*
X0117777Y0139413D01*
X0117686Y0139318D01*
X0117593Y0139225D01*
X0117497Y0139135D01*
X0117398Y0139048D01*
X0117297Y0138965D01*
X0117193Y0138884D01*
X0117087Y0138807D01*
X0116978Y0138733D01*
X0116867Y0138662D01*
X0116755Y0138594D01*
X0116640Y0138530D01*
X0116523Y0138470D01*
X0116404Y0138413D01*
X0116284Y0138360D01*
X0116163Y0138310D01*
X0116039Y0138264D01*
X0115915Y0138222D01*
X0115789Y0138184D01*
X0115662Y0138149D01*
X0115534Y0138118D01*
X0115406Y0138092D01*
X0115276Y0138069D01*
X0115146Y0138050D01*
X0115016Y0138035D01*
X0114885Y0138024D01*
X0114753Y0138017D01*
X0114622Y0138014D01*
X0114490Y0138015D01*
X0114359Y0138020D01*
X0114228Y0138029D01*
X0114097Y0138042D01*
X0113967Y0138059D01*
X0113837Y0138080D01*
X0113708Y0138105D01*
X0113580Y0138133D01*
X0113452Y0138166D01*
X0113326Y0138202D01*
X0113201Y0138243D01*
X0113077Y0138287D01*
X0112954Y0138334D01*
X0112833Y0138386D01*
X0112714Y0138441D01*
X0112596Y0138500D01*
X0112481Y0138562D01*
X0112367Y0138628D01*
X0112255Y0138697D01*
X0112145Y0138769D01*
X0112038Y0138845D01*
X0111933Y0138924D01*
X0111830Y0139006D01*
X0111730Y0139091D01*
X0111633Y0139180D01*
X0111538Y0139271D01*
X0111446Y0139365D01*
X0111357Y0139462D01*
X0111271Y0139561D01*
X0111188Y0139663D01*
X0111108Y0139768D01*
X0111032Y0139874D01*
X0110959Y0139983D01*
X0110889Y0140095D01*
X0110822Y0140208D01*
X0110759Y0140323D01*
X0110699Y0140441D01*
X0110643Y0140559D01*
X0110591Y0140680D01*
X0110542Y0140802D01*
X0110497Y0140926D01*
X0110456Y0141050D01*
X0110419Y0141177D01*
X0110385Y0141304D01*
X0110355Y0141432D01*
X0110330Y0141561D01*
X0110308Y0141690D01*
X0110290Y0141820D01*
X0110276Y0141951D01*
X0110266Y0142082D01*
X0110260Y0142214D01*
X0110258Y0142345D01*
X0018644Y0043920D02*
X0008644Y0043920D01*
D11*
X0018920Y0074628D03*
X0018920Y0081715D03*
X0018920Y0086439D03*
X0018920Y0093526D03*
X0018920Y0098250D03*
X0018920Y0105337D03*
X0018920Y0110061D03*
X0018920Y0117148D03*
X0037424Y0116361D03*
X0037620Y0110455D03*
X0037424Y0104550D03*
X0037620Y0098644D03*
X0037424Y0092739D03*
X0037620Y0086833D03*
X0037424Y0080928D03*
X0037620Y0075022D03*
X0068329Y0075613D03*
X0076991Y0069510D03*
X0082896Y0069707D03*
X0067148Y0095298D03*
X0061243Y0095101D03*
X0059274Y0095298D03*
X0053369Y0095101D03*
X0068329Y0124825D03*
X0162030Y0108880D03*
X0166557Y0112030D03*
X0166557Y0119117D03*
X0183290Y0132502D03*
X0189195Y0132699D03*
X0199628Y0134471D03*
X0199431Y0140376D03*
X0217148Y0140376D03*
X0217345Y0134471D03*
X0245298Y0119117D03*
X0245298Y0112030D03*
X0244707Y0108880D03*
X0244904Y0102975D03*
X0225022Y0114392D03*
X0219117Y0114195D03*
X0214392Y0117935D03*
X0208683Y0112424D03*
X0208880Y0106518D03*
X0191164Y0106518D03*
X0190967Y0112424D03*
X0162227Y0102975D03*
X0162030Y0049825D03*
X0162227Y0043920D03*
X0166557Y0040376D03*
X0166557Y0033290D03*
X0183290Y0038014D03*
X0189195Y0038211D03*
X0193920Y0034471D03*
X0199628Y0039983D03*
X0199431Y0045888D03*
X0217148Y0045888D03*
X0217345Y0039983D03*
X0244904Y0043920D03*
X0245298Y0040376D03*
X0245298Y0033290D03*
X0225022Y0019904D03*
X0219117Y0019707D03*
X0208683Y0017935D03*
X0208880Y0012030D03*
X0191164Y0012030D03*
X0190967Y0017935D03*
X0244707Y0049825D03*
D12*
X0249679Y0050863D02*
X0249679Y0052583D01*
X0250252Y0053156D01*
X0251399Y0053156D01*
X0251972Y0052583D01*
X0251972Y0050863D01*
X0251972Y0052009D02*
X0253119Y0053156D01*
X0253119Y0054488D02*
X0253119Y0056781D01*
X0253119Y0055634D02*
X0249679Y0055634D01*
X0250825Y0054488D01*
X0249679Y0050863D02*
X0253119Y0050863D01*
X0253119Y0058113D02*
X0250825Y0060406D01*
X0250252Y0060406D01*
X0249679Y0059833D01*
X0249679Y0058686D01*
X0250252Y0058113D01*
X0253119Y0058113D02*
X0253119Y0060406D01*
X0231465Y0047201D02*
X0230892Y0047775D01*
X0230318Y0047775D01*
X0229745Y0047201D01*
X0229745Y0046628D01*
X0229745Y0047201D02*
X0229172Y0047775D01*
X0228598Y0047775D01*
X0228025Y0047201D01*
X0228025Y0046055D01*
X0228598Y0045481D01*
X0228598Y0044149D02*
X0230892Y0041856D01*
X0231465Y0042429D01*
X0231465Y0043576D01*
X0230892Y0044149D01*
X0228598Y0044149D01*
X0228025Y0043576D01*
X0228025Y0042429D01*
X0228598Y0041856D01*
X0230892Y0041856D01*
X0230892Y0040524D02*
X0231465Y0039951D01*
X0231465Y0038804D01*
X0230892Y0038231D01*
X0229745Y0039378D02*
X0229745Y0039951D01*
X0230318Y0040524D01*
X0230892Y0040524D01*
X0229745Y0039951D02*
X0229172Y0040524D01*
X0228598Y0040524D01*
X0228025Y0039951D01*
X0228025Y0038804D01*
X0228598Y0038231D01*
X0228598Y0036899D02*
X0229745Y0036899D01*
X0230318Y0036326D01*
X0230318Y0034606D01*
X0231465Y0034606D02*
X0228025Y0034606D01*
X0228025Y0036326D01*
X0228598Y0036899D01*
X0228025Y0033274D02*
X0228025Y0030981D01*
X0228025Y0032127D02*
X0231465Y0032127D01*
X0238338Y0027925D02*
X0239485Y0026778D01*
X0240632Y0027925D01*
X0240632Y0024485D01*
X0241963Y0024485D02*
X0241963Y0027925D01*
X0241963Y0026205D02*
X0244257Y0026205D01*
X0244257Y0027925D02*
X0244257Y0024485D01*
X0245589Y0025058D02*
X0246162Y0024485D01*
X0247309Y0024485D01*
X0247882Y0025058D01*
X0247882Y0025631D01*
X0247309Y0026205D01*
X0246735Y0026205D01*
X0247309Y0026205D02*
X0247882Y0026778D01*
X0247882Y0027351D01*
X0247309Y0027925D01*
X0246162Y0027925D01*
X0245589Y0027351D01*
X0238338Y0027925D02*
X0238338Y0024485D01*
X0229496Y0024336D02*
X0229496Y0026630D01*
X0229496Y0025483D02*
X0226057Y0025483D01*
X0227203Y0024336D01*
X0226630Y0023005D02*
X0228923Y0020711D01*
X0229496Y0021285D01*
X0229496Y0022431D01*
X0228923Y0023005D01*
X0226630Y0023005D01*
X0226057Y0022431D01*
X0226057Y0021285D01*
X0226630Y0020711D01*
X0228923Y0020711D01*
X0227776Y0019379D02*
X0227776Y0017086D01*
X0226057Y0018806D01*
X0229496Y0018806D01*
X0228923Y0015754D02*
X0229496Y0015181D01*
X0229496Y0014034D01*
X0228923Y0013461D01*
X0226630Y0013461D01*
X0226057Y0014034D01*
X0226057Y0015181D01*
X0226630Y0015754D01*
X0215606Y0010422D02*
X0215033Y0010995D01*
X0213886Y0010995D01*
X0213313Y0010422D01*
X0211981Y0010422D02*
X0209688Y0008129D01*
X0210261Y0007556D01*
X0211408Y0007556D01*
X0211981Y0008129D01*
X0211981Y0010422D01*
X0211408Y0010995D01*
X0210261Y0010995D01*
X0209688Y0010422D01*
X0209688Y0008129D01*
X0208356Y0009275D02*
X0206063Y0009275D01*
X0207783Y0010995D01*
X0207783Y0007556D01*
X0204731Y0007556D02*
X0203584Y0008702D01*
X0204157Y0008702D02*
X0202437Y0008702D01*
X0202437Y0007556D02*
X0202437Y0010995D01*
X0204157Y0010995D01*
X0204731Y0010422D01*
X0204731Y0009275D01*
X0204157Y0008702D01*
X0197890Y0007556D02*
X0195596Y0007556D01*
X0197890Y0009849D01*
X0197890Y0010422D01*
X0197316Y0010995D01*
X0196170Y0010995D01*
X0195596Y0010422D01*
X0194264Y0010422D02*
X0191971Y0008129D01*
X0192544Y0007556D01*
X0193691Y0007556D01*
X0194264Y0008129D01*
X0194264Y0010422D01*
X0193691Y0010995D01*
X0192544Y0010995D01*
X0191971Y0010422D01*
X0191971Y0008129D01*
X0190639Y0009275D02*
X0188346Y0009275D01*
X0190066Y0010995D01*
X0190066Y0007556D01*
X0187014Y0008129D02*
X0186441Y0007556D01*
X0185294Y0007556D01*
X0184721Y0008129D01*
X0184721Y0010422D01*
X0185294Y0010995D01*
X0186441Y0010995D01*
X0187014Y0010422D01*
X0180060Y0021926D02*
X0178913Y0021926D01*
X0178340Y0022499D01*
X0177008Y0022499D02*
X0176435Y0021926D01*
X0175288Y0021926D01*
X0174715Y0022499D01*
X0177008Y0024792D01*
X0177008Y0022499D01*
X0174715Y0022499D02*
X0174715Y0024792D01*
X0175288Y0025366D01*
X0176435Y0025366D01*
X0177008Y0024792D01*
X0178340Y0024792D02*
X0178913Y0025366D01*
X0180060Y0025366D01*
X0180633Y0024792D01*
X0180633Y0024219D01*
X0180060Y0023646D01*
X0180633Y0023072D01*
X0180633Y0022499D01*
X0180060Y0021926D01*
X0180060Y0023646D02*
X0179486Y0023646D01*
X0173383Y0023646D02*
X0171090Y0023646D01*
X0172809Y0025366D01*
X0172809Y0021926D01*
X0169758Y0023646D02*
X0169184Y0023072D01*
X0167464Y0023072D01*
X0167464Y0021926D02*
X0167464Y0025366D01*
X0169184Y0025366D01*
X0169758Y0024792D01*
X0169758Y0023646D01*
X0166133Y0025366D02*
X0163839Y0025366D01*
X0164986Y0025366D02*
X0164986Y0021926D01*
X0178812Y0032998D02*
X0179386Y0032425D01*
X0181679Y0032425D01*
X0182252Y0032998D01*
X0182252Y0034145D01*
X0181679Y0034718D01*
X0181679Y0036050D02*
X0182252Y0036623D01*
X0182252Y0037770D01*
X0181679Y0038343D01*
X0181106Y0038343D01*
X0180532Y0037770D01*
X0180532Y0037197D01*
X0180532Y0037770D02*
X0179959Y0038343D01*
X0179386Y0038343D01*
X0178812Y0037770D01*
X0178812Y0036623D01*
X0179386Y0036050D01*
X0179386Y0034718D02*
X0178812Y0034145D01*
X0178812Y0032998D01*
X0190938Y0035688D02*
X0190938Y0038555D01*
X0193232Y0038555D02*
X0193232Y0035688D01*
X0192658Y0035115D01*
X0191512Y0035115D01*
X0190938Y0035688D01*
X0194563Y0035115D02*
X0196857Y0037408D01*
X0196857Y0037981D01*
X0196283Y0038555D01*
X0195137Y0038555D01*
X0194563Y0037981D01*
X0194563Y0035115D02*
X0196857Y0035115D01*
X0182252Y0040249D02*
X0181679Y0039675D01*
X0179386Y0041969D01*
X0181679Y0041969D01*
X0182252Y0041395D01*
X0182252Y0040249D01*
X0181679Y0039675D02*
X0179386Y0039675D01*
X0178812Y0040249D01*
X0178812Y0041395D01*
X0179386Y0041969D01*
X0179959Y0043300D02*
X0178812Y0044447D01*
X0182252Y0044447D01*
X0182252Y0043300D02*
X0182252Y0045594D01*
X0193842Y0046926D02*
X0193842Y0050366D01*
X0195562Y0050366D01*
X0196136Y0049792D01*
X0196136Y0048646D01*
X0195562Y0048072D01*
X0193842Y0048072D01*
X0194989Y0048072D02*
X0196136Y0046926D01*
X0197467Y0047499D02*
X0198041Y0046926D01*
X0199187Y0046926D01*
X0199761Y0047499D01*
X0199761Y0048072D01*
X0199187Y0048646D01*
X0198614Y0048646D01*
X0199187Y0048646D02*
X0199761Y0049219D01*
X0199761Y0049792D01*
X0199187Y0050366D01*
X0198041Y0050366D01*
X0197467Y0049792D01*
X0201093Y0049792D02*
X0201093Y0047499D01*
X0203386Y0049792D01*
X0203386Y0047499D01*
X0202813Y0046926D01*
X0201666Y0046926D01*
X0201093Y0047499D01*
X0201093Y0049792D02*
X0201666Y0050366D01*
X0202813Y0050366D01*
X0203386Y0049792D01*
X0204718Y0049792D02*
X0205291Y0050366D01*
X0206438Y0050366D01*
X0207011Y0049792D01*
X0207011Y0049219D01*
X0204718Y0046926D01*
X0207011Y0046926D01*
X0211559Y0047499D02*
X0212132Y0046926D01*
X0213279Y0046926D01*
X0213852Y0047499D01*
X0215184Y0047499D02*
X0215757Y0046926D01*
X0216904Y0046926D01*
X0217477Y0047499D01*
X0217477Y0048072D01*
X0216904Y0048646D01*
X0216331Y0048646D01*
X0216904Y0048646D02*
X0217477Y0049219D01*
X0217477Y0049792D01*
X0216904Y0050366D01*
X0215757Y0050366D01*
X0215184Y0049792D01*
X0213852Y0049792D02*
X0213279Y0050366D01*
X0212132Y0050366D01*
X0211559Y0049792D01*
X0211559Y0047499D01*
X0218809Y0047499D02*
X0219382Y0046926D01*
X0220529Y0046926D01*
X0221102Y0047499D01*
X0221102Y0049792D01*
X0218809Y0047499D01*
X0218809Y0049792D01*
X0219382Y0050366D01*
X0220529Y0050366D01*
X0221102Y0049792D01*
X0222434Y0049792D02*
X0223008Y0050366D01*
X0224154Y0050366D01*
X0224728Y0049792D01*
X0224728Y0049219D01*
X0222434Y0046926D01*
X0224728Y0046926D01*
X0230892Y0045481D02*
X0231465Y0046055D01*
X0231465Y0047201D01*
X0229616Y0074485D02*
X0227322Y0074485D01*
X0229616Y0076778D01*
X0229616Y0077351D01*
X0229042Y0077925D01*
X0227896Y0077925D01*
X0227322Y0077351D01*
X0225991Y0077351D02*
X0225417Y0077925D01*
X0223697Y0077925D01*
X0223697Y0074485D01*
X0225417Y0074485D01*
X0225991Y0075058D01*
X0225991Y0077351D01*
X0247710Y0091168D02*
X0247710Y0092888D01*
X0248283Y0093462D01*
X0249430Y0093462D01*
X0250003Y0092888D01*
X0250003Y0091168D01*
X0250003Y0092315D02*
X0251150Y0093462D01*
X0251150Y0094793D02*
X0251150Y0097087D01*
X0251150Y0095940D02*
X0247710Y0095940D01*
X0248857Y0094793D01*
X0248857Y0098419D02*
X0247710Y0099565D01*
X0251150Y0099565D01*
X0251150Y0098419D02*
X0251150Y0100712D01*
X0251150Y0091168D02*
X0247710Y0091168D01*
X0229496Y0106554D02*
X0229496Y0107701D01*
X0228923Y0108274D01*
X0229496Y0109606D02*
X0229496Y0111899D01*
X0229496Y0110752D02*
X0226057Y0110752D01*
X0227203Y0109606D01*
X0226630Y0108274D02*
X0226057Y0107701D01*
X0226057Y0106554D01*
X0226630Y0105981D01*
X0228923Y0105981D01*
X0229496Y0106554D01*
X0228923Y0113231D02*
X0226630Y0113231D01*
X0226057Y0113804D01*
X0226057Y0114951D01*
X0226630Y0115524D01*
X0228923Y0113231D01*
X0229496Y0113804D01*
X0229496Y0114951D01*
X0228923Y0115524D01*
X0226630Y0115524D01*
X0227203Y0116856D02*
X0226057Y0118003D01*
X0229496Y0118003D01*
X0229496Y0119149D02*
X0229496Y0116856D01*
X0217374Y0116718D02*
X0217374Y0113852D01*
X0215080Y0113852D02*
X0215080Y0116718D01*
X0215654Y0117292D01*
X0216800Y0117292D01*
X0217374Y0116718D01*
X0213748Y0117292D02*
X0211455Y0117292D01*
X0212602Y0117292D02*
X0212602Y0113852D01*
X0213748Y0114998D01*
X0213064Y0105484D02*
X0211918Y0105484D01*
X0211344Y0104910D01*
X0210012Y0104910D02*
X0207719Y0102617D01*
X0208292Y0102044D01*
X0209439Y0102044D01*
X0210012Y0102617D01*
X0210012Y0104910D01*
X0209439Y0105484D01*
X0208292Y0105484D01*
X0207719Y0104910D01*
X0207719Y0102617D01*
X0206387Y0102044D02*
X0204094Y0102044D01*
X0205241Y0102044D02*
X0205241Y0105484D01*
X0204094Y0104337D01*
X0202762Y0103764D02*
X0202189Y0103190D01*
X0200469Y0103190D01*
X0200469Y0102044D02*
X0200469Y0105484D01*
X0202189Y0105484D01*
X0202762Y0104910D01*
X0202762Y0103764D01*
X0201616Y0103190D02*
X0202762Y0102044D01*
X0195921Y0102044D02*
X0193628Y0102044D01*
X0195921Y0104337D01*
X0195921Y0104910D01*
X0195348Y0105484D01*
X0194201Y0105484D01*
X0193628Y0104910D01*
X0192296Y0104910D02*
X0190003Y0102617D01*
X0190576Y0102044D01*
X0191723Y0102044D01*
X0192296Y0102617D01*
X0192296Y0104910D01*
X0191723Y0105484D01*
X0190576Y0105484D01*
X0190003Y0104910D01*
X0190003Y0102617D01*
X0188671Y0102044D02*
X0186377Y0102044D01*
X0187524Y0102044D02*
X0187524Y0105484D01*
X0186377Y0104337D01*
X0185046Y0104910D02*
X0184472Y0105484D01*
X0183326Y0105484D01*
X0182752Y0104910D01*
X0182752Y0102617D01*
X0183326Y0102044D01*
X0184472Y0102044D01*
X0185046Y0102617D01*
X0180284Y0104553D02*
X0176844Y0104553D01*
X0176844Y0105699D02*
X0176844Y0103406D01*
X0176844Y0107031D02*
X0176844Y0108751D01*
X0177417Y0109325D01*
X0178564Y0109325D01*
X0179137Y0108751D01*
X0179137Y0107031D01*
X0180284Y0107031D02*
X0176844Y0107031D01*
X0177991Y0110656D02*
X0176844Y0111803D01*
X0180284Y0111803D01*
X0180284Y0110656D02*
X0180284Y0112950D01*
X0179711Y0114282D02*
X0177417Y0116575D01*
X0179711Y0116575D01*
X0180284Y0116002D01*
X0180284Y0114855D01*
X0179711Y0114282D01*
X0177417Y0114282D01*
X0176844Y0114855D01*
X0176844Y0116002D01*
X0177417Y0116575D01*
X0177417Y0117907D02*
X0176844Y0118480D01*
X0176844Y0119627D01*
X0177417Y0120200D01*
X0177991Y0120200D01*
X0178564Y0119627D01*
X0179137Y0120200D01*
X0179711Y0120200D01*
X0180284Y0119627D01*
X0180284Y0118480D01*
X0179711Y0117907D01*
X0178564Y0119053D02*
X0178564Y0119627D01*
X0179386Y0126913D02*
X0181679Y0126913D01*
X0182252Y0127487D01*
X0182252Y0128633D01*
X0181679Y0129206D01*
X0182252Y0130538D02*
X0179959Y0132832D01*
X0179386Y0132832D01*
X0178812Y0132258D01*
X0178812Y0131112D01*
X0179386Y0130538D01*
X0179386Y0129206D02*
X0178812Y0128633D01*
X0178812Y0127487D01*
X0179386Y0126913D01*
X0182252Y0130538D02*
X0182252Y0132832D01*
X0181679Y0134163D02*
X0179386Y0134163D01*
X0178812Y0134737D01*
X0178812Y0135883D01*
X0179386Y0136457D01*
X0181679Y0134163D01*
X0182252Y0134737D01*
X0182252Y0135883D01*
X0181679Y0136457D01*
X0179386Y0136457D01*
X0179959Y0137789D02*
X0178812Y0138935D01*
X0182252Y0138935D01*
X0182252Y0137789D02*
X0182252Y0140082D01*
X0191874Y0141414D02*
X0191874Y0144854D01*
X0193594Y0144854D01*
X0194167Y0144280D01*
X0194167Y0143134D01*
X0193594Y0142560D01*
X0191874Y0142560D01*
X0193020Y0142560D02*
X0194167Y0141414D01*
X0195499Y0141414D02*
X0197792Y0143707D01*
X0197792Y0144280D01*
X0197219Y0144854D01*
X0196072Y0144854D01*
X0195499Y0144280D01*
X0199124Y0144280D02*
X0199124Y0141987D01*
X0201417Y0144280D01*
X0201417Y0141987D01*
X0200844Y0141414D01*
X0199697Y0141414D01*
X0199124Y0141987D01*
X0197792Y0141414D02*
X0195499Y0141414D01*
X0199124Y0144280D02*
X0199697Y0144854D01*
X0200844Y0144854D01*
X0201417Y0144280D01*
X0202749Y0144280D02*
X0203323Y0144854D01*
X0204469Y0144854D01*
X0205043Y0144280D01*
X0205043Y0143707D01*
X0202749Y0141414D01*
X0205043Y0141414D01*
X0211559Y0141987D02*
X0211559Y0144280D01*
X0212132Y0144854D01*
X0213279Y0144854D01*
X0213852Y0144280D01*
X0215184Y0144280D02*
X0215757Y0144854D01*
X0216904Y0144854D01*
X0217477Y0144280D01*
X0217477Y0143707D01*
X0215184Y0141414D01*
X0217477Y0141414D01*
X0218809Y0141987D02*
X0219382Y0141414D01*
X0220529Y0141414D01*
X0221102Y0141987D01*
X0221102Y0144280D01*
X0218809Y0141987D01*
X0218809Y0144280D01*
X0219382Y0144854D01*
X0220529Y0144854D01*
X0221102Y0144280D01*
X0222434Y0144280D02*
X0223008Y0144854D01*
X0224154Y0144854D01*
X0224728Y0144280D01*
X0224728Y0143707D01*
X0222434Y0141414D01*
X0224728Y0141414D01*
X0229009Y0141527D02*
X0229009Y0142674D01*
X0229583Y0143247D01*
X0230156Y0143247D01*
X0230729Y0142674D01*
X0231303Y0143247D01*
X0231876Y0143247D01*
X0232449Y0142674D01*
X0232449Y0141527D01*
X0231876Y0140954D01*
X0231876Y0139622D02*
X0229583Y0139622D01*
X0231876Y0137329D01*
X0232449Y0137902D01*
X0232449Y0139049D01*
X0231876Y0139622D01*
X0229583Y0139622D02*
X0229009Y0139049D01*
X0229009Y0137902D01*
X0229583Y0137329D01*
X0231876Y0137329D01*
X0232449Y0135997D02*
X0232449Y0133703D01*
X0230156Y0135997D01*
X0229583Y0135997D01*
X0229009Y0135423D01*
X0229009Y0134277D01*
X0229583Y0133703D01*
X0229583Y0132372D02*
X0230729Y0132372D01*
X0231303Y0131798D01*
X0231303Y0130078D01*
X0232449Y0130078D02*
X0229009Y0130078D01*
X0229009Y0131798D01*
X0229583Y0132372D01*
X0229009Y0128746D02*
X0229009Y0126453D01*
X0229009Y0127600D02*
X0232449Y0127600D01*
X0238338Y0127925D02*
X0238338Y0124485D01*
X0240632Y0124485D02*
X0240632Y0127925D01*
X0239485Y0126778D01*
X0238338Y0127925D01*
X0241963Y0127925D02*
X0241963Y0124485D01*
X0241963Y0126205D02*
X0244257Y0126205D01*
X0244257Y0127925D02*
X0244257Y0124485D01*
X0245589Y0124485D02*
X0247882Y0126778D01*
X0247882Y0127351D01*
X0247309Y0127925D01*
X0246162Y0127925D01*
X0245589Y0127351D01*
X0245589Y0124485D02*
X0247882Y0124485D01*
X0229583Y0140954D02*
X0229009Y0141527D01*
X0230729Y0142100D02*
X0230729Y0142674D01*
X0213852Y0141987D02*
X0213279Y0141414D01*
X0212132Y0141414D01*
X0211559Y0141987D01*
X0213064Y0105484D02*
X0213638Y0104910D01*
X0213638Y0104337D01*
X0211344Y0102044D01*
X0213638Y0102044D01*
X0158630Y0100139D02*
X0158630Y0098992D01*
X0158057Y0098419D01*
X0155764Y0100712D01*
X0158057Y0100712D01*
X0158630Y0100139D01*
X0158057Y0098419D02*
X0155764Y0098419D01*
X0155190Y0098992D01*
X0155190Y0100139D01*
X0155764Y0100712D01*
X0158630Y0097087D02*
X0158630Y0094793D01*
X0158630Y0095940D02*
X0155190Y0095940D01*
X0156337Y0094793D01*
X0155764Y0093462D02*
X0156910Y0093462D01*
X0157484Y0092888D01*
X0157484Y0091168D01*
X0158630Y0091168D02*
X0155190Y0091168D01*
X0155190Y0092888D01*
X0155764Y0093462D01*
X0157484Y0092315D02*
X0158630Y0093462D01*
X0155481Y0080559D02*
X0155481Y0078266D01*
X0155481Y0079412D02*
X0152041Y0079412D01*
X0153187Y0078266D01*
X0153761Y0076934D02*
X0153761Y0074641D01*
X0155481Y0074641D02*
X0152041Y0074641D01*
X0152041Y0073309D02*
X0155481Y0073309D01*
X0153187Y0072162D02*
X0152041Y0073309D01*
X0153187Y0072162D02*
X0152041Y0071015D01*
X0155481Y0071015D01*
X0155481Y0076934D02*
X0152041Y0076934D01*
X0132252Y0076453D02*
X0132252Y0078746D01*
X0132252Y0077600D02*
X0128812Y0077600D01*
X0129959Y0076453D01*
X0129386Y0075121D02*
X0128812Y0074548D01*
X0128812Y0072828D01*
X0132252Y0072828D01*
X0132252Y0074548D01*
X0131679Y0075121D01*
X0129386Y0075121D01*
X0155190Y0059833D02*
X0155764Y0060406D01*
X0156337Y0060406D01*
X0156910Y0059833D01*
X0157484Y0060406D01*
X0158057Y0060406D01*
X0158630Y0059833D01*
X0158630Y0058686D01*
X0158057Y0058113D01*
X0158630Y0056781D02*
X0158630Y0054488D01*
X0158630Y0055634D02*
X0155190Y0055634D01*
X0156337Y0054488D01*
X0155764Y0053156D02*
X0155190Y0052583D01*
X0155190Y0050863D01*
X0158630Y0050863D01*
X0157484Y0050863D02*
X0157484Y0052583D01*
X0156910Y0053156D01*
X0155764Y0053156D01*
X0157484Y0052009D02*
X0158630Y0053156D01*
X0155764Y0058113D02*
X0155190Y0058686D01*
X0155190Y0059833D01*
X0156910Y0059833D02*
X0156910Y0059260D01*
X0090914Y0071015D02*
X0087474Y0071015D01*
X0088620Y0072162D01*
X0087474Y0073309D01*
X0090914Y0073309D01*
X0090914Y0074641D02*
X0087474Y0074641D01*
X0087474Y0076361D01*
X0088047Y0076934D01*
X0089194Y0076934D01*
X0089767Y0076361D01*
X0089767Y0074641D01*
X0088620Y0078266D02*
X0087474Y0079412D01*
X0090914Y0079412D01*
X0090914Y0078266D02*
X0090914Y0080559D01*
X0081859Y0080142D02*
X0081859Y0078995D01*
X0081285Y0078422D01*
X0078992Y0078422D01*
X0078419Y0078995D01*
X0078419Y0080142D01*
X0078992Y0080715D01*
X0079565Y0082047D02*
X0078419Y0083193D01*
X0081859Y0083193D01*
X0081859Y0082047D02*
X0081859Y0084340D01*
X0081285Y0080715D02*
X0081859Y0080142D01*
X0066111Y0081014D02*
X0062671Y0081014D01*
X0062671Y0082734D01*
X0063244Y0083307D01*
X0064391Y0083307D01*
X0064964Y0082734D01*
X0064964Y0081014D01*
X0064964Y0082161D02*
X0066111Y0083307D01*
X0066111Y0084639D02*
X0066111Y0086932D01*
X0066111Y0085786D02*
X0062671Y0085786D01*
X0063817Y0084639D01*
X0058237Y0084639D02*
X0058237Y0086932D01*
X0058237Y0084639D02*
X0055943Y0086932D01*
X0055370Y0086932D01*
X0054797Y0086359D01*
X0054797Y0085212D01*
X0055370Y0084639D01*
X0055370Y0083307D02*
X0056517Y0083307D01*
X0057090Y0082734D01*
X0057090Y0081014D01*
X0057090Y0082161D02*
X0058237Y0083307D01*
X0058237Y0081014D02*
X0054797Y0081014D01*
X0054797Y0082734D01*
X0055370Y0083307D01*
X0050876Y0079893D02*
X0050876Y0079320D01*
X0048582Y0077026D01*
X0048582Y0076453D01*
X0047250Y0076453D02*
X0046104Y0077600D01*
X0046677Y0077600D02*
X0044957Y0077600D01*
X0044957Y0076453D02*
X0044957Y0079893D01*
X0046677Y0079893D01*
X0047250Y0079320D01*
X0047250Y0078173D01*
X0046677Y0077600D01*
X0048582Y0079893D02*
X0050876Y0079893D01*
X0050302Y0088264D02*
X0050876Y0088837D01*
X0050876Y0091131D01*
X0050302Y0091704D01*
X0049156Y0091704D01*
X0048582Y0091131D01*
X0048582Y0090557D01*
X0049156Y0089984D01*
X0050876Y0089984D01*
X0049156Y0088264D02*
X0048582Y0088837D01*
X0049156Y0088264D02*
X0050302Y0088264D01*
X0047250Y0088264D02*
X0046104Y0089411D01*
X0046677Y0089411D02*
X0044957Y0089411D01*
X0044957Y0088264D02*
X0044957Y0091704D01*
X0046677Y0091704D01*
X0047250Y0091131D01*
X0047250Y0089984D01*
X0046677Y0089411D01*
X0047250Y0100075D02*
X0046104Y0101222D01*
X0046677Y0101222D02*
X0044957Y0101222D01*
X0044957Y0100075D02*
X0044957Y0103515D01*
X0046677Y0103515D01*
X0047250Y0102942D01*
X0047250Y0101795D01*
X0046677Y0101222D01*
X0048582Y0101795D02*
X0050302Y0101795D01*
X0050876Y0101222D01*
X0050876Y0100649D01*
X0050302Y0100075D01*
X0049156Y0100075D01*
X0048582Y0100649D01*
X0048582Y0101795D01*
X0049729Y0102942D01*
X0050876Y0103515D01*
X0050302Y0111886D02*
X0049156Y0111886D01*
X0048582Y0112460D01*
X0048582Y0113033D01*
X0049156Y0113606D01*
X0050302Y0113606D01*
X0050876Y0113033D01*
X0050876Y0112460D01*
X0050302Y0111886D01*
X0050302Y0113606D02*
X0050876Y0114180D01*
X0050876Y0114753D01*
X0050302Y0115326D01*
X0049156Y0115326D01*
X0048582Y0114753D01*
X0048582Y0114180D01*
X0049156Y0113606D01*
X0047250Y0113606D02*
X0047250Y0114753D01*
X0046677Y0115326D01*
X0044957Y0115326D01*
X0044957Y0111886D01*
X0044957Y0113033D02*
X0046677Y0113033D01*
X0047250Y0113606D01*
X0046104Y0113033D02*
X0047250Y0111886D01*
X0050091Y0121729D02*
X0049518Y0122302D01*
X0049518Y0124595D01*
X0050091Y0125169D01*
X0051238Y0125169D01*
X0051811Y0124595D01*
X0051811Y0122302D01*
X0051238Y0121729D01*
X0050091Y0121729D01*
X0050664Y0122875D02*
X0051811Y0121729D01*
X0053143Y0121729D02*
X0055436Y0124022D01*
X0055436Y0124595D01*
X0054863Y0125169D01*
X0053716Y0125169D01*
X0053143Y0124595D01*
X0053143Y0121729D02*
X0055436Y0121729D01*
X0098104Y0123845D02*
X0098104Y0126139D01*
X0098104Y0124992D02*
X0101544Y0124992D01*
X0101544Y0127471D02*
X0098104Y0127471D01*
X0098104Y0129191D01*
X0098677Y0129764D01*
X0099824Y0129764D01*
X0100397Y0129191D01*
X0100397Y0127471D01*
X0103616Y0127241D02*
X0103616Y0128961D01*
X0104189Y0129534D01*
X0105336Y0129534D01*
X0105909Y0128961D01*
X0105909Y0127241D01*
X0105909Y0128387D02*
X0107056Y0129534D01*
X0105336Y0130866D02*
X0105336Y0133159D01*
X0107056Y0132586D02*
X0103616Y0132586D01*
X0105336Y0130866D01*
X0101544Y0131669D02*
X0101544Y0132816D01*
X0100970Y0133389D01*
X0098677Y0133389D01*
X0098104Y0132816D01*
X0098104Y0131669D01*
X0098677Y0131096D01*
X0099250Y0131096D01*
X0099824Y0131669D01*
X0099824Y0133389D01*
X0101544Y0131669D02*
X0100970Y0131096D01*
X0103616Y0127241D02*
X0107056Y0127241D01*
X0054290Y0068082D02*
X0054290Y0064642D01*
X0055436Y0064642D02*
X0053143Y0064642D01*
X0051811Y0064642D02*
X0050664Y0065789D01*
X0049518Y0065215D02*
X0050091Y0064642D01*
X0051238Y0064642D01*
X0051811Y0065215D01*
X0051811Y0067509D01*
X0051238Y0068082D01*
X0050091Y0068082D01*
X0049518Y0067509D01*
X0049518Y0065215D01*
X0053143Y0066935D02*
X0054290Y0068082D01*
X0026992Y0042885D02*
X0025272Y0041165D01*
X0027565Y0041165D01*
X0026992Y0039445D02*
X0026992Y0042885D01*
X0023940Y0042885D02*
X0021647Y0039445D01*
X0023940Y0039445D02*
X0021647Y0042885D01*
X0015754Y0042885D02*
X0013461Y0042885D01*
X0013461Y0041165D01*
X0014608Y0041739D01*
X0015181Y0041739D01*
X0015754Y0041165D01*
X0015754Y0040019D01*
X0015181Y0039445D01*
X0014034Y0039445D01*
X0013461Y0040019D01*
X0012129Y0039445D02*
X0009836Y0042885D01*
X0012129Y0042885D02*
X0009836Y0039445D01*
X0035505Y0026992D02*
X0035505Y0025845D01*
X0036079Y0025272D01*
X0035505Y0023940D02*
X0038945Y0021647D01*
X0038945Y0023940D02*
X0035505Y0021647D01*
X0038945Y0025272D02*
X0036652Y0027565D01*
X0036079Y0027565D01*
X0035505Y0026992D01*
X0038945Y0027565D02*
X0038945Y0025272D01*
X0038945Y0015754D02*
X0038945Y0013461D01*
X0038945Y0014608D02*
X0035505Y0014608D01*
X0036652Y0013461D01*
X0035505Y0012129D02*
X0038945Y0009836D01*
X0038945Y0012129D02*
X0035505Y0009836D01*
X0084521Y0032359D02*
X0084521Y0034652D01*
X0084521Y0033505D02*
X0087961Y0033505D01*
X0088655Y0033505D02*
X0092095Y0033505D01*
X0088655Y0032359D02*
X0088655Y0034652D01*
X0088655Y0035984D02*
X0088655Y0037704D01*
X0089228Y0038277D01*
X0090375Y0038277D01*
X0090948Y0037704D01*
X0090948Y0035984D01*
X0092095Y0035984D02*
X0088655Y0035984D01*
X0087961Y0035984D02*
X0084521Y0035984D01*
X0084521Y0037704D01*
X0085094Y0038277D01*
X0086241Y0038277D01*
X0086814Y0037704D01*
X0086814Y0035984D01*
X0087388Y0039609D02*
X0087961Y0039609D01*
X0087388Y0039609D02*
X0085094Y0041902D01*
X0084521Y0041902D01*
X0084521Y0039609D01*
X0088655Y0040182D02*
X0088655Y0041329D01*
X0089228Y0041902D01*
X0089802Y0041902D01*
X0090375Y0041329D01*
X0090375Y0040182D01*
X0089802Y0039609D01*
X0089228Y0039609D01*
X0088655Y0040182D01*
X0090375Y0040182D02*
X0090948Y0039609D01*
X0091522Y0039609D01*
X0092095Y0040182D01*
X0092095Y0041329D01*
X0091522Y0041902D01*
X0090948Y0041902D01*
X0090375Y0041329D01*
X0213313Y0007556D02*
X0215606Y0009849D01*
X0215606Y0010422D01*
X0215606Y0007556D02*
X0213313Y0007556D01*
D13*
X0208977Y0012561D02*
X0208977Y0013741D01*
X0208977Y0013151D02*
X0207207Y0013151D01*
X0207797Y0012561D01*
X0207502Y0014373D02*
X0207207Y0014668D01*
X0207207Y0015258D01*
X0207502Y0015553D01*
X0208682Y0014373D01*
X0208977Y0014668D01*
X0208977Y0015258D01*
X0208682Y0015553D01*
X0207502Y0015553D01*
X0207502Y0016186D02*
X0207207Y0016481D01*
X0207207Y0017071D01*
X0207502Y0017366D01*
X0208682Y0016186D01*
X0208977Y0016481D01*
X0208977Y0017071D01*
X0208682Y0017366D01*
X0207502Y0017366D01*
X0207502Y0016186D02*
X0208682Y0016186D01*
X0208682Y0014373D02*
X0207502Y0014373D01*
X0219118Y0018331D02*
X0220166Y0019379D01*
X0220166Y0019642D01*
X0219904Y0019904D01*
X0219380Y0019904D01*
X0219118Y0019642D01*
X0219118Y0018331D02*
X0220166Y0018331D01*
X0220749Y0018331D02*
X0221011Y0018331D01*
X0221011Y0018593D01*
X0220749Y0018593D01*
X0220749Y0018331D01*
X0221565Y0018331D02*
X0222613Y0019379D01*
X0222613Y0019642D01*
X0222351Y0019904D01*
X0221827Y0019904D01*
X0221565Y0019642D01*
X0221565Y0018331D02*
X0222613Y0018331D01*
X0223196Y0018331D02*
X0223982Y0018331D01*
X0224245Y0018593D01*
X0224245Y0019117D01*
X0223982Y0019379D01*
X0223196Y0019379D01*
X0223196Y0017806D01*
X0232207Y0034516D02*
X0232207Y0035106D01*
X0232207Y0034811D02*
X0233977Y0034811D01*
X0233977Y0034516D02*
X0233977Y0035106D01*
X0233977Y0035725D02*
X0233977Y0036610D01*
X0233682Y0036905D01*
X0232502Y0036905D01*
X0232207Y0036610D01*
X0232207Y0035725D01*
X0233977Y0035725D01*
X0233682Y0037537D02*
X0233977Y0037832D01*
X0233977Y0038422D01*
X0233682Y0038717D01*
X0233387Y0038717D01*
X0233092Y0038422D01*
X0233092Y0038127D01*
X0233092Y0038422D02*
X0232797Y0038717D01*
X0232502Y0038717D01*
X0232207Y0038422D01*
X0232207Y0037832D01*
X0232502Y0037537D01*
X0242640Y0037839D02*
X0242640Y0039019D01*
X0242935Y0039019D01*
X0244115Y0037839D01*
X0244410Y0037839D01*
X0244115Y0037207D02*
X0244410Y0036912D01*
X0244410Y0036322D01*
X0244115Y0036027D01*
X0244115Y0035394D02*
X0242935Y0035394D01*
X0242640Y0035099D01*
X0242640Y0034214D01*
X0244410Y0034214D01*
X0244410Y0035099D01*
X0244115Y0035394D01*
X0243230Y0036027D02*
X0243525Y0036322D01*
X0243525Y0036912D01*
X0243820Y0037207D01*
X0244115Y0037207D01*
X0242935Y0037207D02*
X0242640Y0036912D01*
X0242640Y0036322D01*
X0242935Y0036027D01*
X0243230Y0036027D01*
X0244904Y0043604D02*
X0245199Y0043604D01*
X0245494Y0043899D01*
X0245494Y0044489D01*
X0245789Y0044784D01*
X0246084Y0044784D01*
X0246379Y0044489D01*
X0246379Y0043899D01*
X0246084Y0043604D01*
X0245789Y0043604D01*
X0245494Y0043899D01*
X0245494Y0044489D02*
X0245199Y0044784D01*
X0244904Y0044784D01*
X0244609Y0044489D01*
X0244609Y0043899D01*
X0244904Y0043604D01*
X0244904Y0045416D02*
X0244609Y0045711D01*
X0244609Y0046301D01*
X0244904Y0046596D01*
X0246084Y0045416D01*
X0246379Y0045711D01*
X0246379Y0046301D01*
X0246084Y0046596D01*
X0244904Y0046596D01*
X0244904Y0045416D02*
X0246084Y0045416D01*
X0246084Y0047229D02*
X0246084Y0047524D01*
X0246379Y0047524D01*
X0246379Y0047229D01*
X0246084Y0047229D01*
X0246084Y0048135D02*
X0245494Y0048135D01*
X0245494Y0049020D01*
X0245789Y0049315D01*
X0246084Y0049315D01*
X0246379Y0049020D01*
X0246379Y0048430D01*
X0246084Y0048135D01*
X0245494Y0048135D02*
X0244904Y0048725D01*
X0244609Y0049315D01*
X0219246Y0044470D02*
X0217673Y0044470D01*
X0217673Y0045256D01*
X0217935Y0045519D01*
X0218459Y0045519D01*
X0218721Y0045256D01*
X0218721Y0044470D01*
X0218459Y0043887D02*
X0218721Y0043625D01*
X0218721Y0043101D01*
X0218459Y0042839D01*
X0217410Y0043887D01*
X0218459Y0043887D01*
X0218459Y0042839D02*
X0217410Y0042839D01*
X0217148Y0043101D01*
X0217148Y0043625D01*
X0217410Y0043887D01*
X0217410Y0042256D02*
X0217148Y0041994D01*
X0217148Y0041469D01*
X0217410Y0041207D01*
X0218459Y0041207D01*
X0217410Y0042256D01*
X0218459Y0042256D01*
X0218721Y0041994D01*
X0218721Y0041469D01*
X0218459Y0041207D01*
X0218721Y0040625D02*
X0218721Y0039576D01*
X0218721Y0040100D02*
X0217148Y0040100D01*
X0217673Y0039576D01*
X0201103Y0040120D02*
X0201103Y0041300D01*
X0201103Y0040710D02*
X0199333Y0040710D01*
X0199923Y0040120D01*
X0199628Y0041932D02*
X0199333Y0042227D01*
X0199333Y0042817D01*
X0199628Y0043112D01*
X0200808Y0041932D01*
X0201103Y0042227D01*
X0201103Y0042817D01*
X0200808Y0043112D01*
X0199628Y0043112D01*
X0199628Y0043745D02*
X0199333Y0044040D01*
X0199333Y0044630D01*
X0199628Y0044925D01*
X0200808Y0043745D01*
X0201103Y0044040D01*
X0201103Y0044630D01*
X0200808Y0044925D01*
X0199628Y0044925D01*
X0199628Y0043745D02*
X0200808Y0043745D01*
X0200808Y0041932D02*
X0199628Y0041932D01*
X0188812Y0038802D02*
X0188812Y0038278D01*
X0188549Y0038016D01*
X0187763Y0038016D01*
X0187763Y0037491D02*
X0187763Y0039064D01*
X0188549Y0039064D01*
X0188812Y0038802D01*
X0187180Y0039064D02*
X0187180Y0039327D01*
X0186918Y0039589D01*
X0186394Y0039589D01*
X0186132Y0039327D01*
X0187180Y0039064D02*
X0186132Y0038016D01*
X0187180Y0038016D01*
X0185578Y0038016D02*
X0185578Y0038278D01*
X0185316Y0038278D01*
X0185316Y0038016D01*
X0185578Y0038016D01*
X0184733Y0038016D02*
X0183685Y0038016D01*
X0184733Y0039064D01*
X0184733Y0039327D01*
X0184471Y0039589D01*
X0183947Y0039589D01*
X0183685Y0039327D01*
X0165670Y0038724D02*
X0165670Y0038134D01*
X0165375Y0037839D01*
X0165080Y0037839D01*
X0164785Y0038134D01*
X0164785Y0038724D01*
X0165080Y0039019D01*
X0165375Y0039019D01*
X0165670Y0038724D01*
X0164785Y0038724D02*
X0164490Y0039019D01*
X0164195Y0039019D01*
X0163900Y0038724D01*
X0163900Y0038134D01*
X0164195Y0037839D01*
X0164490Y0037839D01*
X0164785Y0038134D01*
X0165080Y0037207D02*
X0165375Y0037207D01*
X0165670Y0036912D01*
X0165670Y0036322D01*
X0165375Y0036027D01*
X0165375Y0035394D02*
X0164195Y0035394D01*
X0163900Y0035099D01*
X0163900Y0034214D01*
X0165670Y0034214D01*
X0165670Y0035099D01*
X0165375Y0035394D01*
X0164490Y0036027D02*
X0164785Y0036322D01*
X0164785Y0036912D01*
X0165080Y0037207D01*
X0164195Y0037207D02*
X0163900Y0036912D01*
X0163900Y0036322D01*
X0164195Y0036027D01*
X0164490Y0036027D01*
X0155237Y0035725D02*
X0155237Y0036610D01*
X0154942Y0036905D01*
X0153762Y0036905D01*
X0153467Y0036610D01*
X0153467Y0035725D01*
X0155237Y0035725D01*
X0155237Y0035106D02*
X0155237Y0034516D01*
X0155237Y0034811D02*
X0153467Y0034811D01*
X0153467Y0034516D02*
X0153467Y0035106D01*
X0154352Y0037537D02*
X0154352Y0038717D01*
X0153467Y0038422D02*
X0154352Y0037537D01*
X0155237Y0038422D02*
X0153467Y0038422D01*
X0161932Y0044647D02*
X0162522Y0044057D01*
X0161932Y0044647D02*
X0163702Y0044647D01*
X0163702Y0044057D02*
X0163702Y0045237D01*
X0163407Y0045869D02*
X0163702Y0046164D01*
X0163702Y0046754D01*
X0163407Y0047049D01*
X0162817Y0047049D01*
X0162522Y0046754D01*
X0162522Y0046459D01*
X0162817Y0045869D01*
X0161932Y0045869D01*
X0161932Y0047049D01*
X0162227Y0047682D02*
X0161932Y0047977D01*
X0161932Y0048567D01*
X0162227Y0048862D01*
X0163407Y0047682D01*
X0163702Y0047977D01*
X0163702Y0048567D01*
X0163407Y0048862D01*
X0162227Y0048862D01*
X0162227Y0047682D02*
X0163407Y0047682D01*
X0198818Y0075614D02*
X0199113Y0075319D01*
X0199703Y0075319D01*
X0199998Y0075614D01*
X0199998Y0076794D01*
X0199703Y0077089D01*
X0199113Y0077089D01*
X0198818Y0076794D01*
X0198818Y0075614D01*
X0199408Y0075909D02*
X0199998Y0075319D01*
X0200631Y0075319D02*
X0200631Y0077089D01*
X0201516Y0077089D01*
X0201811Y0076794D01*
X0201811Y0076204D01*
X0201516Y0075909D01*
X0200631Y0075909D01*
X0202443Y0076499D02*
X0203033Y0077089D01*
X0203033Y0075319D01*
X0202443Y0075319D02*
X0203623Y0075319D01*
X0204256Y0075614D02*
X0205436Y0076794D01*
X0205436Y0075614D01*
X0205141Y0075319D01*
X0204551Y0075319D01*
X0204256Y0075614D01*
X0204256Y0076794D01*
X0204551Y0077089D01*
X0205141Y0077089D01*
X0205436Y0076794D01*
X0206068Y0076204D02*
X0207248Y0076204D01*
X0207881Y0076204D02*
X0208766Y0076204D01*
X0209061Y0075909D01*
X0209061Y0075614D01*
X0208766Y0075319D01*
X0208176Y0075319D01*
X0207881Y0075614D01*
X0207881Y0076204D01*
X0208471Y0076794D01*
X0209061Y0077089D01*
X0244609Y0103702D02*
X0245199Y0103112D01*
X0244609Y0103702D02*
X0246379Y0103702D01*
X0246379Y0103112D02*
X0246379Y0104292D01*
X0246084Y0104924D02*
X0246379Y0105219D01*
X0246379Y0105809D01*
X0246084Y0106104D01*
X0245494Y0106104D01*
X0245199Y0105809D01*
X0245199Y0105514D01*
X0245494Y0104924D01*
X0244609Y0104924D01*
X0244609Y0106104D01*
X0244904Y0106737D02*
X0244609Y0107032D01*
X0244609Y0107622D01*
X0244904Y0107917D01*
X0246084Y0106737D01*
X0246379Y0107032D01*
X0246379Y0107622D01*
X0246084Y0107917D01*
X0244904Y0107917D01*
X0244904Y0106737D02*
X0246084Y0106737D01*
X0244410Y0112954D02*
X0242640Y0112954D01*
X0242640Y0113839D01*
X0242935Y0114134D01*
X0244115Y0114134D01*
X0244410Y0113839D01*
X0244410Y0112954D01*
X0244115Y0114767D02*
X0244410Y0115062D01*
X0244410Y0115652D01*
X0244115Y0115947D01*
X0243820Y0115947D01*
X0243525Y0115652D01*
X0243525Y0115062D01*
X0243230Y0114767D01*
X0242935Y0114767D01*
X0242640Y0115062D01*
X0242640Y0115652D01*
X0242935Y0115947D01*
X0243525Y0116579D02*
X0242935Y0117169D01*
X0242640Y0117759D01*
X0243525Y0117464D02*
X0243525Y0116579D01*
X0244115Y0116579D01*
X0244410Y0116874D01*
X0244410Y0117464D01*
X0244115Y0117759D01*
X0243820Y0117759D01*
X0243525Y0117464D01*
X0233977Y0117457D02*
X0233977Y0116277D01*
X0232797Y0117457D01*
X0232502Y0117457D01*
X0232207Y0117162D01*
X0232207Y0116572D01*
X0232502Y0116277D01*
X0232502Y0115645D02*
X0232207Y0115350D01*
X0232207Y0114465D01*
X0233977Y0114465D01*
X0233977Y0115350D01*
X0233682Y0115645D01*
X0232502Y0115645D01*
X0232207Y0113846D02*
X0232207Y0113256D01*
X0232207Y0113551D02*
X0233977Y0113551D01*
X0233977Y0113256D02*
X0233977Y0113846D01*
X0224245Y0113605D02*
X0224245Y0113081D01*
X0223982Y0112819D01*
X0223196Y0112819D01*
X0223196Y0112295D02*
X0223196Y0113868D01*
X0223982Y0113868D01*
X0224245Y0113605D01*
X0222613Y0113868D02*
X0222613Y0114130D01*
X0222351Y0114392D01*
X0221827Y0114392D01*
X0221565Y0114130D01*
X0222613Y0113868D02*
X0221565Y0112819D01*
X0222613Y0112819D01*
X0221011Y0112819D02*
X0220749Y0112819D01*
X0220749Y0113081D01*
X0221011Y0113081D01*
X0221011Y0112819D01*
X0220166Y0112819D02*
X0219118Y0112819D01*
X0220166Y0113868D01*
X0220166Y0114130D01*
X0219904Y0114392D01*
X0219380Y0114392D01*
X0219118Y0114130D01*
X0208977Y0111559D02*
X0208977Y0110969D01*
X0208682Y0110674D01*
X0207502Y0111854D01*
X0208682Y0111854D01*
X0208977Y0111559D01*
X0208682Y0110674D02*
X0207502Y0110674D01*
X0207207Y0110969D01*
X0207207Y0111559D01*
X0207502Y0111854D01*
X0207502Y0110041D02*
X0208682Y0108861D01*
X0208977Y0109156D01*
X0208977Y0109746D01*
X0208682Y0110041D01*
X0207502Y0110041D01*
X0207207Y0109746D01*
X0207207Y0109156D01*
X0207502Y0108861D01*
X0208682Y0108861D01*
X0208977Y0108229D02*
X0208977Y0107049D01*
X0208977Y0107639D02*
X0207207Y0107639D01*
X0207797Y0107049D01*
X0191687Y0111399D02*
X0190114Y0111399D01*
X0190114Y0112186D01*
X0190376Y0112448D01*
X0190900Y0112448D01*
X0191162Y0112186D01*
X0191162Y0111399D01*
X0190900Y0110816D02*
X0191162Y0110554D01*
X0191162Y0110030D01*
X0190900Y0109768D01*
X0189851Y0110816D01*
X0190900Y0110816D01*
X0190900Y0109768D02*
X0189851Y0109768D01*
X0189589Y0110030D01*
X0189589Y0110554D01*
X0189851Y0110816D01*
X0189851Y0109185D02*
X0190900Y0108136D01*
X0191162Y0108399D01*
X0191162Y0108923D01*
X0190900Y0109185D01*
X0189851Y0109185D01*
X0189589Y0108923D01*
X0189589Y0108399D01*
X0189851Y0108136D01*
X0190900Y0108136D01*
X0191162Y0107554D02*
X0191162Y0106505D01*
X0191162Y0107029D02*
X0189589Y0107029D01*
X0190114Y0106505D01*
X0165670Y0112954D02*
X0165670Y0113839D01*
X0165375Y0114134D01*
X0164195Y0114134D01*
X0163900Y0113839D01*
X0163900Y0112954D01*
X0165670Y0112954D01*
X0165375Y0114767D02*
X0165670Y0115062D01*
X0165670Y0115652D01*
X0165375Y0115947D01*
X0165080Y0115947D01*
X0164785Y0115652D01*
X0164785Y0115062D01*
X0164490Y0114767D01*
X0164195Y0114767D01*
X0163900Y0115062D01*
X0163900Y0115652D01*
X0164195Y0115947D01*
X0163900Y0116579D02*
X0164785Y0116579D01*
X0164490Y0117169D01*
X0164490Y0117464D01*
X0164785Y0117759D01*
X0165375Y0117759D01*
X0165670Y0117464D01*
X0165670Y0116874D01*
X0165375Y0116579D01*
X0163900Y0116579D02*
X0163900Y0117759D01*
X0155237Y0117457D02*
X0155237Y0116277D01*
X0155237Y0116867D02*
X0153467Y0116867D01*
X0154057Y0116277D01*
X0153762Y0115645D02*
X0153467Y0115350D01*
X0153467Y0114465D01*
X0155237Y0114465D01*
X0155237Y0115350D01*
X0154942Y0115645D01*
X0153762Y0115645D01*
X0153467Y0113846D02*
X0153467Y0113256D01*
X0153467Y0113551D02*
X0155237Y0113551D01*
X0155237Y0113256D02*
X0155237Y0113846D01*
X0161932Y0108370D02*
X0162227Y0107780D01*
X0162817Y0107190D01*
X0162817Y0108075D01*
X0163112Y0108370D01*
X0163407Y0108370D01*
X0163702Y0108075D01*
X0163702Y0107485D01*
X0163407Y0107190D01*
X0162817Y0107190D01*
X0163407Y0106579D02*
X0163702Y0106579D01*
X0163702Y0106284D01*
X0163407Y0106284D01*
X0163407Y0106579D01*
X0163407Y0105651D02*
X0163702Y0105356D01*
X0163702Y0104766D01*
X0163407Y0104471D01*
X0162227Y0105651D01*
X0163407Y0105651D01*
X0163407Y0104471D02*
X0162227Y0104471D01*
X0161932Y0104766D01*
X0161932Y0105356D01*
X0162227Y0105651D01*
X0162227Y0103839D02*
X0162522Y0103839D01*
X0162817Y0103544D01*
X0162817Y0102954D01*
X0162522Y0102659D01*
X0162227Y0102659D01*
X0161932Y0102954D01*
X0161932Y0103544D01*
X0162227Y0103839D01*
X0162817Y0103544D02*
X0163112Y0103839D01*
X0163407Y0103839D01*
X0163702Y0103544D01*
X0163702Y0102954D01*
X0163407Y0102659D01*
X0163112Y0102659D01*
X0162817Y0102954D01*
X0183685Y0132504D02*
X0184733Y0133553D01*
X0184733Y0133815D01*
X0184471Y0134077D01*
X0183947Y0134077D01*
X0183685Y0133815D01*
X0183685Y0132504D02*
X0184733Y0132504D01*
X0185316Y0132504D02*
X0185578Y0132504D01*
X0185578Y0132766D01*
X0185316Y0132766D01*
X0185316Y0132504D01*
X0186132Y0132504D02*
X0187180Y0133553D01*
X0187180Y0133815D01*
X0186918Y0134077D01*
X0186394Y0134077D01*
X0186132Y0133815D01*
X0186132Y0132504D02*
X0187180Y0132504D01*
X0187763Y0132504D02*
X0188549Y0132504D01*
X0188812Y0132766D01*
X0188812Y0133290D01*
X0188549Y0133553D01*
X0187763Y0133553D01*
X0187763Y0131980D01*
X0199333Y0135198D02*
X0201103Y0135198D01*
X0201103Y0134608D02*
X0201103Y0135788D01*
X0200808Y0136420D02*
X0199628Y0137600D01*
X0200808Y0137600D01*
X0201103Y0137305D01*
X0201103Y0136715D01*
X0200808Y0136420D01*
X0199628Y0136420D01*
X0199333Y0136715D01*
X0199333Y0137305D01*
X0199628Y0137600D01*
X0199628Y0138233D02*
X0199333Y0138528D01*
X0199333Y0139118D01*
X0199628Y0139413D01*
X0200808Y0138233D01*
X0201103Y0138528D01*
X0201103Y0139118D01*
X0200808Y0139413D01*
X0199628Y0139413D01*
X0199628Y0138233D02*
X0200808Y0138233D01*
X0199333Y0135198D02*
X0199923Y0134608D01*
X0217148Y0134588D02*
X0218721Y0134588D01*
X0218721Y0134064D02*
X0218721Y0135113D01*
X0218459Y0135695D02*
X0217410Y0136744D01*
X0218459Y0136744D01*
X0218721Y0136482D01*
X0218721Y0135958D01*
X0218459Y0135695D01*
X0217410Y0135695D01*
X0217148Y0135958D01*
X0217148Y0136482D01*
X0217410Y0136744D01*
X0217410Y0137327D02*
X0217148Y0137589D01*
X0217148Y0138113D01*
X0217410Y0138375D01*
X0218459Y0137327D01*
X0218721Y0137589D01*
X0218721Y0138113D01*
X0218459Y0138375D01*
X0217410Y0138375D01*
X0217673Y0138958D02*
X0217673Y0139745D01*
X0217935Y0140007D01*
X0218459Y0140007D01*
X0218721Y0139745D01*
X0218721Y0138958D01*
X0219246Y0138958D02*
X0217673Y0138958D01*
X0217410Y0137327D02*
X0218459Y0137327D01*
X0217148Y0134588D02*
X0217673Y0134064D01*
X0145363Y0144413D02*
X0144478Y0145003D01*
X0145363Y0145593D01*
X0144478Y0146183D02*
X0144478Y0144413D01*
X0143845Y0144708D02*
X0143550Y0144413D01*
X0142960Y0144413D01*
X0142665Y0144708D01*
X0143845Y0145888D01*
X0143845Y0144708D01*
X0142665Y0144708D02*
X0142665Y0145888D01*
X0142960Y0146183D01*
X0143550Y0146183D01*
X0143845Y0145888D01*
X0142033Y0144413D02*
X0140853Y0144413D01*
X0141443Y0144413D02*
X0141443Y0146183D01*
X0140853Y0145593D01*
X0087145Y0131704D02*
X0087145Y0130002D01*
X0086719Y0129577D01*
X0085443Y0129577D01*
X0085443Y0132129D01*
X0086719Y0132129D01*
X0087145Y0131704D01*
X0084613Y0132129D02*
X0084613Y0129577D01*
X0082911Y0132129D01*
X0082911Y0129577D01*
X0082080Y0130002D02*
X0082080Y0130853D01*
X0081230Y0130853D01*
X0082080Y0131704D02*
X0081655Y0132129D01*
X0080804Y0132129D01*
X0080379Y0131704D01*
X0080379Y0130002D01*
X0080804Y0129577D01*
X0081655Y0129577D01*
X0082080Y0130002D01*
X0075879Y0130427D02*
X0075879Y0132129D01*
X0075879Y0130427D02*
X0075028Y0129577D01*
X0074177Y0130427D01*
X0074177Y0132129D01*
X0073346Y0132129D02*
X0071645Y0132129D01*
X0071645Y0130853D01*
X0072496Y0131278D01*
X0072921Y0131278D01*
X0073346Y0130853D01*
X0073346Y0130002D01*
X0072921Y0129577D01*
X0072070Y0129577D01*
X0071645Y0130002D01*
X0067145Y0129577D02*
X0067145Y0131278D01*
X0066294Y0132129D01*
X0065443Y0131278D01*
X0065443Y0129577D01*
X0064613Y0130002D02*
X0064613Y0131704D01*
X0064187Y0132129D01*
X0062911Y0132129D01*
X0062911Y0129577D01*
X0064187Y0129577D01*
X0064613Y0130002D01*
X0065443Y0130853D02*
X0067145Y0130853D01*
X0062080Y0130427D02*
X0062080Y0130002D01*
X0061655Y0129577D01*
X0060804Y0129577D01*
X0060379Y0130002D01*
X0060804Y0130853D02*
X0061655Y0130853D01*
X0062080Y0130427D01*
X0062080Y0131704D02*
X0061655Y0132129D01*
X0060804Y0132129D01*
X0060379Y0131704D01*
X0060379Y0131278D01*
X0060804Y0130853D01*
X0057145Y0129577D02*
X0055443Y0129577D01*
X0055443Y0132129D01*
X0054613Y0131704D02*
X0054187Y0132129D01*
X0053336Y0132129D01*
X0052911Y0131704D01*
X0052911Y0130002D01*
X0053336Y0129577D01*
X0054187Y0129577D01*
X0054613Y0130002D01*
X0052080Y0130002D02*
X0051655Y0129577D01*
X0050804Y0129577D01*
X0050379Y0130002D01*
X0050804Y0130853D02*
X0051655Y0130853D01*
X0052080Y0130427D01*
X0052080Y0130002D01*
X0050804Y0130853D02*
X0050379Y0131278D01*
X0050379Y0131704D01*
X0050804Y0132129D01*
X0051655Y0132129D01*
X0052080Y0131704D01*
X0045879Y0132129D02*
X0044177Y0129577D01*
X0042496Y0129577D02*
X0042496Y0132129D01*
X0043346Y0132129D02*
X0041645Y0132129D01*
X0044177Y0132129D02*
X0045879Y0129577D01*
X0035879Y0129577D02*
X0034177Y0132129D01*
X0033346Y0131704D02*
X0033346Y0130853D01*
X0032921Y0130427D01*
X0031645Y0130427D01*
X0031645Y0129577D02*
X0031645Y0132129D01*
X0032921Y0132129D01*
X0033346Y0131704D01*
X0032496Y0130427D02*
X0033346Y0129577D01*
X0034177Y0129577D02*
X0035879Y0132129D01*
X0026723Y0132129D02*
X0025021Y0132129D01*
X0024191Y0132129D02*
X0024191Y0129577D01*
X0022489Y0132129D01*
X0022489Y0129577D01*
X0021652Y0129577D02*
X0020801Y0129577D01*
X0021226Y0129577D02*
X0021226Y0132129D01*
X0020801Y0132129D02*
X0021652Y0132129D01*
X0025872Y0132129D02*
X0025872Y0129577D01*
X0017145Y0129577D02*
X0017145Y0132129D01*
X0016294Y0131278D01*
X0015443Y0132129D01*
X0015443Y0129577D01*
X0014613Y0129577D02*
X0014613Y0132129D01*
X0012911Y0132129D02*
X0012911Y0129577D01*
X0013762Y0130427D01*
X0014613Y0129577D01*
X0012080Y0130853D02*
X0012080Y0131704D01*
X0011655Y0132129D01*
X0010379Y0132129D01*
X0010379Y0129577D01*
X0010379Y0130427D02*
X0011655Y0130427D01*
X0012080Y0130853D01*
X0007304Y0119416D02*
X0007599Y0119121D01*
X0007599Y0118236D01*
X0005829Y0118236D01*
X0005829Y0119121D01*
X0006124Y0119416D01*
X0006419Y0119416D01*
X0006714Y0119121D01*
X0006714Y0118236D01*
X0006714Y0119121D02*
X0007009Y0119416D01*
X0007304Y0119416D01*
X0007599Y0117604D02*
X0005829Y0117604D01*
X0005829Y0116424D02*
X0007599Y0117604D01*
X0007599Y0116424D02*
X0005829Y0116424D01*
X0005829Y0115791D02*
X0005829Y0114611D01*
X0007599Y0114611D01*
X0007599Y0115791D01*
X0006714Y0115201D02*
X0006714Y0114611D01*
X0007894Y0113978D02*
X0007894Y0112798D01*
X0007599Y0112166D02*
X0007009Y0111576D01*
X0007009Y0111871D02*
X0007009Y0110986D01*
X0007599Y0110986D02*
X0005829Y0110986D01*
X0005829Y0111871D01*
X0006124Y0112166D01*
X0006714Y0112166D01*
X0007009Y0111871D01*
X0007009Y0110353D02*
X0007304Y0110353D01*
X0007599Y0110058D01*
X0007599Y0109468D01*
X0007304Y0109173D01*
X0006714Y0109468D02*
X0006714Y0110058D01*
X0007009Y0110353D01*
X0006124Y0110353D02*
X0005829Y0110058D01*
X0005829Y0109468D01*
X0006124Y0109173D01*
X0006419Y0109173D01*
X0006714Y0109468D01*
X0007599Y0108541D02*
X0007599Y0107361D01*
X0005829Y0107361D01*
X0005829Y0103980D02*
X0007009Y0103980D01*
X0007599Y0103390D01*
X0007009Y0102800D01*
X0005829Y0102800D01*
X0005829Y0102167D02*
X0005829Y0100987D01*
X0006714Y0100987D01*
X0006419Y0101577D01*
X0006419Y0101872D01*
X0006714Y0102167D01*
X0007304Y0102167D01*
X0007599Y0101872D01*
X0007599Y0101282D01*
X0007304Y0100987D01*
X0006714Y0100355D02*
X0007009Y0100060D01*
X0007009Y0099175D01*
X0007599Y0099175D02*
X0005829Y0099175D01*
X0005829Y0100060D01*
X0006124Y0100355D01*
X0006714Y0100355D01*
X0016262Y0100060D02*
X0016262Y0099175D01*
X0018032Y0099175D01*
X0018032Y0100060D01*
X0017737Y0100355D01*
X0016557Y0100355D01*
X0016262Y0100060D01*
X0016557Y0100987D02*
X0016852Y0100987D01*
X0017147Y0101282D01*
X0017147Y0101872D01*
X0017442Y0102167D01*
X0017737Y0102167D01*
X0018032Y0101872D01*
X0018032Y0101282D01*
X0017737Y0100987D01*
X0016557Y0100987D02*
X0016262Y0101282D01*
X0016262Y0101872D01*
X0016557Y0102167D01*
X0016852Y0102800D02*
X0016262Y0103390D01*
X0018032Y0103390D01*
X0018032Y0102800D02*
X0018032Y0103980D01*
X0018032Y0110986D02*
X0018032Y0111871D01*
X0017737Y0112166D01*
X0016557Y0112166D01*
X0016262Y0111871D01*
X0016262Y0110986D01*
X0018032Y0110986D01*
X0017737Y0112798D02*
X0018032Y0113093D01*
X0018032Y0113683D01*
X0017737Y0113978D01*
X0017442Y0113978D01*
X0017147Y0113683D01*
X0017147Y0113093D01*
X0016852Y0112798D01*
X0016557Y0112798D01*
X0016262Y0113093D01*
X0016262Y0113683D01*
X0016557Y0113978D01*
X0016557Y0114611D02*
X0016262Y0114906D01*
X0016262Y0115496D01*
X0016557Y0115791D01*
X0016852Y0115791D01*
X0017147Y0115496D01*
X0017442Y0115791D01*
X0017737Y0115791D01*
X0018032Y0115496D01*
X0018032Y0114906D01*
X0017737Y0114611D01*
X0017147Y0115201D02*
X0017147Y0115496D01*
X0036046Y0114491D02*
X0036046Y0113967D01*
X0036308Y0113705D01*
X0036570Y0113705D01*
X0036832Y0113967D01*
X0036832Y0114491D01*
X0037095Y0114753D01*
X0037357Y0114753D01*
X0037619Y0114491D01*
X0037619Y0113967D01*
X0037357Y0113705D01*
X0037095Y0113705D01*
X0036832Y0113967D01*
X0036832Y0114491D02*
X0036570Y0114753D01*
X0036308Y0114753D01*
X0036046Y0114491D01*
X0036046Y0113122D02*
X0036308Y0112598D01*
X0036832Y0112073D01*
X0036832Y0112860D01*
X0037095Y0113122D01*
X0037357Y0113122D01*
X0037619Y0112860D01*
X0037619Y0112336D01*
X0037357Y0112073D01*
X0036832Y0112073D01*
X0036308Y0103758D02*
X0037357Y0102709D01*
X0037619Y0102972D01*
X0037619Y0103496D01*
X0037357Y0103758D01*
X0036308Y0103758D01*
X0036046Y0103496D01*
X0036046Y0102972D01*
X0036308Y0102709D01*
X0037357Y0102709D01*
X0037357Y0102127D02*
X0037619Y0101865D01*
X0037619Y0101340D01*
X0037357Y0101078D01*
X0036832Y0101078D02*
X0036570Y0101602D01*
X0036570Y0101865D01*
X0036832Y0102127D01*
X0037357Y0102127D01*
X0036832Y0101078D02*
X0036046Y0101078D01*
X0036046Y0102127D01*
X0036046Y0099971D02*
X0037619Y0099971D01*
X0037619Y0099447D02*
X0037619Y0100495D01*
X0036570Y0099447D02*
X0036046Y0099971D01*
X0036046Y0091947D02*
X0036308Y0091947D01*
X0037357Y0090898D01*
X0037619Y0090898D01*
X0037357Y0090316D02*
X0037619Y0090054D01*
X0037619Y0089529D01*
X0037357Y0089267D01*
X0037619Y0088684D02*
X0037619Y0087636D01*
X0037619Y0088160D02*
X0036046Y0088160D01*
X0036570Y0087636D01*
X0036308Y0089267D02*
X0036046Y0089529D01*
X0036046Y0090054D01*
X0036308Y0090316D01*
X0036570Y0090316D01*
X0036832Y0090054D01*
X0037095Y0090316D01*
X0037357Y0090316D01*
X0036832Y0090054D02*
X0036832Y0089791D01*
X0036046Y0090898D02*
X0036046Y0091947D01*
X0018032Y0091874D02*
X0016262Y0091874D01*
X0017147Y0090989D01*
X0017147Y0092169D01*
X0017442Y0090356D02*
X0017737Y0090356D01*
X0018032Y0090061D01*
X0018032Y0089471D01*
X0017737Y0089176D01*
X0017737Y0088544D02*
X0016557Y0088544D01*
X0016262Y0088249D01*
X0016262Y0087364D01*
X0018032Y0087364D01*
X0018032Y0088249D01*
X0017737Y0088544D01*
X0016852Y0089176D02*
X0017147Y0089471D01*
X0017147Y0090061D01*
X0017442Y0090356D01*
X0016557Y0090356D02*
X0016262Y0090061D01*
X0016262Y0089471D01*
X0016557Y0089176D01*
X0016852Y0089176D01*
X0007599Y0089471D02*
X0007304Y0089176D01*
X0007599Y0089471D02*
X0007599Y0090061D01*
X0007304Y0090356D01*
X0007009Y0090356D01*
X0006714Y0090061D01*
X0006714Y0089471D01*
X0006419Y0089176D01*
X0006124Y0089176D01*
X0005829Y0089471D01*
X0005829Y0090061D01*
X0006124Y0090356D01*
X0005829Y0090989D02*
X0005829Y0091874D01*
X0006124Y0092169D01*
X0006714Y0092169D01*
X0007009Y0091874D01*
X0007009Y0090989D01*
X0007009Y0091579D02*
X0007599Y0092169D01*
X0007599Y0090989D02*
X0005829Y0090989D01*
X0007599Y0088544D02*
X0007599Y0087364D01*
X0005829Y0087364D01*
X0005829Y0082170D02*
X0007009Y0082170D01*
X0007599Y0081580D01*
X0007009Y0080990D01*
X0005829Y0080990D01*
X0006124Y0080358D02*
X0006419Y0080358D01*
X0006714Y0080063D01*
X0007009Y0080358D01*
X0007304Y0080358D01*
X0007599Y0080063D01*
X0007599Y0079473D01*
X0007304Y0079178D01*
X0006714Y0079768D02*
X0006714Y0080063D01*
X0006124Y0080358D02*
X0005829Y0080063D01*
X0005829Y0079473D01*
X0006124Y0079178D01*
X0007894Y0078545D02*
X0007894Y0077365D01*
X0007304Y0076733D02*
X0007599Y0076438D01*
X0007599Y0075848D01*
X0007304Y0075553D01*
X0006714Y0076143D02*
X0006714Y0076438D01*
X0007009Y0076733D01*
X0007304Y0076733D01*
X0006714Y0076438D02*
X0006419Y0076733D01*
X0006124Y0076733D01*
X0005829Y0076438D01*
X0005829Y0075848D01*
X0006124Y0075553D01*
X0006124Y0074920D02*
X0006714Y0074920D01*
X0007009Y0074625D01*
X0007009Y0073740D01*
X0007599Y0073740D02*
X0005829Y0073740D01*
X0005829Y0074625D01*
X0006124Y0074920D01*
X0016262Y0075553D02*
X0016262Y0076438D01*
X0016557Y0076733D01*
X0017737Y0076733D01*
X0018032Y0076438D01*
X0018032Y0075553D01*
X0016262Y0075553D01*
X0016557Y0077365D02*
X0016852Y0077365D01*
X0017147Y0077660D01*
X0017147Y0078250D01*
X0017442Y0078545D01*
X0017737Y0078545D01*
X0018032Y0078250D01*
X0018032Y0077660D01*
X0017737Y0077365D01*
X0016557Y0077365D02*
X0016262Y0077660D01*
X0016262Y0078250D01*
X0016557Y0078545D01*
X0016557Y0079178D02*
X0016262Y0079473D01*
X0016262Y0080063D01*
X0016557Y0080358D01*
X0016852Y0080358D01*
X0018032Y0079178D01*
X0018032Y0080358D01*
X0036046Y0079058D02*
X0036308Y0079320D01*
X0036570Y0079320D01*
X0036832Y0079058D01*
X0036832Y0078534D01*
X0036570Y0078272D01*
X0036308Y0078272D01*
X0036046Y0078534D01*
X0036046Y0079058D01*
X0036832Y0079058D02*
X0037095Y0079320D01*
X0037357Y0079320D01*
X0037619Y0079058D01*
X0037619Y0078534D01*
X0037357Y0078272D01*
X0037095Y0078272D01*
X0036832Y0078534D01*
X0037095Y0077689D02*
X0036832Y0077427D01*
X0036832Y0076640D01*
X0037357Y0076640D01*
X0037619Y0076902D01*
X0037619Y0077427D01*
X0037357Y0077689D01*
X0037095Y0077689D01*
X0036308Y0077165D02*
X0036832Y0076640D01*
X0036308Y0077165D02*
X0036046Y0077689D01*
X0054307Y0095102D02*
X0055356Y0095102D01*
X0054831Y0095102D02*
X0054831Y0096675D01*
X0054307Y0096151D01*
X0055938Y0096413D02*
X0055938Y0095365D01*
X0056987Y0096413D01*
X0056987Y0095365D01*
X0056725Y0095102D01*
X0056201Y0095102D01*
X0055938Y0095365D01*
X0055938Y0096413D02*
X0056201Y0096675D01*
X0056725Y0096675D01*
X0056987Y0096413D01*
X0057570Y0096675D02*
X0057570Y0095102D01*
X0057570Y0095627D02*
X0058356Y0096151D01*
X0057570Y0095627D02*
X0058356Y0095102D01*
X0062181Y0095102D02*
X0063230Y0096151D01*
X0063230Y0096413D01*
X0062968Y0096675D01*
X0062443Y0096675D01*
X0062181Y0096413D01*
X0062181Y0095102D02*
X0063230Y0095102D01*
X0063812Y0095102D02*
X0064861Y0096151D01*
X0064861Y0096413D01*
X0064599Y0096675D01*
X0064075Y0096675D01*
X0063812Y0096413D01*
X0063812Y0095102D02*
X0064861Y0095102D01*
X0065444Y0095102D02*
X0065444Y0096675D01*
X0066230Y0096151D02*
X0065444Y0095627D01*
X0066230Y0095102D01*
X0079018Y0071183D02*
X0079018Y0069413D01*
X0078428Y0069413D02*
X0079608Y0069413D01*
X0080240Y0069708D02*
X0080240Y0070593D01*
X0080240Y0069708D02*
X0080535Y0069413D01*
X0081420Y0069413D01*
X0081420Y0070593D01*
X0079018Y0071183D02*
X0078428Y0070593D01*
X0076719Y0057879D02*
X0077145Y0057454D01*
X0077145Y0057028D01*
X0076719Y0056603D01*
X0077145Y0056177D01*
X0077145Y0055752D01*
X0076719Y0055327D01*
X0075869Y0055327D01*
X0075443Y0055752D01*
X0074613Y0056177D02*
X0074613Y0057879D01*
X0075443Y0057454D02*
X0075869Y0057879D01*
X0076719Y0057879D01*
X0076719Y0056603D02*
X0076294Y0056603D01*
X0074613Y0056177D02*
X0073762Y0055327D01*
X0072911Y0056177D01*
X0072911Y0057879D01*
X0072080Y0057454D02*
X0072080Y0057028D01*
X0071655Y0056603D01*
X0072080Y0056177D01*
X0072080Y0055752D01*
X0071655Y0055327D01*
X0070804Y0055327D01*
X0070379Y0055752D01*
X0071230Y0056603D02*
X0071655Y0056603D01*
X0072080Y0057454D02*
X0071655Y0057879D01*
X0070804Y0057879D01*
X0070379Y0057454D01*
X0067145Y0057454D02*
X0067145Y0055752D01*
X0066719Y0055327D01*
X0065869Y0055327D01*
X0065443Y0055752D01*
X0065443Y0057454D01*
X0065869Y0057879D01*
X0066719Y0057879D01*
X0067145Y0057454D01*
X0064613Y0057454D02*
X0064613Y0055752D01*
X0064187Y0055327D01*
X0062911Y0055327D01*
X0062911Y0057879D01*
X0064187Y0057879D01*
X0064613Y0057454D01*
X0062080Y0057454D02*
X0061655Y0057879D01*
X0060804Y0057879D01*
X0060379Y0057454D01*
X0060379Y0057028D01*
X0060804Y0056603D01*
X0061655Y0056603D01*
X0062080Y0056177D01*
X0062080Y0055752D01*
X0061655Y0055327D01*
X0060804Y0055327D01*
X0060379Y0055752D01*
X0056716Y0055327D02*
X0055865Y0055327D01*
X0056291Y0055327D02*
X0056291Y0057879D01*
X0056716Y0057879D02*
X0055865Y0057879D01*
X0055035Y0057454D02*
X0054609Y0057879D01*
X0053333Y0057879D01*
X0053333Y0055327D01*
X0054609Y0055327D01*
X0055035Y0055752D01*
X0055035Y0057454D01*
X0052502Y0057454D02*
X0052077Y0057879D01*
X0051226Y0057879D01*
X0050801Y0057454D01*
X0050801Y0057028D01*
X0051226Y0056603D01*
X0052077Y0056603D01*
X0052502Y0056177D01*
X0052502Y0055752D01*
X0052077Y0055327D01*
X0051226Y0055327D01*
X0050801Y0055752D01*
X0047145Y0055327D02*
X0045869Y0056603D01*
X0045443Y0056177D02*
X0047145Y0057879D01*
X0045443Y0057879D02*
X0045443Y0055327D01*
X0044613Y0055752D02*
X0044187Y0055327D01*
X0043336Y0055327D01*
X0042911Y0055752D01*
X0042911Y0057454D01*
X0043336Y0057879D01*
X0044187Y0057879D01*
X0044613Y0057454D01*
X0042080Y0057454D02*
X0041655Y0057879D01*
X0040804Y0057879D01*
X0040379Y0057454D01*
X0040379Y0057028D01*
X0040804Y0056603D01*
X0041655Y0056603D01*
X0042080Y0056177D01*
X0042080Y0055752D01*
X0041655Y0055327D01*
X0040804Y0055327D01*
X0040379Y0055752D01*
X0035879Y0055752D02*
X0035453Y0055327D01*
X0034603Y0055327D01*
X0034177Y0055752D01*
X0033346Y0055752D02*
X0032921Y0055327D01*
X0032070Y0055327D01*
X0031645Y0055752D01*
X0031645Y0057454D01*
X0032070Y0057879D01*
X0032921Y0057879D01*
X0033346Y0057454D01*
X0034177Y0057454D02*
X0034177Y0057028D01*
X0034603Y0056603D01*
X0035453Y0056603D01*
X0035879Y0056177D01*
X0035879Y0055752D01*
X0035879Y0057454D02*
X0035453Y0057879D01*
X0034603Y0057879D01*
X0034177Y0057454D01*
X0027145Y0057879D02*
X0025443Y0057879D01*
X0026294Y0057879D02*
X0026294Y0055327D01*
X0024613Y0055752D02*
X0024187Y0055327D01*
X0023336Y0055327D01*
X0022911Y0055752D01*
X0022080Y0055327D02*
X0021230Y0056177D01*
X0021655Y0056177D02*
X0020379Y0056177D01*
X0020379Y0055327D02*
X0020379Y0057879D01*
X0021655Y0057879D01*
X0022080Y0057454D01*
X0022080Y0056603D01*
X0021655Y0056177D01*
X0022911Y0057028D02*
X0023336Y0056603D01*
X0024187Y0056603D01*
X0024613Y0056177D01*
X0024613Y0055752D01*
X0024613Y0057454D02*
X0024187Y0057879D01*
X0023336Y0057879D01*
X0022911Y0057454D01*
X0022911Y0057028D01*
X0015879Y0057879D02*
X0015879Y0055327D01*
X0014177Y0057879D01*
X0014177Y0055327D01*
X0013346Y0055327D02*
X0013346Y0057028D01*
X0012496Y0057879D01*
X0011645Y0057028D01*
X0011645Y0055327D01*
X0011645Y0056603D02*
X0013346Y0056603D01*
X0080379Y0055752D02*
X0080804Y0055327D01*
X0081655Y0055327D01*
X0082080Y0055752D01*
X0082080Y0056603D01*
X0081230Y0056603D01*
X0082080Y0057454D02*
X0081655Y0057879D01*
X0080804Y0057879D01*
X0080379Y0057454D01*
X0080379Y0055752D01*
X0082911Y0055327D02*
X0082911Y0057879D01*
X0084613Y0055327D01*
X0084613Y0057879D01*
X0085443Y0057879D02*
X0085443Y0055327D01*
X0086719Y0055327D01*
X0087145Y0055752D01*
X0087145Y0057454D01*
X0086719Y0057879D01*
X0085443Y0057879D01*
X0190114Y0017697D02*
X0190376Y0017959D01*
X0190900Y0017959D01*
X0191162Y0017697D01*
X0191162Y0016911D01*
X0191687Y0016911D02*
X0190114Y0016911D01*
X0190114Y0017697D01*
X0189851Y0016328D02*
X0190900Y0015280D01*
X0191162Y0015542D01*
X0191162Y0016066D01*
X0190900Y0016328D01*
X0189851Y0016328D01*
X0189589Y0016066D01*
X0189589Y0015542D01*
X0189851Y0015280D01*
X0190900Y0015280D01*
X0190900Y0014697D02*
X0191162Y0014435D01*
X0191162Y0013910D01*
X0190900Y0013648D01*
X0189851Y0014697D01*
X0190900Y0014697D01*
X0189851Y0014697D02*
X0189589Y0014435D01*
X0189589Y0013910D01*
X0189851Y0013648D01*
X0190900Y0013648D01*
X0191162Y0013066D02*
X0191162Y0012017D01*
X0191162Y0012541D02*
X0189589Y0012541D01*
X0190114Y0012017D01*
D14*
X0087144Y0088020D02*
X0087144Y0100297D01*
X0087144Y0094158D02*
X0068728Y0094158D01*
X0074867Y0088020D01*
D15*
X0080380Y0106479D02*
X0086380Y0106479D01*
X0080380Y0106479D02*
X0080380Y0110479D01*
X0073880Y0110479D01*
X0080380Y0110479D02*
X0080380Y0114979D01*
X0086380Y0114979D01*
X0080380Y0114979D02*
X0080380Y0119479D01*
X0073880Y0119479D01*
X0080380Y0119479D02*
X0080380Y0123979D01*
X0086380Y0123979D01*
D16*
X0085480Y0123979D02*
X0085482Y0124038D01*
X0085488Y0124098D01*
X0085498Y0124156D01*
X0085511Y0124214D01*
X0085529Y0124271D01*
X0085550Y0124327D01*
X0085575Y0124381D01*
X0085603Y0124433D01*
X0085635Y0124484D01*
X0085670Y0124532D01*
X0085708Y0124578D01*
X0085749Y0124621D01*
X0085793Y0124661D01*
X0085839Y0124698D01*
X0085888Y0124732D01*
X0085939Y0124763D01*
X0085991Y0124791D01*
X0086046Y0124815D01*
X0086102Y0124835D01*
X0086159Y0124851D01*
X0086217Y0124864D01*
X0086276Y0124873D01*
X0086335Y0124878D01*
X0086395Y0124879D01*
X0086454Y0124876D01*
X0086513Y0124869D01*
X0086572Y0124858D01*
X0086630Y0124844D01*
X0086686Y0124825D01*
X0086742Y0124803D01*
X0086795Y0124778D01*
X0086847Y0124748D01*
X0086897Y0124716D01*
X0086944Y0124680D01*
X0086990Y0124641D01*
X0087032Y0124599D01*
X0087072Y0124555D01*
X0087108Y0124508D01*
X0087141Y0124459D01*
X0087172Y0124407D01*
X0087198Y0124354D01*
X0087221Y0124299D01*
X0087240Y0124243D01*
X0087256Y0124185D01*
X0087268Y0124127D01*
X0087276Y0124068D01*
X0087280Y0124009D01*
X0087280Y0123949D01*
X0087276Y0123890D01*
X0087268Y0123831D01*
X0087256Y0123773D01*
X0087240Y0123715D01*
X0087221Y0123659D01*
X0087198Y0123604D01*
X0087172Y0123551D01*
X0087141Y0123499D01*
X0087108Y0123450D01*
X0087072Y0123403D01*
X0087032Y0123359D01*
X0086990Y0123317D01*
X0086944Y0123278D01*
X0086897Y0123242D01*
X0086847Y0123210D01*
X0086795Y0123180D01*
X0086742Y0123155D01*
X0086686Y0123133D01*
X0086630Y0123114D01*
X0086572Y0123100D01*
X0086513Y0123089D01*
X0086454Y0123082D01*
X0086395Y0123079D01*
X0086335Y0123080D01*
X0086276Y0123085D01*
X0086217Y0123094D01*
X0086159Y0123107D01*
X0086102Y0123123D01*
X0086046Y0123143D01*
X0085991Y0123167D01*
X0085939Y0123195D01*
X0085888Y0123226D01*
X0085839Y0123260D01*
X0085793Y0123297D01*
X0085749Y0123337D01*
X0085708Y0123380D01*
X0085670Y0123426D01*
X0085635Y0123474D01*
X0085603Y0123525D01*
X0085575Y0123577D01*
X0085550Y0123631D01*
X0085529Y0123687D01*
X0085511Y0123744D01*
X0085498Y0123802D01*
X0085488Y0123860D01*
X0085482Y0123920D01*
X0085480Y0123979D01*
X0072980Y0119479D02*
X0072982Y0119538D01*
X0072988Y0119598D01*
X0072998Y0119656D01*
X0073011Y0119714D01*
X0073029Y0119771D01*
X0073050Y0119827D01*
X0073075Y0119881D01*
X0073103Y0119933D01*
X0073135Y0119984D01*
X0073170Y0120032D01*
X0073208Y0120078D01*
X0073249Y0120121D01*
X0073293Y0120161D01*
X0073339Y0120198D01*
X0073388Y0120232D01*
X0073439Y0120263D01*
X0073491Y0120291D01*
X0073546Y0120315D01*
X0073602Y0120335D01*
X0073659Y0120351D01*
X0073717Y0120364D01*
X0073776Y0120373D01*
X0073835Y0120378D01*
X0073895Y0120379D01*
X0073954Y0120376D01*
X0074013Y0120369D01*
X0074072Y0120358D01*
X0074130Y0120344D01*
X0074186Y0120325D01*
X0074242Y0120303D01*
X0074295Y0120278D01*
X0074347Y0120248D01*
X0074397Y0120216D01*
X0074444Y0120180D01*
X0074490Y0120141D01*
X0074532Y0120099D01*
X0074572Y0120055D01*
X0074608Y0120008D01*
X0074641Y0119959D01*
X0074672Y0119907D01*
X0074698Y0119854D01*
X0074721Y0119799D01*
X0074740Y0119743D01*
X0074756Y0119685D01*
X0074768Y0119627D01*
X0074776Y0119568D01*
X0074780Y0119509D01*
X0074780Y0119449D01*
X0074776Y0119390D01*
X0074768Y0119331D01*
X0074756Y0119273D01*
X0074740Y0119215D01*
X0074721Y0119159D01*
X0074698Y0119104D01*
X0074672Y0119051D01*
X0074641Y0118999D01*
X0074608Y0118950D01*
X0074572Y0118903D01*
X0074532Y0118859D01*
X0074490Y0118817D01*
X0074444Y0118778D01*
X0074397Y0118742D01*
X0074347Y0118710D01*
X0074295Y0118680D01*
X0074242Y0118655D01*
X0074186Y0118633D01*
X0074130Y0118614D01*
X0074072Y0118600D01*
X0074013Y0118589D01*
X0073954Y0118582D01*
X0073895Y0118579D01*
X0073835Y0118580D01*
X0073776Y0118585D01*
X0073717Y0118594D01*
X0073659Y0118607D01*
X0073602Y0118623D01*
X0073546Y0118643D01*
X0073491Y0118667D01*
X0073439Y0118695D01*
X0073388Y0118726D01*
X0073339Y0118760D01*
X0073293Y0118797D01*
X0073249Y0118837D01*
X0073208Y0118880D01*
X0073170Y0118926D01*
X0073135Y0118974D01*
X0073103Y0119025D01*
X0073075Y0119077D01*
X0073050Y0119131D01*
X0073029Y0119187D01*
X0073011Y0119244D01*
X0072998Y0119302D01*
X0072988Y0119360D01*
X0072982Y0119420D01*
X0072980Y0119479D01*
X0085480Y0114979D02*
X0085482Y0115038D01*
X0085488Y0115098D01*
X0085498Y0115156D01*
X0085511Y0115214D01*
X0085529Y0115271D01*
X0085550Y0115327D01*
X0085575Y0115381D01*
X0085603Y0115433D01*
X0085635Y0115484D01*
X0085670Y0115532D01*
X0085708Y0115578D01*
X0085749Y0115621D01*
X0085793Y0115661D01*
X0085839Y0115698D01*
X0085888Y0115732D01*
X0085939Y0115763D01*
X0085991Y0115791D01*
X0086046Y0115815D01*
X0086102Y0115835D01*
X0086159Y0115851D01*
X0086217Y0115864D01*
X0086276Y0115873D01*
X0086335Y0115878D01*
X0086395Y0115879D01*
X0086454Y0115876D01*
X0086513Y0115869D01*
X0086572Y0115858D01*
X0086630Y0115844D01*
X0086686Y0115825D01*
X0086742Y0115803D01*
X0086795Y0115778D01*
X0086847Y0115748D01*
X0086897Y0115716D01*
X0086944Y0115680D01*
X0086990Y0115641D01*
X0087032Y0115599D01*
X0087072Y0115555D01*
X0087108Y0115508D01*
X0087141Y0115459D01*
X0087172Y0115407D01*
X0087198Y0115354D01*
X0087221Y0115299D01*
X0087240Y0115243D01*
X0087256Y0115185D01*
X0087268Y0115127D01*
X0087276Y0115068D01*
X0087280Y0115009D01*
X0087280Y0114949D01*
X0087276Y0114890D01*
X0087268Y0114831D01*
X0087256Y0114773D01*
X0087240Y0114715D01*
X0087221Y0114659D01*
X0087198Y0114604D01*
X0087172Y0114551D01*
X0087141Y0114499D01*
X0087108Y0114450D01*
X0087072Y0114403D01*
X0087032Y0114359D01*
X0086990Y0114317D01*
X0086944Y0114278D01*
X0086897Y0114242D01*
X0086847Y0114210D01*
X0086795Y0114180D01*
X0086742Y0114155D01*
X0086686Y0114133D01*
X0086630Y0114114D01*
X0086572Y0114100D01*
X0086513Y0114089D01*
X0086454Y0114082D01*
X0086395Y0114079D01*
X0086335Y0114080D01*
X0086276Y0114085D01*
X0086217Y0114094D01*
X0086159Y0114107D01*
X0086102Y0114123D01*
X0086046Y0114143D01*
X0085991Y0114167D01*
X0085939Y0114195D01*
X0085888Y0114226D01*
X0085839Y0114260D01*
X0085793Y0114297D01*
X0085749Y0114337D01*
X0085708Y0114380D01*
X0085670Y0114426D01*
X0085635Y0114474D01*
X0085603Y0114525D01*
X0085575Y0114577D01*
X0085550Y0114631D01*
X0085529Y0114687D01*
X0085511Y0114744D01*
X0085498Y0114802D01*
X0085488Y0114860D01*
X0085482Y0114920D01*
X0085480Y0114979D01*
X0072980Y0110479D02*
X0072982Y0110538D01*
X0072988Y0110598D01*
X0072998Y0110656D01*
X0073011Y0110714D01*
X0073029Y0110771D01*
X0073050Y0110827D01*
X0073075Y0110881D01*
X0073103Y0110933D01*
X0073135Y0110984D01*
X0073170Y0111032D01*
X0073208Y0111078D01*
X0073249Y0111121D01*
X0073293Y0111161D01*
X0073339Y0111198D01*
X0073388Y0111232D01*
X0073439Y0111263D01*
X0073491Y0111291D01*
X0073546Y0111315D01*
X0073602Y0111335D01*
X0073659Y0111351D01*
X0073717Y0111364D01*
X0073776Y0111373D01*
X0073835Y0111378D01*
X0073895Y0111379D01*
X0073954Y0111376D01*
X0074013Y0111369D01*
X0074072Y0111358D01*
X0074130Y0111344D01*
X0074186Y0111325D01*
X0074242Y0111303D01*
X0074295Y0111278D01*
X0074347Y0111248D01*
X0074397Y0111216D01*
X0074444Y0111180D01*
X0074490Y0111141D01*
X0074532Y0111099D01*
X0074572Y0111055D01*
X0074608Y0111008D01*
X0074641Y0110959D01*
X0074672Y0110907D01*
X0074698Y0110854D01*
X0074721Y0110799D01*
X0074740Y0110743D01*
X0074756Y0110685D01*
X0074768Y0110627D01*
X0074776Y0110568D01*
X0074780Y0110509D01*
X0074780Y0110449D01*
X0074776Y0110390D01*
X0074768Y0110331D01*
X0074756Y0110273D01*
X0074740Y0110215D01*
X0074721Y0110159D01*
X0074698Y0110104D01*
X0074672Y0110051D01*
X0074641Y0109999D01*
X0074608Y0109950D01*
X0074572Y0109903D01*
X0074532Y0109859D01*
X0074490Y0109817D01*
X0074444Y0109778D01*
X0074397Y0109742D01*
X0074347Y0109710D01*
X0074295Y0109680D01*
X0074242Y0109655D01*
X0074186Y0109633D01*
X0074130Y0109614D01*
X0074072Y0109600D01*
X0074013Y0109589D01*
X0073954Y0109582D01*
X0073895Y0109579D01*
X0073835Y0109580D01*
X0073776Y0109585D01*
X0073717Y0109594D01*
X0073659Y0109607D01*
X0073602Y0109623D01*
X0073546Y0109643D01*
X0073491Y0109667D01*
X0073439Y0109695D01*
X0073388Y0109726D01*
X0073339Y0109760D01*
X0073293Y0109797D01*
X0073249Y0109837D01*
X0073208Y0109880D01*
X0073170Y0109926D01*
X0073135Y0109974D01*
X0073103Y0110025D01*
X0073075Y0110077D01*
X0073050Y0110131D01*
X0073029Y0110187D01*
X0073011Y0110244D01*
X0072998Y0110302D01*
X0072988Y0110360D01*
X0072982Y0110420D01*
X0072980Y0110479D01*
X0085480Y0106479D02*
X0085482Y0106538D01*
X0085488Y0106598D01*
X0085498Y0106656D01*
X0085511Y0106714D01*
X0085529Y0106771D01*
X0085550Y0106827D01*
X0085575Y0106881D01*
X0085603Y0106933D01*
X0085635Y0106984D01*
X0085670Y0107032D01*
X0085708Y0107078D01*
X0085749Y0107121D01*
X0085793Y0107161D01*
X0085839Y0107198D01*
X0085888Y0107232D01*
X0085939Y0107263D01*
X0085991Y0107291D01*
X0086046Y0107315D01*
X0086102Y0107335D01*
X0086159Y0107351D01*
X0086217Y0107364D01*
X0086276Y0107373D01*
X0086335Y0107378D01*
X0086395Y0107379D01*
X0086454Y0107376D01*
X0086513Y0107369D01*
X0086572Y0107358D01*
X0086630Y0107344D01*
X0086686Y0107325D01*
X0086742Y0107303D01*
X0086795Y0107278D01*
X0086847Y0107248D01*
X0086897Y0107216D01*
X0086944Y0107180D01*
X0086990Y0107141D01*
X0087032Y0107099D01*
X0087072Y0107055D01*
X0087108Y0107008D01*
X0087141Y0106959D01*
X0087172Y0106907D01*
X0087198Y0106854D01*
X0087221Y0106799D01*
X0087240Y0106743D01*
X0087256Y0106685D01*
X0087268Y0106627D01*
X0087276Y0106568D01*
X0087280Y0106509D01*
X0087280Y0106449D01*
X0087276Y0106390D01*
X0087268Y0106331D01*
X0087256Y0106273D01*
X0087240Y0106215D01*
X0087221Y0106159D01*
X0087198Y0106104D01*
X0087172Y0106051D01*
X0087141Y0105999D01*
X0087108Y0105950D01*
X0087072Y0105903D01*
X0087032Y0105859D01*
X0086990Y0105817D01*
X0086944Y0105778D01*
X0086897Y0105742D01*
X0086847Y0105710D01*
X0086795Y0105680D01*
X0086742Y0105655D01*
X0086686Y0105633D01*
X0086630Y0105614D01*
X0086572Y0105600D01*
X0086513Y0105589D01*
X0086454Y0105582D01*
X0086395Y0105579D01*
X0086335Y0105580D01*
X0086276Y0105585D01*
X0086217Y0105594D01*
X0086159Y0105607D01*
X0086102Y0105623D01*
X0086046Y0105643D01*
X0085991Y0105667D01*
X0085939Y0105695D01*
X0085888Y0105726D01*
X0085839Y0105760D01*
X0085793Y0105797D01*
X0085749Y0105837D01*
X0085708Y0105880D01*
X0085670Y0105926D01*
X0085635Y0105974D01*
X0085603Y0106025D01*
X0085575Y0106077D01*
X0085550Y0106131D01*
X0085529Y0106187D01*
X0085511Y0106244D01*
X0085498Y0106302D01*
X0085488Y0106360D01*
X0085482Y0106420D01*
X0085480Y0106479D01*
D17*
X0008365Y0006863D02*
X0008365Y0005781D01*
X0009092Y0005781D02*
X0009453Y0005781D01*
X0009272Y0005781D02*
X0009272Y0006863D01*
X0009092Y0006863D02*
X0009453Y0006863D01*
X0009817Y0006863D02*
X0009817Y0005781D01*
X0010538Y0005781D01*
X0011265Y0005781D02*
X0011265Y0006863D01*
X0010905Y0006863D02*
X0011626Y0006863D01*
X0011992Y0005600D02*
X0012714Y0005600D01*
X0013080Y0005961D02*
X0013260Y0005781D01*
X0013621Y0005781D01*
X0013801Y0005961D01*
X0013801Y0006141D01*
X0013621Y0006322D01*
X0013260Y0006322D01*
X0013080Y0006502D01*
X0013080Y0006682D01*
X0013260Y0006863D01*
X0013621Y0006863D01*
X0013801Y0006682D01*
X0014167Y0006863D02*
X0014167Y0005781D01*
X0014889Y0005781D01*
X0015255Y0005781D02*
X0015255Y0006863D01*
X0015796Y0006863D01*
X0015976Y0006682D01*
X0015976Y0006322D01*
X0015796Y0006141D01*
X0015255Y0006141D01*
X0015615Y0006141D02*
X0015976Y0005781D01*
X0016342Y0006141D02*
X0016703Y0005781D01*
X0017064Y0006141D01*
X0017064Y0006863D01*
X0017430Y0006682D02*
X0017430Y0005961D01*
X0017610Y0005781D01*
X0017971Y0005781D01*
X0018151Y0005961D01*
X0018151Y0006682D01*
X0017971Y0006863D01*
X0017610Y0006863D01*
X0017430Y0006682D01*
X0016342Y0006863D02*
X0016342Y0006141D01*
X0014889Y0006863D02*
X0014167Y0006863D01*
X0014167Y0006322D02*
X0014528Y0006322D01*
X0020178Y0006141D02*
X0020719Y0006141D01*
X0020899Y0006322D01*
X0020899Y0006682D01*
X0020719Y0006863D01*
X0020178Y0006863D01*
X0020178Y0005781D01*
X0021266Y0005781D02*
X0021266Y0006502D01*
X0021626Y0006863D01*
X0021987Y0006502D01*
X0021987Y0005781D01*
X0022353Y0005781D02*
X0022353Y0006863D01*
X0023075Y0005781D01*
X0023075Y0006863D01*
X0021987Y0006322D02*
X0021266Y0006322D01*
X0023441Y0005600D02*
X0024162Y0005600D01*
X0024528Y0005961D02*
X0024709Y0005781D01*
X0025069Y0005781D01*
X0025250Y0005961D01*
X0025250Y0006141D01*
X0025069Y0006322D01*
X0024709Y0006322D01*
X0024528Y0006502D01*
X0024528Y0006682D01*
X0024709Y0006863D01*
X0025069Y0006863D01*
X0025250Y0006682D01*
X0025616Y0006863D02*
X0025616Y0005781D01*
X0026337Y0005781D01*
X0026703Y0005781D02*
X0026703Y0006863D01*
X0027244Y0006863D01*
X0027425Y0006682D01*
X0027425Y0006322D01*
X0027244Y0006141D01*
X0026703Y0006141D01*
X0027064Y0006141D02*
X0027425Y0005781D01*
X0027791Y0006141D02*
X0028152Y0005781D01*
X0028512Y0006141D01*
X0028512Y0006863D01*
X0028878Y0006682D02*
X0028878Y0005961D01*
X0029059Y0005781D01*
X0029419Y0005781D01*
X0029600Y0005961D01*
X0029600Y0006682D01*
X0029419Y0006863D01*
X0029059Y0006863D01*
X0028878Y0006682D01*
X0027791Y0006863D02*
X0027791Y0006141D01*
X0026337Y0006863D02*
X0025616Y0006863D01*
X0025616Y0006322D02*
X0025976Y0006322D01*
X0008726Y0006863D02*
X0008005Y0006863D01*
M02*
