G75*
%MOIN*%
%OFA0B0*%
%FSLAX25Y25*%
%IPPOS*%
%LPD*%
%AMOC8*
5,1,8,0,0,1.08239X$1,22.5*
%
%ADD10C,0.00400*%
%ADD11C,0.00700*%
%ADD12C,0.02400*%
%ADD13C,0.01100*%
%ADD14R,0.05512X0.03307*%
%ADD15R,0.03307X0.04409*%
%ADD16R,0.01102X0.02205*%
%ADD17R,0.02205X0.01102*%
%ADD18R,0.02205X0.03307*%
%ADD19R,0.01102X0.03307*%
%ADD20R,0.02205X0.00551*%
%ADD21R,0.01102X0.01929*%
%ADD22R,0.01102X0.01102*%
%ADD23R,0.02205X0.01929*%
%ADD24R,0.01102X0.00551*%
%ADD25R,0.05512X0.00551*%
%ADD26R,0.03307X0.00551*%
%ADD27R,0.01102X0.00276*%
%ADD28R,0.03307X0.02205*%
%ADD29R,0.02205X0.02205*%
%ADD30R,0.02205X0.01378*%
%ADD31C,0.00787*%
%ADD32C,0.00600*%
%ADD33C,0.00500*%
%ADD34C,0.00200*%
%ADD35C,0.01200*%
%ADD36C,0.02000*%
%ADD37C,0.00900*%
%ADD38C,0.01600*%
D10*
X0021344Y0057208D02*
X0025948Y0057208D01*
X0025948Y0059510D01*
X0025181Y0060277D01*
X0023646Y0060277D01*
X0022879Y0059510D01*
X0022879Y0057208D01*
X0022879Y0058743D02*
X0021344Y0060277D01*
X0022111Y0061812D02*
X0021344Y0062579D01*
X0021344Y0064114D01*
X0022111Y0064881D01*
X0022879Y0064881D01*
X0023646Y0064114D01*
X0023646Y0062579D01*
X0024413Y0061812D01*
X0025181Y0061812D01*
X0025948Y0062579D01*
X0025948Y0064114D01*
X0025181Y0064881D01*
X0025948Y0066416D02*
X0025948Y0069485D01*
X0025948Y0067950D02*
X0021344Y0067950D01*
X0015948Y0065985D02*
X0011344Y0065985D01*
X0015948Y0062916D01*
X0011344Y0062916D01*
X0011344Y0061381D02*
X0014413Y0061381D01*
X0015948Y0059846D01*
X0014413Y0058312D01*
X0011344Y0058312D01*
X0013646Y0058312D02*
X0013646Y0061381D01*
X0031244Y0060214D02*
X0031244Y0058679D01*
X0032011Y0057912D01*
X0035081Y0057912D01*
X0035848Y0058679D01*
X0035848Y0060214D01*
X0035081Y0060981D01*
X0035081Y0062516D02*
X0034313Y0062516D01*
X0033546Y0063283D01*
X0033546Y0064818D01*
X0032779Y0065585D01*
X0032011Y0065585D01*
X0031244Y0064818D01*
X0031244Y0063283D01*
X0032011Y0062516D01*
X0032011Y0060981D02*
X0031244Y0060214D01*
X0035081Y0062516D02*
X0035848Y0063283D01*
X0035848Y0064818D01*
X0035081Y0065585D01*
X0041344Y0064614D02*
X0041344Y0063079D01*
X0042111Y0062312D01*
X0045181Y0062312D01*
X0045948Y0063079D01*
X0045948Y0064614D01*
X0045181Y0065381D01*
X0045948Y0066916D02*
X0041344Y0066916D01*
X0042879Y0066916D02*
X0045948Y0069985D01*
X0043646Y0067683D02*
X0041344Y0069985D01*
X0042111Y0065381D02*
X0041344Y0064614D01*
X0042111Y0060777D02*
X0041344Y0060010D01*
X0041344Y0058475D01*
X0042111Y0057708D01*
X0043646Y0058475D02*
X0043646Y0060010D01*
X0042879Y0060777D01*
X0042111Y0060777D01*
X0043646Y0058475D02*
X0044413Y0057708D01*
X0045181Y0057708D01*
X0045948Y0058475D01*
X0045948Y0060010D01*
X0045181Y0060777D01*
X0051244Y0062108D02*
X0055848Y0062108D01*
X0054313Y0060573D01*
X0055848Y0059039D01*
X0051244Y0059039D01*
X0051244Y0063643D02*
X0051244Y0065177D01*
X0051244Y0064410D02*
X0055848Y0064410D01*
X0055848Y0063643D02*
X0055848Y0065177D01*
X0055081Y0066712D02*
X0054313Y0066712D01*
X0053546Y0067479D01*
X0053546Y0069014D01*
X0052779Y0069781D01*
X0052011Y0069781D01*
X0051244Y0069014D01*
X0051244Y0067479D01*
X0052011Y0066712D01*
X0055081Y0066712D02*
X0055848Y0067479D01*
X0055848Y0069014D01*
X0055081Y0069781D01*
X0055081Y0071316D02*
X0052011Y0071316D01*
X0051244Y0072083D01*
X0051244Y0073618D01*
X0052011Y0074385D01*
X0055081Y0074385D01*
X0055848Y0073618D01*
X0055848Y0072083D01*
X0055081Y0071316D01*
X0061344Y0070448D02*
X0061344Y0068914D01*
X0062111Y0068146D01*
X0062111Y0066612D02*
X0061344Y0065844D01*
X0061344Y0064310D01*
X0062111Y0063543D01*
X0065181Y0063543D01*
X0065948Y0064310D01*
X0065948Y0065844D01*
X0065181Y0066612D01*
X0062111Y0066612D01*
X0064413Y0068146D02*
X0063646Y0068914D01*
X0063646Y0070448D01*
X0062879Y0071216D01*
X0062111Y0071216D01*
X0061344Y0070448D01*
X0061344Y0072750D02*
X0061344Y0074285D01*
X0061344Y0073518D02*
X0065948Y0073518D01*
X0065948Y0074285D02*
X0065948Y0072750D01*
X0065181Y0071216D02*
X0065948Y0070448D01*
X0065948Y0068914D01*
X0065181Y0068146D01*
X0064413Y0068146D01*
X0071244Y0068046D02*
X0072779Y0069581D01*
X0075848Y0069581D01*
X0075081Y0071116D02*
X0075848Y0071883D01*
X0075848Y0073418D01*
X0075081Y0074185D01*
X0074313Y0074185D01*
X0073546Y0073418D01*
X0072779Y0074185D01*
X0072011Y0074185D01*
X0071244Y0073418D01*
X0071244Y0071883D01*
X0072011Y0071116D01*
X0073546Y0072650D02*
X0073546Y0073418D01*
X0081344Y0070818D02*
X0082111Y0071585D01*
X0085181Y0071585D01*
X0085948Y0070818D01*
X0085948Y0068516D01*
X0081344Y0068516D01*
X0081344Y0070818D01*
X0081344Y0066981D02*
X0085948Y0066981D01*
X0085948Y0063912D02*
X0081344Y0063912D01*
X0082111Y0062377D02*
X0083646Y0062377D01*
X0083646Y0060843D01*
X0082111Y0062377D02*
X0081344Y0061610D01*
X0081344Y0060075D01*
X0082111Y0059308D01*
X0085181Y0059308D01*
X0085948Y0060075D01*
X0085948Y0061610D01*
X0085181Y0062377D01*
X0085948Y0063912D02*
X0081344Y0066981D01*
X0075848Y0066512D02*
X0072779Y0066512D01*
X0071244Y0068046D01*
X0072011Y0064977D02*
X0071244Y0064210D01*
X0071244Y0062675D01*
X0072011Y0061908D01*
X0073546Y0063443D02*
X0073546Y0064210D01*
X0072779Y0064977D01*
X0072011Y0064977D01*
X0073546Y0064210D02*
X0074313Y0064977D01*
X0075081Y0064977D01*
X0075848Y0064210D01*
X0075848Y0062675D01*
X0075081Y0061908D01*
X0073546Y0060373D02*
X0073546Y0057304D01*
X0075081Y0058839D02*
X0072011Y0058839D01*
X0065948Y0058939D02*
X0064413Y0060473D01*
X0065948Y0062008D01*
X0061344Y0062008D01*
X0061344Y0058939D02*
X0065948Y0058939D01*
X0065181Y0116608D02*
X0064413Y0116608D01*
X0063646Y0117375D01*
X0063646Y0118910D01*
X0062879Y0119677D01*
X0062111Y0119677D01*
X0061344Y0118910D01*
X0061344Y0117375D01*
X0062111Y0116608D01*
X0065181Y0116608D02*
X0065948Y0117375D01*
X0065948Y0118910D01*
X0065181Y0119677D01*
X0065948Y0121212D02*
X0065948Y0123514D01*
X0065181Y0124281D01*
X0062111Y0124281D01*
X0061344Y0123514D01*
X0061344Y0121212D01*
X0065948Y0121212D01*
X0071344Y0121979D02*
X0071344Y0123514D01*
X0072111Y0124281D01*
X0073646Y0124281D01*
X0074413Y0123514D01*
X0074413Y0122746D01*
X0073646Y0121212D01*
X0075948Y0121212D01*
X0075948Y0124281D01*
X0075948Y0125816D02*
X0072879Y0125816D01*
X0071344Y0127350D01*
X0072879Y0128885D01*
X0075948Y0128885D01*
X0081344Y0128118D02*
X0081344Y0125816D01*
X0085948Y0125816D01*
X0085948Y0128118D01*
X0085181Y0128885D01*
X0082111Y0128885D01*
X0081344Y0128118D01*
X0081344Y0124281D02*
X0085948Y0124281D01*
X0085948Y0121212D02*
X0081344Y0121212D01*
X0082111Y0119677D02*
X0083646Y0119677D01*
X0083646Y0118143D01*
X0082111Y0119677D02*
X0081344Y0118910D01*
X0081344Y0117375D01*
X0082111Y0116608D01*
X0085181Y0116608D01*
X0085948Y0117375D01*
X0085948Y0118910D01*
X0085181Y0119677D01*
X0085948Y0121212D02*
X0081344Y0124281D01*
X0073646Y0119677D02*
X0073646Y0116608D01*
X0075181Y0118143D02*
X0072111Y0118143D01*
X0072111Y0121212D02*
X0071344Y0121979D01*
X0065948Y0127350D02*
X0064413Y0128885D01*
X0061344Y0128885D01*
X0063646Y0128885D02*
X0063646Y0125816D01*
X0064413Y0125816D02*
X0065948Y0127350D01*
X0064413Y0125816D02*
X0061344Y0125816D01*
X0055948Y0125816D02*
X0051344Y0125816D01*
X0051344Y0128885D01*
X0045948Y0128885D02*
X0041344Y0125816D01*
X0041344Y0128885D02*
X0045948Y0125816D01*
X0045948Y0124281D02*
X0045948Y0121212D01*
X0045948Y0122746D02*
X0041344Y0122746D01*
X0035948Y0123414D02*
X0035948Y0121112D01*
X0031344Y0121112D01*
X0032879Y0121112D02*
X0032879Y0123414D01*
X0033646Y0124181D01*
X0035181Y0124181D01*
X0035948Y0123414D01*
X0032879Y0122646D02*
X0031344Y0124181D01*
X0031344Y0125716D02*
X0035948Y0128785D01*
X0035948Y0125716D02*
X0031344Y0128785D01*
X0025948Y0128785D02*
X0025948Y0125716D01*
X0025948Y0127250D02*
X0021344Y0127250D01*
X0021344Y0124181D02*
X0025948Y0124181D01*
X0025948Y0121112D02*
X0021344Y0121112D01*
X0021344Y0119577D02*
X0021344Y0118043D01*
X0021344Y0118810D02*
X0025948Y0118810D01*
X0025948Y0118043D02*
X0025948Y0119577D01*
X0025948Y0121112D02*
X0021344Y0124181D01*
X0016448Y0124181D02*
X0011844Y0124181D01*
X0013379Y0122646D01*
X0011844Y0121112D01*
X0016448Y0121112D01*
X0015681Y0119577D02*
X0014146Y0119577D01*
X0013379Y0118810D01*
X0013379Y0116508D01*
X0011844Y0116508D02*
X0016448Y0116508D01*
X0016448Y0118810D01*
X0015681Y0119577D01*
X0016448Y0125716D02*
X0011844Y0125716D01*
X0014913Y0127250D02*
X0016448Y0128785D01*
X0011844Y0128785D01*
X0014913Y0127250D02*
X0016448Y0125716D01*
X0051344Y0123514D02*
X0051344Y0121979D01*
X0052111Y0121212D01*
X0055181Y0121212D01*
X0055948Y0121979D01*
X0055948Y0123514D01*
X0055181Y0124281D01*
X0052111Y0124281D02*
X0051344Y0123514D01*
X0052111Y0119677D02*
X0051344Y0118910D01*
X0051344Y0117375D01*
X0052111Y0116608D01*
X0053646Y0117375D02*
X0053646Y0118910D01*
X0052879Y0119677D01*
X0052111Y0119677D01*
X0053646Y0117375D02*
X0054413Y0116608D01*
X0055181Y0116608D01*
X0055948Y0117375D01*
X0055948Y0118910D01*
X0055181Y0119677D01*
X0250525Y0070366D02*
X0250525Y0069828D01*
X0250525Y0070366D02*
X0251063Y0070903D01*
X0253750Y0070903D01*
X0254825Y0070903D02*
X0255362Y0070903D01*
X0254825Y0068643D02*
X0251600Y0066493D01*
X0251600Y0065308D02*
X0253212Y0065308D01*
X0253750Y0064771D01*
X0253212Y0064233D01*
X0251600Y0064233D01*
X0251600Y0063158D02*
X0253750Y0063158D01*
X0253750Y0063696D01*
X0253212Y0064233D01*
X0253212Y0061973D02*
X0253750Y0061435D01*
X0253750Y0060361D01*
X0253212Y0059823D01*
X0252137Y0059823D01*
X0251600Y0060361D01*
X0251600Y0061435D01*
X0252137Y0061973D01*
X0253212Y0061973D01*
X0253750Y0058638D02*
X0253750Y0057025D01*
X0253212Y0056488D01*
X0252137Y0056488D01*
X0251600Y0057025D01*
X0251600Y0058638D01*
X0251600Y0055358D02*
X0251600Y0054820D01*
X0252137Y0054820D01*
X0252137Y0055358D01*
X0251600Y0055358D01*
X0252137Y0053635D02*
X0253212Y0053635D01*
X0253750Y0053098D01*
X0253750Y0051485D01*
X0254825Y0051485D02*
X0251600Y0051485D01*
X0251600Y0053098D01*
X0252137Y0053635D01*
X0251600Y0050300D02*
X0253750Y0050300D01*
X0251600Y0050300D02*
X0251600Y0048688D01*
X0252137Y0048150D01*
X0253750Y0048150D01*
X0253212Y0046965D02*
X0251600Y0046965D01*
X0253212Y0046965D02*
X0253750Y0046427D01*
X0253750Y0045352D01*
X0253212Y0044815D01*
X0253750Y0043667D02*
X0253750Y0042592D01*
X0254287Y0043129D02*
X0252137Y0043129D01*
X0251600Y0043667D01*
X0251600Y0044815D02*
X0254825Y0044815D01*
X0251600Y0041443D02*
X0251600Y0040368D01*
X0251600Y0040906D02*
X0253750Y0040906D01*
X0253750Y0040368D01*
X0253750Y0039183D02*
X0251063Y0039183D01*
X0250525Y0038645D01*
X0250525Y0038108D01*
X0251600Y0037571D02*
X0251600Y0039183D01*
X0251600Y0037571D02*
X0252137Y0037033D01*
X0253212Y0037033D01*
X0253750Y0037571D01*
X0253750Y0039183D01*
X0254825Y0040906D02*
X0255362Y0040906D01*
X0253212Y0072052D02*
X0252137Y0072052D01*
X0251600Y0072589D01*
X0251600Y0073664D01*
X0252137Y0074202D01*
X0253212Y0074202D01*
X0253750Y0073664D01*
X0253750Y0072589D01*
X0253212Y0072052D01*
X0253212Y0075387D02*
X0253750Y0075924D01*
X0253750Y0077537D01*
X0252675Y0076999D02*
X0252675Y0075924D01*
X0253212Y0075387D01*
X0251600Y0075387D02*
X0251600Y0076999D01*
X0252137Y0077537D01*
X0252675Y0076999D01*
X0253212Y0078722D02*
X0253750Y0079260D01*
X0253750Y0080335D01*
X0253212Y0080872D01*
X0251600Y0080872D01*
X0252137Y0082057D02*
X0252675Y0082595D01*
X0252675Y0084207D01*
X0253212Y0084207D02*
X0251600Y0084207D01*
X0251600Y0082595D01*
X0252137Y0082057D01*
X0253750Y0082595D02*
X0253750Y0083670D01*
X0253212Y0084207D01*
X0253750Y0085392D02*
X0251600Y0085392D01*
X0253750Y0085392D02*
X0253750Y0087005D01*
X0253212Y0087542D01*
X0251600Y0087542D01*
X0252137Y0088727D02*
X0253212Y0088727D01*
X0253750Y0089265D01*
X0253750Y0090877D01*
X0254825Y0090877D02*
X0251600Y0090877D01*
X0251600Y0089265D01*
X0252137Y0088727D01*
X0251600Y0092063D02*
X0253750Y0092063D01*
X0253750Y0093675D01*
X0253212Y0094212D01*
X0251600Y0094212D01*
X0252137Y0095398D02*
X0251600Y0095935D01*
X0251600Y0097010D01*
X0252137Y0097548D01*
X0253212Y0097548D01*
X0253750Y0097010D01*
X0253750Y0095935D01*
X0253212Y0095398D01*
X0252137Y0095398D01*
X0252137Y0098733D02*
X0251600Y0099270D01*
X0251600Y0100345D01*
X0252137Y0100883D01*
X0253212Y0100883D01*
X0253750Y0100345D01*
X0253750Y0099270D01*
X0253212Y0098733D01*
X0252137Y0098733D01*
X0252137Y0102068D02*
X0253212Y0102068D01*
X0253750Y0102605D01*
X0253750Y0104218D01*
X0254825Y0104218D02*
X0251600Y0104218D01*
X0251600Y0102605D01*
X0252137Y0102068D01*
X0251600Y0105403D02*
X0251600Y0106478D01*
X0251600Y0105941D02*
X0254825Y0105941D01*
X0254825Y0105403D01*
X0253212Y0107627D02*
X0253750Y0108164D01*
X0253750Y0109239D01*
X0253212Y0109776D01*
X0252675Y0109776D01*
X0252675Y0107627D01*
X0253212Y0107627D02*
X0252137Y0107627D01*
X0251600Y0108164D01*
X0251600Y0109239D01*
X0251600Y0110962D02*
X0251600Y0112574D01*
X0252137Y0113112D01*
X0252675Y0112574D01*
X0252675Y0111499D01*
X0253212Y0110962D01*
X0253750Y0111499D01*
X0253750Y0113112D01*
X0251600Y0114297D02*
X0254825Y0116447D01*
X0254825Y0117632D02*
X0251600Y0117632D01*
X0251600Y0119782D02*
X0254825Y0119782D01*
X0253750Y0118707D01*
X0254825Y0117632D01*
X0254287Y0120967D02*
X0253750Y0120967D01*
X0253212Y0121505D01*
X0253212Y0122579D01*
X0252675Y0123117D01*
X0252137Y0123117D01*
X0251600Y0122579D01*
X0251600Y0121505D01*
X0252137Y0120967D01*
X0254287Y0120967D02*
X0254825Y0121505D01*
X0254825Y0122579D01*
X0254287Y0123117D01*
X0251600Y0124302D02*
X0254825Y0126452D01*
X0254825Y0078722D02*
X0251600Y0078722D01*
D11*
X0245381Y0078054D02*
X0245381Y0080659D01*
X0244512Y0081527D01*
X0242776Y0081527D01*
X0241907Y0080659D01*
X0241907Y0078054D01*
X0240171Y0078054D02*
X0245381Y0078054D01*
X0244512Y0076089D02*
X0242776Y0076089D01*
X0241907Y0075221D01*
X0241907Y0073484D01*
X0242776Y0072616D01*
X0244512Y0072616D01*
X0245381Y0073484D01*
X0245381Y0075221D01*
X0244512Y0076089D01*
X0245381Y0083492D02*
X0245381Y0085228D01*
X0246249Y0084360D02*
X0242776Y0084360D01*
X0241907Y0085228D01*
X0241907Y0087117D02*
X0241907Y0088853D01*
X0241907Y0087985D02*
X0245381Y0087985D01*
X0245381Y0087117D01*
X0247117Y0087985D02*
X0247986Y0087985D01*
X0244512Y0090742D02*
X0242776Y0090742D01*
X0241907Y0091610D01*
X0241907Y0094215D01*
X0245381Y0094215D02*
X0245381Y0091610D01*
X0244512Y0090742D01*
X0244512Y0096180D02*
X0245381Y0097048D01*
X0245381Y0099653D01*
X0243644Y0098785D02*
X0243644Y0097048D01*
X0244512Y0096180D01*
X0241907Y0096180D02*
X0241907Y0098785D01*
X0242776Y0099653D01*
X0243644Y0098785D01*
X0241039Y0101617D02*
X0241039Y0105091D01*
X0241907Y0107055D02*
X0245381Y0107055D01*
X0243644Y0107055D02*
X0245381Y0108792D01*
X0245381Y0109660D01*
X0246249Y0111586D02*
X0242776Y0111586D01*
X0246249Y0115060D01*
X0242776Y0115060D01*
X0241907Y0114191D01*
X0241907Y0112455D01*
X0242776Y0111586D01*
X0246249Y0111586D02*
X0247117Y0112455D01*
X0247117Y0114191D01*
X0246249Y0115060D01*
X0246249Y0117024D02*
X0247117Y0117892D01*
X0247117Y0119629D01*
X0246249Y0120497D01*
X0242776Y0117024D01*
X0241907Y0117892D01*
X0241907Y0119629D01*
X0242776Y0120497D01*
X0246249Y0120497D01*
X0245381Y0122462D02*
X0247117Y0124198D01*
X0241907Y0124198D01*
X0241907Y0122462D02*
X0241907Y0125935D01*
X0242776Y0117024D02*
X0246249Y0117024D01*
D12*
X0118112Y0050019D02*
X0118841Y0048250D01*
X0113998Y0043526D02*
X0112230Y0044136D01*
X0112230Y0044137D02*
X0112154Y0043920D01*
X0112083Y0043703D01*
X0112017Y0043483D01*
X0111957Y0043262D01*
X0111901Y0043040D01*
X0111851Y0042816D01*
X0111806Y0042592D01*
X0111766Y0042366D01*
X0111732Y0042140D01*
X0111703Y0041913D01*
X0111679Y0041685D01*
X0111660Y0041457D01*
X0111647Y0041228D01*
X0111639Y0040999D01*
X0111636Y0040770D01*
X0111639Y0040530D01*
X0111648Y0040291D01*
X0111662Y0040052D01*
X0111683Y0039813D01*
X0111709Y0039574D01*
X0111741Y0039337D01*
X0111779Y0039100D01*
X0111822Y0038864D01*
X0111871Y0038630D01*
X0111926Y0038397D01*
X0111987Y0038165D01*
X0112053Y0037934D01*
X0112125Y0037706D01*
X0112203Y0037479D01*
X0112285Y0037254D01*
X0112374Y0037031D01*
X0112468Y0036810D01*
X0112567Y0036592D01*
X0112671Y0036376D01*
X0112781Y0036163D01*
X0112895Y0035953D01*
X0113015Y0035745D01*
X0113140Y0035540D01*
X0113270Y0035339D01*
X0113405Y0035141D01*
X0113544Y0034946D01*
X0113688Y0034754D01*
X0113837Y0034566D01*
X0113990Y0034382D01*
X0114148Y0034202D01*
X0114310Y0034025D01*
X0114477Y0033852D01*
X0114647Y0033684D01*
X0114822Y0033520D01*
X0115000Y0033360D01*
X0115183Y0033204D01*
X0115369Y0033053D01*
X0115559Y0032907D01*
X0115752Y0032765D01*
X0115948Y0032628D01*
X0116148Y0032495D01*
X0116351Y0032368D01*
X0116558Y0032246D01*
X0116767Y0032128D01*
X0116978Y0032016D01*
X0117193Y0031909D01*
X0117410Y0031807D01*
X0117629Y0031711D01*
X0117851Y0031620D01*
X0118075Y0031534D01*
X0118301Y0031454D01*
X0118529Y0031380D01*
X0118758Y0031311D01*
X0118989Y0031247D01*
X0119222Y0031189D01*
X0119456Y0031137D01*
X0119691Y0031091D01*
X0119927Y0031050D01*
X0120165Y0031015D01*
X0120402Y0030986D01*
X0120641Y0030963D01*
X0120880Y0030945D01*
X0121120Y0030934D01*
X0121359Y0030928D01*
X0121599Y0030928D01*
X0121838Y0030934D01*
X0122078Y0030945D01*
X0122317Y0030963D01*
X0122556Y0030986D01*
X0122793Y0031015D01*
X0123031Y0031050D01*
X0123267Y0031091D01*
X0123502Y0031137D01*
X0123736Y0031189D01*
X0123969Y0031247D01*
X0124200Y0031311D01*
X0124429Y0031380D01*
X0124657Y0031454D01*
X0124883Y0031534D01*
X0125107Y0031620D01*
X0125329Y0031711D01*
X0125548Y0031807D01*
X0125765Y0031909D01*
X0125980Y0032016D01*
X0126191Y0032128D01*
X0126401Y0032246D01*
X0126607Y0032368D01*
X0126810Y0032495D01*
X0127010Y0032628D01*
X0127206Y0032765D01*
X0127399Y0032907D01*
X0127589Y0033053D01*
X0127775Y0033204D01*
X0127958Y0033360D01*
X0128136Y0033520D01*
X0128311Y0033684D01*
X0128481Y0033852D01*
X0128648Y0034025D01*
X0128810Y0034202D01*
X0128968Y0034382D01*
X0129121Y0034566D01*
X0129270Y0034754D01*
X0129414Y0034946D01*
X0129553Y0035141D01*
X0129688Y0035339D01*
X0129818Y0035540D01*
X0129943Y0035745D01*
X0130063Y0035953D01*
X0130177Y0036163D01*
X0130287Y0036376D01*
X0130391Y0036592D01*
X0130490Y0036810D01*
X0130584Y0037031D01*
X0130673Y0037254D01*
X0130755Y0037479D01*
X0130833Y0037706D01*
X0130905Y0037934D01*
X0130971Y0038165D01*
X0131032Y0038397D01*
X0131087Y0038630D01*
X0131136Y0038864D01*
X0131179Y0039100D01*
X0131217Y0039337D01*
X0131249Y0039574D01*
X0131275Y0039813D01*
X0131296Y0040052D01*
X0131310Y0040291D01*
X0131319Y0040530D01*
X0131322Y0040770D01*
X0131319Y0041009D01*
X0131310Y0041248D01*
X0131296Y0041487D01*
X0131276Y0041725D01*
X0131249Y0041963D01*
X0131218Y0042200D01*
X0131180Y0042436D01*
X0131137Y0042672D01*
X0131088Y0042906D01*
X0131033Y0043139D01*
X0130972Y0043370D01*
X0130906Y0043600D01*
X0130835Y0043828D01*
X0130758Y0044055D01*
X0130675Y0044279D01*
X0130587Y0044502D01*
X0130494Y0044722D01*
X0130395Y0044940D01*
X0130291Y0045155D01*
X0130182Y0045368D01*
X0130068Y0045578D01*
X0129948Y0045785D01*
X0129824Y0045990D01*
X0129695Y0046191D01*
X0129561Y0046389D01*
X0129422Y0046584D01*
X0129278Y0046775D01*
X0129130Y0046963D01*
X0128977Y0047147D01*
X0128820Y0047327D01*
X0128658Y0047504D01*
X0128493Y0047676D01*
X0128323Y0047844D01*
X0128149Y0048009D01*
X0127971Y0048169D01*
X0127789Y0048324D01*
X0127604Y0048475D01*
X0127415Y0048622D01*
X0127222Y0048764D01*
X0127026Y0048901D01*
X0126827Y0049033D01*
X0126625Y0049161D01*
X0126419Y0049283D01*
X0126211Y0049401D01*
X0126000Y0049513D01*
X0125786Y0049621D01*
X0125570Y0049723D01*
X0125351Y0049819D01*
X0125130Y0049911D01*
X0124907Y0049997D01*
X0124682Y0050077D01*
X0124454Y0050153D01*
X0124226Y0050222D01*
X0123995Y0050286D01*
X0123763Y0050344D01*
X0123530Y0050397D01*
X0123295Y0050444D01*
X0123060Y0050485D01*
X0122823Y0050521D01*
X0122586Y0050551D01*
X0122348Y0050575D01*
X0122109Y0050593D01*
X0121870Y0050605D01*
X0121631Y0050612D01*
X0121392Y0050613D01*
X0121153Y0050608D01*
X0120914Y0050597D01*
X0120675Y0050580D01*
X0120437Y0050558D01*
X0120200Y0050529D01*
X0119963Y0050496D01*
X0119727Y0050456D01*
X0119492Y0050410D01*
X0119258Y0050359D01*
X0119026Y0050302D01*
X0118795Y0050240D01*
X0118566Y0050172D01*
X0118338Y0050098D01*
X0118112Y0050019D01*
D13*
X0112817Y0047857D02*
X0108880Y0043920D01*
X0108880Y0047069D01*
X0105731Y0047069D01*
X0105731Y0050219D01*
X0102187Y0050613D01*
X0106124Y0054550D01*
X0106222Y0054645D01*
X0106323Y0054737D01*
X0106426Y0054826D01*
X0106531Y0054913D01*
X0106640Y0054996D01*
X0106750Y0055076D01*
X0106863Y0055152D01*
X0106978Y0055226D01*
X0107095Y0055296D01*
X0107214Y0055363D01*
X0107334Y0055426D01*
X0107457Y0055486D01*
X0107581Y0055542D01*
X0107707Y0055595D01*
X0107834Y0055644D01*
X0107963Y0055689D01*
X0108093Y0055731D01*
X0108224Y0055769D01*
X0108356Y0055803D01*
X0108489Y0055833D01*
X0108623Y0055859D01*
X0108758Y0055882D01*
X0108893Y0055901D01*
X0109028Y0055915D01*
X0109164Y0055926D01*
X0109301Y0055933D01*
X0109437Y0055936D01*
X0109573Y0055935D01*
X0109710Y0055930D01*
X0109846Y0055921D01*
X0109982Y0055908D01*
X0110117Y0055892D01*
X0110252Y0055871D01*
X0110386Y0055847D01*
X0110519Y0055818D01*
X0110652Y0055786D01*
X0110784Y0055750D01*
X0110914Y0055711D01*
X0111043Y0055667D01*
X0111171Y0055620D01*
X0111298Y0055569D01*
X0111423Y0055515D01*
X0111546Y0055457D01*
X0111668Y0055395D01*
X0111788Y0055330D01*
X0111906Y0055262D01*
X0112022Y0055190D01*
X0112136Y0055115D01*
X0112247Y0055036D01*
X0112357Y0054954D01*
X0112464Y0054870D01*
X0112568Y0054782D01*
X0112670Y0054691D01*
X0112769Y0054598D01*
X0112866Y0054501D01*
X0112959Y0054402D01*
X0113050Y0054300D01*
X0113138Y0054196D01*
X0113222Y0054089D01*
X0113304Y0053979D01*
X0113383Y0053868D01*
X0113458Y0053754D01*
X0113530Y0053638D01*
X0113598Y0053520D01*
X0113663Y0053400D01*
X0113725Y0053278D01*
X0113783Y0053155D01*
X0113837Y0053030D01*
X0113888Y0052903D01*
X0113935Y0052775D01*
X0113979Y0052646D01*
X0114018Y0052516D01*
X0114054Y0052384D01*
X0114086Y0052251D01*
X0114115Y0052118D01*
X0114139Y0051984D01*
X0114160Y0051849D01*
X0114176Y0051714D01*
X0114189Y0051578D01*
X0114198Y0051442D01*
X0114203Y0051305D01*
X0114204Y0051169D01*
X0114201Y0051033D01*
X0114194Y0050896D01*
X0114183Y0050760D01*
X0114169Y0050625D01*
X0114150Y0050490D01*
X0114127Y0050355D01*
X0114101Y0050221D01*
X0114071Y0050088D01*
X0114037Y0049956D01*
X0113999Y0049825D01*
X0113957Y0049695D01*
X0113912Y0049566D01*
X0113863Y0049439D01*
X0113810Y0049313D01*
X0113754Y0049189D01*
X0113694Y0049066D01*
X0113631Y0048946D01*
X0113564Y0048827D01*
X0113494Y0048710D01*
X0113420Y0048595D01*
X0113344Y0048482D01*
X0113264Y0048372D01*
X0113181Y0048263D01*
X0113094Y0048158D01*
X0113005Y0048055D01*
X0112913Y0047954D01*
X0112818Y0047856D01*
D14*
X0233723Y0066991D03*
X0240337Y0066991D03*
D15*
X0229313Y0063132D03*
D16*
X0233723Y0064235D03*
X0240337Y0064235D03*
X0240337Y0060928D03*
X0237030Y0060928D03*
X0233723Y0060928D03*
X0233723Y0057620D03*
X0237030Y0057620D03*
X0240337Y0057620D03*
X0240337Y0054313D03*
X0237030Y0054313D03*
X0233723Y0054313D03*
X0230416Y0057620D03*
X0227109Y0054313D03*
X0223802Y0055416D03*
X0243644Y0054313D03*
X0243644Y0057620D03*
X0243644Y0060928D03*
D17*
X0245298Y0061479D03*
X0241991Y0062581D03*
X0238683Y0062581D03*
X0235376Y0062581D03*
X0232069Y0062581D03*
X0232069Y0059274D03*
X0228762Y0059274D03*
X0225455Y0055967D03*
X0232069Y0055967D03*
X0235376Y0055967D03*
X0235376Y0059274D03*
X0238683Y0059274D03*
X0241991Y0059274D03*
X0245298Y0059274D03*
X0245298Y0057069D03*
X0241991Y0055967D03*
X0238683Y0055967D03*
X0245298Y0047148D03*
X0245298Y0044943D03*
X0228762Y0044943D03*
X0228762Y0047148D03*
D18*
X0215534Y0054865D03*
X0245298Y0063683D03*
D19*
X0243644Y0063683D03*
X0246951Y0059274D03*
X0237030Y0063683D03*
X0227109Y0059274D03*
X0230416Y0054865D03*
D20*
X0238683Y0052935D03*
X0241991Y0052935D03*
X0245298Y0052935D03*
D21*
X0246951Y0053624D03*
X0217187Y0055554D03*
D22*
X0218290Y0053762D03*
X0220494Y0053762D03*
X0222699Y0053762D03*
X0221597Y0051557D03*
X0223802Y0051557D03*
X0219392Y0051557D03*
X0217187Y0051557D03*
X0230416Y0060376D03*
X0233723Y0059274D03*
X0237030Y0055967D03*
X0240337Y0059274D03*
X0243644Y0055967D03*
D23*
X0245298Y0055554D03*
D24*
X0240337Y0052935D03*
D25*
X0233723Y0052935D03*
X0227109Y0052935D03*
D26*
X0222699Y0052935D03*
X0218290Y0052935D03*
D27*
X0217187Y0054451D03*
D28*
X0220494Y0055416D03*
D29*
X0225455Y0051006D03*
X0228762Y0051006D03*
X0232069Y0051006D03*
X0235376Y0051006D03*
X0235376Y0047699D03*
X0232069Y0047699D03*
X0232069Y0044392D03*
X0235376Y0044392D03*
X0238683Y0044392D03*
X0241991Y0044392D03*
X0241991Y0047699D03*
X0238683Y0047699D03*
X0238683Y0051006D03*
X0241991Y0051006D03*
X0228762Y0056518D03*
X0232069Y0041085D03*
X0235376Y0041085D03*
X0238683Y0041085D03*
X0241991Y0041085D03*
D30*
X0245298Y0051420D03*
D31*
X0208880Y0026203D03*
X0199431Y0031715D03*
X0199628Y0037620D03*
X0208683Y0020298D03*
X0148644Y0074431D03*
X0141557Y0074431D03*
X0138014Y0076794D03*
X0132109Y0076991D03*
X0121479Y0081715D03*
X0107306Y0090376D03*
X0096479Y0093132D03*
X0096676Y0099038D03*
X0096479Y0102975D03*
X0096676Y0108880D03*
X0132502Y0093329D03*
X0138408Y0093132D03*
X0197463Y0126203D03*
X0197660Y0132109D03*
X0208880Y0120691D03*
X0208683Y0114786D03*
X0204156Y0089589D03*
X0150219Y0130140D03*
X0150416Y0136046D03*
X0151597Y0138408D03*
X0151794Y0144313D03*
X0117542Y0132896D03*
D32*
X0150219Y0130140D02*
X0151794Y0130140D01*
X0151794Y0136046D02*
X0150416Y0136046D01*
X0150219Y0138408D02*
X0151597Y0138408D01*
X0151794Y0144313D02*
X0150219Y0144313D01*
X0197660Y0132109D02*
X0199038Y0132109D01*
X0199038Y0126203D02*
X0197463Y0126203D01*
X0207306Y0120691D02*
X0208880Y0120691D01*
X0208683Y0114786D02*
X0207306Y0114786D01*
X0148644Y0078172D02*
X0148644Y0074628D01*
X0141557Y0074628D02*
X0141557Y0078172D01*
X0138014Y0076794D02*
X0138014Y0075416D01*
X0132109Y0075416D02*
X0132109Y0076991D01*
X0123841Y0089589D02*
X0123841Y0090376D01*
X0123841Y0089589D02*
X0111243Y0089589D01*
X0111243Y0090376D01*
X0096479Y0093132D02*
X0095101Y0093132D01*
X0095101Y0099038D02*
X0096676Y0099038D01*
X0096479Y0102975D02*
X0095101Y0102975D01*
X0095101Y0108880D02*
X0096676Y0108880D01*
X0111243Y0102187D02*
X0111243Y0101400D01*
X0111243Y0102187D02*
X0123841Y0102187D01*
X0123841Y0101400D01*
X0132502Y0094707D02*
X0132502Y0093329D01*
X0138408Y0093132D02*
X0138408Y0094707D01*
X0104943Y0087620D02*
X0104665Y0087617D01*
X0104386Y0087606D01*
X0104108Y0087589D01*
X0103831Y0087566D01*
X0103554Y0087535D01*
X0103278Y0087498D01*
X0103003Y0087454D01*
X0102729Y0087403D01*
X0102457Y0087346D01*
X0102186Y0087282D01*
X0101916Y0087211D01*
X0101648Y0087134D01*
X0101383Y0087051D01*
X0101119Y0086961D01*
X0100858Y0086864D01*
X0100599Y0086761D01*
X0100343Y0086652D01*
X0100089Y0086537D01*
X0099839Y0086416D01*
X0099591Y0086288D01*
X0099347Y0086154D01*
X0099106Y0086015D01*
X0098868Y0085870D01*
X0098634Y0085719D01*
X0098404Y0085562D01*
X0098178Y0085400D01*
X0097955Y0085232D01*
X0097737Y0085059D01*
X0097523Y0084880D01*
X0097314Y0084697D01*
X0097109Y0084508D01*
X0096909Y0084315D01*
X0096713Y0084116D01*
X0096523Y0083913D01*
X0096337Y0083706D01*
X0096157Y0083493D01*
X0095982Y0083277D01*
X0095812Y0083056D01*
X0095647Y0082831D01*
X0095488Y0082603D01*
X0095335Y0082370D01*
X0095187Y0082134D01*
X0095046Y0081894D01*
X0094910Y0081651D01*
X0094780Y0081405D01*
X0094656Y0081155D01*
X0094538Y0080903D01*
X0094427Y0080648D01*
X0094321Y0080390D01*
X0094223Y0080130D01*
X0094130Y0079867D01*
X0094044Y0079602D01*
X0093964Y0079335D01*
X0093891Y0079067D01*
X0093824Y0078796D01*
X0093764Y0078524D01*
X0093711Y0078251D01*
X0093665Y0077976D01*
X0093625Y0077701D01*
X0093592Y0077424D01*
X0093565Y0077147D01*
X0093545Y0076869D01*
X0093533Y0076591D01*
X0093527Y0076313D01*
X0093527Y0076034D01*
X0093535Y0075756D01*
X0093549Y0075478D01*
X0093570Y0075200D01*
X0093598Y0074923D01*
X0093633Y0074646D01*
X0093674Y0074371D01*
X0093722Y0074097D01*
X0093777Y0073824D01*
X0093838Y0073552D01*
X0093906Y0073282D01*
X0093981Y0073014D01*
X0094062Y0072747D01*
X0094149Y0072483D01*
X0094243Y0072221D01*
X0094343Y0071961D01*
X0094450Y0071703D01*
X0094563Y0071449D01*
X0094682Y0071197D01*
X0094807Y0070948D01*
X0094938Y0070703D01*
X0095075Y0070460D01*
X0095218Y0070221D01*
X0095367Y0069986D01*
X0095522Y0069754D01*
X0095682Y0069526D01*
X0095847Y0069302D01*
X0096018Y0069083D01*
X0096195Y0068867D01*
X0096376Y0068656D01*
X0096563Y0068449D01*
X0096755Y0068247D01*
X0096951Y0068050D01*
X0097152Y0067857D01*
X0097358Y0067670D01*
X0097569Y0067487D01*
X0097783Y0067310D01*
X0098002Y0067138D01*
X0098226Y0066971D01*
X0098453Y0066810D01*
X0098684Y0066655D01*
X0098919Y0066505D01*
X0099157Y0066361D01*
X0110730Y0066361D01*
X0110729Y0066361D02*
X0110967Y0066505D01*
X0111202Y0066655D01*
X0111433Y0066810D01*
X0111660Y0066971D01*
X0111884Y0067138D01*
X0112103Y0067310D01*
X0112317Y0067487D01*
X0112528Y0067670D01*
X0112734Y0067857D01*
X0112935Y0068050D01*
X0113131Y0068247D01*
X0113323Y0068449D01*
X0113510Y0068656D01*
X0113691Y0068867D01*
X0113868Y0069083D01*
X0114039Y0069302D01*
X0114204Y0069526D01*
X0114364Y0069754D01*
X0114519Y0069986D01*
X0114668Y0070221D01*
X0114811Y0070460D01*
X0114948Y0070703D01*
X0115079Y0070948D01*
X0115204Y0071197D01*
X0115323Y0071449D01*
X0115436Y0071703D01*
X0115543Y0071961D01*
X0115643Y0072221D01*
X0115737Y0072483D01*
X0115824Y0072747D01*
X0115905Y0073014D01*
X0115980Y0073282D01*
X0116048Y0073552D01*
X0116109Y0073824D01*
X0116164Y0074097D01*
X0116212Y0074371D01*
X0116253Y0074646D01*
X0116288Y0074923D01*
X0116316Y0075200D01*
X0116337Y0075478D01*
X0116351Y0075756D01*
X0116359Y0076034D01*
X0116359Y0076313D01*
X0116353Y0076591D01*
X0116341Y0076869D01*
X0116321Y0077147D01*
X0116294Y0077424D01*
X0116261Y0077701D01*
X0116221Y0077976D01*
X0116175Y0078251D01*
X0116122Y0078524D01*
X0116062Y0078796D01*
X0115995Y0079067D01*
X0115922Y0079335D01*
X0115842Y0079602D01*
X0115756Y0079867D01*
X0115663Y0080130D01*
X0115565Y0080390D01*
X0115459Y0080648D01*
X0115348Y0080903D01*
X0115230Y0081155D01*
X0115106Y0081405D01*
X0114976Y0081651D01*
X0114840Y0081894D01*
X0114699Y0082134D01*
X0114551Y0082370D01*
X0114398Y0082603D01*
X0114239Y0082831D01*
X0114074Y0083056D01*
X0113904Y0083277D01*
X0113729Y0083493D01*
X0113549Y0083706D01*
X0113363Y0083913D01*
X0113173Y0084116D01*
X0112977Y0084315D01*
X0112777Y0084508D01*
X0112572Y0084697D01*
X0112363Y0084880D01*
X0112149Y0085059D01*
X0111931Y0085232D01*
X0111708Y0085400D01*
X0111482Y0085562D01*
X0111252Y0085719D01*
X0111018Y0085870D01*
X0110780Y0086015D01*
X0110539Y0086154D01*
X0110295Y0086288D01*
X0110047Y0086416D01*
X0109797Y0086537D01*
X0109543Y0086652D01*
X0109287Y0086761D01*
X0109028Y0086864D01*
X0108767Y0086961D01*
X0108503Y0087051D01*
X0108238Y0087134D01*
X0107970Y0087211D01*
X0107700Y0087282D01*
X0107429Y0087346D01*
X0107157Y0087403D01*
X0106883Y0087454D01*
X0106608Y0087498D01*
X0106332Y0087535D01*
X0106055Y0087566D01*
X0105778Y0087589D01*
X0105500Y0087606D01*
X0105221Y0087617D01*
X0104943Y0087620D01*
X0199628Y0037620D02*
X0201006Y0037620D01*
X0201006Y0031715D02*
X0199431Y0031715D01*
X0207306Y0026203D02*
X0208880Y0026203D01*
X0208683Y0020298D02*
X0207306Y0020298D01*
D33*
X0206646Y0018869D02*
X0205499Y0018869D01*
X0204926Y0018296D01*
X0207219Y0016003D01*
X0206646Y0015430D01*
X0205499Y0015430D01*
X0204926Y0016003D01*
X0204926Y0018296D01*
X0203594Y0017723D02*
X0202447Y0018869D01*
X0202447Y0015430D01*
X0201301Y0015430D02*
X0203594Y0015430D01*
X0207219Y0016003D02*
X0207219Y0018296D01*
X0206646Y0018869D01*
X0209124Y0018869D02*
X0210844Y0017149D01*
X0208551Y0017149D01*
X0209124Y0015430D02*
X0209124Y0018869D01*
X0212176Y0018296D02*
X0212176Y0017149D01*
X0212750Y0016576D01*
X0214469Y0016576D01*
X0213323Y0016576D02*
X0212176Y0015430D01*
X0214469Y0015430D02*
X0214469Y0018869D01*
X0212750Y0018869D01*
X0212176Y0018296D01*
X0207843Y0010995D02*
X0205550Y0010995D01*
X0206696Y0010995D02*
X0206696Y0007556D01*
X0204218Y0007556D02*
X0204218Y0010995D01*
X0202498Y0010995D01*
X0201924Y0010422D01*
X0201924Y0009275D01*
X0202498Y0008702D01*
X0204218Y0008702D01*
X0200593Y0009275D02*
X0198299Y0009275D01*
X0196968Y0008129D02*
X0196968Y0010422D01*
X0196394Y0010995D01*
X0195248Y0010995D01*
X0194674Y0010422D01*
X0196968Y0008129D01*
X0196394Y0007556D01*
X0195248Y0007556D01*
X0194674Y0008129D01*
X0194674Y0010422D01*
X0193342Y0010422D02*
X0192769Y0010995D01*
X0191622Y0010995D01*
X0191049Y0010422D01*
X0191049Y0009849D01*
X0193342Y0007556D01*
X0191049Y0007556D01*
X0198873Y0007556D02*
X0198873Y0010995D01*
X0200593Y0009275D01*
X0181106Y0027241D02*
X0181106Y0030680D01*
X0182252Y0030680D02*
X0179959Y0030680D01*
X0178627Y0030680D02*
X0176907Y0030680D01*
X0176334Y0030107D01*
X0176334Y0028961D01*
X0176907Y0028387D01*
X0178627Y0028387D01*
X0178627Y0027241D02*
X0178627Y0030680D01*
X0178926Y0033146D02*
X0181219Y0033146D01*
X0180073Y0033146D02*
X0180073Y0036586D01*
X0181219Y0035439D01*
X0182551Y0036013D02*
X0184845Y0033719D01*
X0184271Y0033146D01*
X0183125Y0033146D01*
X0182551Y0033719D01*
X0182551Y0036013D01*
X0183125Y0036586D01*
X0184271Y0036586D01*
X0184845Y0036013D01*
X0184845Y0033719D01*
X0186176Y0033719D02*
X0186750Y0033146D01*
X0187896Y0033146D01*
X0188470Y0033719D01*
X0189802Y0033146D02*
X0190948Y0034293D01*
X0190375Y0034293D02*
X0192095Y0034293D01*
X0192095Y0033146D02*
X0192095Y0036586D01*
X0190375Y0036586D01*
X0189802Y0036013D01*
X0189802Y0034866D01*
X0190375Y0034293D01*
X0188470Y0036013D02*
X0187896Y0036586D01*
X0186750Y0036586D01*
X0186176Y0036013D01*
X0186176Y0035439D01*
X0186750Y0034866D01*
X0186176Y0034293D01*
X0186176Y0033719D01*
X0186750Y0034866D02*
X0187323Y0034866D01*
X0175002Y0030107D02*
X0174429Y0030680D01*
X0173282Y0030680D01*
X0172709Y0030107D01*
X0172709Y0029534D01*
X0173282Y0028961D01*
X0172709Y0028387D01*
X0172709Y0027814D01*
X0173282Y0027241D01*
X0174429Y0027241D01*
X0175002Y0027814D01*
X0173855Y0028961D02*
X0173282Y0028961D01*
X0171377Y0030107D02*
X0170804Y0030680D01*
X0169657Y0030680D01*
X0169084Y0030107D01*
X0171377Y0027814D01*
X0170804Y0027241D01*
X0169657Y0027241D01*
X0169084Y0027814D01*
X0169084Y0030107D01*
X0167752Y0029534D02*
X0166605Y0030680D01*
X0166605Y0027241D01*
X0165459Y0027241D02*
X0167752Y0027241D01*
X0171377Y0027814D02*
X0171377Y0030107D01*
X0175301Y0046926D02*
X0177594Y0046926D01*
X0175301Y0049219D01*
X0175301Y0049792D01*
X0175874Y0050366D01*
X0177021Y0050366D01*
X0177594Y0049792D01*
X0178926Y0049792D02*
X0178926Y0047499D01*
X0179500Y0046926D01*
X0180646Y0046926D01*
X0181219Y0047499D01*
X0178926Y0049792D01*
X0179500Y0050366D01*
X0180646Y0050366D01*
X0181219Y0049792D01*
X0181219Y0047499D01*
X0182551Y0047499D02*
X0183125Y0046926D01*
X0184271Y0046926D01*
X0184845Y0047499D01*
X0183698Y0048646D02*
X0183125Y0048646D01*
X0182551Y0048072D01*
X0182551Y0047499D01*
X0183125Y0048646D02*
X0182551Y0049219D01*
X0182551Y0049792D01*
X0183125Y0050366D01*
X0184271Y0050366D01*
X0184845Y0049792D01*
X0186176Y0049792D02*
X0186176Y0048646D01*
X0186750Y0048072D01*
X0188470Y0048072D01*
X0188470Y0046926D02*
X0188470Y0050366D01*
X0186750Y0050366D01*
X0186176Y0049792D01*
X0189802Y0050366D02*
X0192095Y0050366D01*
X0190948Y0050366D02*
X0190948Y0046926D01*
X0153121Y0068579D02*
X0153121Y0070299D01*
X0152548Y0070872D01*
X0151401Y0070872D01*
X0150828Y0070299D01*
X0150828Y0068579D01*
X0149681Y0068579D02*
X0153121Y0068579D01*
X0150828Y0069726D02*
X0149681Y0070872D01*
X0150255Y0072204D02*
X0149681Y0072778D01*
X0149681Y0073924D01*
X0150255Y0074498D01*
X0150828Y0074498D01*
X0151401Y0073924D01*
X0151401Y0073351D01*
X0151401Y0073924D02*
X0151975Y0074498D01*
X0152548Y0074498D01*
X0153121Y0073924D01*
X0153121Y0072778D01*
X0152548Y0072204D01*
X0136980Y0066674D02*
X0136980Y0065527D01*
X0136406Y0064954D01*
X0136406Y0063622D02*
X0136980Y0063049D01*
X0136980Y0061902D01*
X0136406Y0061329D01*
X0134113Y0061329D01*
X0133540Y0061902D01*
X0133540Y0063049D01*
X0134113Y0063622D01*
X0134113Y0064954D02*
X0133540Y0065527D01*
X0133540Y0066674D01*
X0134113Y0067247D01*
X0134686Y0067247D01*
X0135260Y0066674D01*
X0135260Y0066101D01*
X0135260Y0066674D02*
X0135833Y0067247D01*
X0136406Y0067247D01*
X0136980Y0066674D01*
X0143956Y0057405D02*
X0143382Y0056831D01*
X0143382Y0055685D01*
X0143956Y0055111D01*
X0145102Y0055111D02*
X0145676Y0056258D01*
X0145676Y0056831D01*
X0145102Y0057405D01*
X0143956Y0057405D01*
X0145102Y0055111D02*
X0146822Y0055111D01*
X0146822Y0057405D01*
X0146249Y0053780D02*
X0145102Y0053780D01*
X0144529Y0053206D01*
X0144529Y0051486D01*
X0143382Y0051486D02*
X0146822Y0051486D01*
X0146822Y0053206D01*
X0146249Y0053780D01*
X0146822Y0050154D02*
X0146822Y0047861D01*
X0146822Y0049008D02*
X0143382Y0049008D01*
X0110131Y0061886D02*
X0108411Y0061886D01*
X0107838Y0062460D01*
X0107838Y0064753D01*
X0108411Y0065326D01*
X0110131Y0065326D01*
X0110131Y0061886D01*
X0106506Y0062460D02*
X0105933Y0061886D01*
X0104786Y0061886D01*
X0104213Y0062460D01*
X0104213Y0063033D01*
X0104786Y0063606D01*
X0105933Y0063606D01*
X0106506Y0064180D01*
X0106506Y0064753D01*
X0105933Y0065326D01*
X0104786Y0065326D01*
X0104213Y0064753D01*
X0102881Y0064753D02*
X0102881Y0064180D01*
X0102307Y0063606D01*
X0100587Y0063606D01*
X0100587Y0062460D02*
X0100587Y0064753D01*
X0101161Y0065326D01*
X0102307Y0065326D01*
X0102881Y0064753D01*
X0102881Y0062460D02*
X0102307Y0061886D01*
X0101161Y0061886D01*
X0100587Y0062460D01*
X0057335Y0078422D02*
X0057335Y0081862D01*
X0056189Y0081862D02*
X0058482Y0081862D01*
X0054857Y0081862D02*
X0053137Y0081862D01*
X0052564Y0081288D01*
X0052564Y0080142D01*
X0053137Y0079568D01*
X0054857Y0079568D01*
X0054857Y0078422D02*
X0054857Y0081862D01*
X0051232Y0081288D02*
X0050659Y0081862D01*
X0049512Y0081862D01*
X0048939Y0081288D01*
X0048939Y0080715D01*
X0049512Y0080142D01*
X0048939Y0079568D01*
X0048939Y0078995D01*
X0049512Y0078422D01*
X0050659Y0078422D01*
X0051232Y0078995D01*
X0050085Y0080142D02*
X0049512Y0080142D01*
X0048939Y0090233D02*
X0051232Y0090233D01*
X0048939Y0092526D01*
X0048939Y0093099D01*
X0049512Y0093673D01*
X0050659Y0093673D01*
X0051232Y0093099D01*
X0052564Y0093099D02*
X0052564Y0091953D01*
X0053137Y0091379D01*
X0054857Y0091379D01*
X0054857Y0090233D02*
X0054857Y0093673D01*
X0053137Y0093673D01*
X0052564Y0093099D01*
X0056189Y0093673D02*
X0058482Y0093673D01*
X0057335Y0093673D02*
X0057335Y0090233D01*
X0057335Y0098107D02*
X0057335Y0101547D01*
X0056189Y0101547D02*
X0058482Y0101547D01*
X0054857Y0101547D02*
X0053137Y0101547D01*
X0052564Y0100973D01*
X0052564Y0099827D01*
X0053137Y0099253D01*
X0054857Y0099253D01*
X0054857Y0098107D02*
X0054857Y0101547D01*
X0051232Y0100400D02*
X0050085Y0101547D01*
X0050085Y0098107D01*
X0048939Y0098107D02*
X0051232Y0098107D01*
X0089096Y0088264D02*
X0091389Y0088264D01*
X0090243Y0088264D02*
X0090243Y0091704D01*
X0091389Y0090557D01*
X0092721Y0091704D02*
X0095014Y0089411D01*
X0094441Y0089984D02*
X0092721Y0088264D01*
X0095014Y0088264D02*
X0095014Y0091704D01*
X0096346Y0091131D02*
X0096346Y0089984D01*
X0096920Y0089411D01*
X0098640Y0089411D01*
X0098640Y0088264D02*
X0098640Y0091704D01*
X0096920Y0091704D01*
X0096346Y0091131D01*
X0097493Y0089411D02*
X0096346Y0088264D01*
X0105729Y0102044D02*
X0106876Y0102044D01*
X0107449Y0102617D01*
X0108781Y0102617D02*
X0109354Y0102044D01*
X0110501Y0102044D01*
X0111074Y0102617D01*
X0111074Y0105484D01*
X0108781Y0105484D02*
X0108781Y0102617D01*
X0107449Y0104910D02*
X0106876Y0105484D01*
X0105729Y0105484D01*
X0105156Y0104910D01*
X0105156Y0104337D01*
X0105729Y0103764D01*
X0105156Y0103190D01*
X0105156Y0102617D01*
X0105729Y0102044D01*
X0105729Y0103764D02*
X0106303Y0103764D01*
X0098640Y0109918D02*
X0098640Y0113358D01*
X0096920Y0113358D01*
X0096346Y0112784D01*
X0096346Y0111638D01*
X0096920Y0111064D01*
X0098640Y0111064D01*
X0097493Y0111064D02*
X0096346Y0109918D01*
X0095014Y0109918D02*
X0095014Y0113358D01*
X0094441Y0111638D02*
X0092721Y0109918D01*
X0091389Y0109918D02*
X0089096Y0112211D01*
X0089096Y0112784D01*
X0089669Y0113358D01*
X0090816Y0113358D01*
X0091389Y0112784D01*
X0092721Y0113358D02*
X0095014Y0111064D01*
X0091389Y0109918D02*
X0089096Y0109918D01*
X0133540Y0107962D02*
X0133540Y0105669D01*
X0135833Y0107962D01*
X0136406Y0107962D01*
X0136980Y0107389D01*
X0136980Y0106242D01*
X0136406Y0105669D01*
X0136406Y0104337D02*
X0136980Y0103764D01*
X0136980Y0102617D01*
X0136406Y0102044D01*
X0134113Y0102044D01*
X0133540Y0102617D01*
X0133540Y0103764D01*
X0134113Y0104337D01*
X0143382Y0103140D02*
X0143382Y0101993D01*
X0143956Y0101420D01*
X0145102Y0101420D01*
X0145102Y0103140D01*
X0144529Y0103713D01*
X0143956Y0103713D01*
X0143382Y0103140D01*
X0145102Y0101420D02*
X0146249Y0102567D01*
X0146822Y0103713D01*
X0146249Y0100088D02*
X0145102Y0100088D01*
X0144529Y0099515D01*
X0144529Y0097795D01*
X0143382Y0097795D02*
X0146822Y0097795D01*
X0146822Y0099515D01*
X0146249Y0100088D01*
X0146822Y0096463D02*
X0146822Y0094170D01*
X0146822Y0095316D02*
X0143382Y0095316D01*
X0165459Y0121729D02*
X0167752Y0121729D01*
X0166605Y0121729D02*
X0166605Y0125169D01*
X0167752Y0124022D01*
X0169084Y0124595D02*
X0169084Y0122302D01*
X0169657Y0121729D01*
X0170804Y0121729D01*
X0171377Y0122302D01*
X0169084Y0124595D01*
X0169657Y0125169D01*
X0170804Y0125169D01*
X0171377Y0124595D01*
X0171377Y0122302D01*
X0172709Y0121729D02*
X0175002Y0121729D01*
X0172709Y0124022D01*
X0172709Y0124595D01*
X0173282Y0125169D01*
X0174429Y0125169D01*
X0175002Y0124595D01*
X0176334Y0124595D02*
X0176907Y0125169D01*
X0178627Y0125169D01*
X0178627Y0121729D01*
X0178627Y0122875D02*
X0176907Y0122875D01*
X0176334Y0123449D01*
X0176334Y0124595D01*
X0179959Y0125169D02*
X0182252Y0125169D01*
X0181106Y0125169D02*
X0181106Y0121729D01*
X0181156Y0127634D02*
X0182303Y0127634D01*
X0182876Y0128208D01*
X0180583Y0130501D01*
X0180583Y0128208D01*
X0181156Y0127634D01*
X0182876Y0128208D02*
X0182876Y0130501D01*
X0182303Y0131074D01*
X0181156Y0131074D01*
X0180583Y0130501D01*
X0179251Y0129928D02*
X0178104Y0131074D01*
X0178104Y0127634D01*
X0176958Y0127634D02*
X0179251Y0127634D01*
X0184208Y0127634D02*
X0186501Y0127634D01*
X0184208Y0129928D01*
X0184208Y0130501D01*
X0184781Y0131074D01*
X0185928Y0131074D01*
X0186501Y0130501D01*
X0187833Y0130501D02*
X0187833Y0129354D01*
X0188406Y0128781D01*
X0190126Y0128781D01*
X0188980Y0128781D02*
X0187833Y0127634D01*
X0190126Y0127634D02*
X0190126Y0131074D01*
X0188406Y0131074D01*
X0187833Y0130501D01*
X0188470Y0141414D02*
X0188470Y0144854D01*
X0186750Y0144854D01*
X0186176Y0144280D01*
X0186176Y0143134D01*
X0186750Y0142560D01*
X0188470Y0142560D01*
X0190948Y0141414D02*
X0190948Y0144854D01*
X0189802Y0144854D02*
X0192095Y0144854D01*
X0184845Y0144280D02*
X0184271Y0144854D01*
X0183125Y0144854D01*
X0182551Y0144280D01*
X0182551Y0143707D01*
X0184845Y0141414D01*
X0182551Y0141414D01*
X0181219Y0141987D02*
X0178926Y0144280D01*
X0178926Y0141987D01*
X0179500Y0141414D01*
X0180646Y0141414D01*
X0181219Y0141987D01*
X0181219Y0144280D01*
X0180646Y0144854D01*
X0179500Y0144854D01*
X0178926Y0144280D01*
X0177594Y0144280D02*
X0177021Y0144854D01*
X0175874Y0144854D01*
X0175301Y0144280D01*
X0175301Y0143707D01*
X0177594Y0141414D01*
X0175301Y0141414D01*
X0165881Y0140592D02*
X0164161Y0140592D01*
X0163587Y0141165D01*
X0163587Y0142312D01*
X0164161Y0142885D01*
X0165881Y0142885D01*
X0165881Y0139445D01*
X0164734Y0140592D02*
X0163587Y0139445D01*
X0162255Y0140019D02*
X0161682Y0139445D01*
X0160535Y0139445D01*
X0159962Y0140019D01*
X0159962Y0141165D01*
X0160535Y0141739D01*
X0161109Y0141739D01*
X0162255Y0141165D01*
X0162255Y0142885D01*
X0159962Y0142885D01*
X0160535Y0135011D02*
X0162255Y0133291D01*
X0159962Y0133291D01*
X0160535Y0131571D02*
X0160535Y0135011D01*
X0163587Y0134438D02*
X0164161Y0135011D01*
X0165307Y0135011D01*
X0165881Y0134438D01*
X0165881Y0132145D01*
X0165307Y0131571D01*
X0164161Y0131571D01*
X0163587Y0132145D01*
X0135008Y0146822D02*
X0132715Y0146822D01*
X0133862Y0146822D02*
X0133862Y0143382D01*
X0131383Y0143382D02*
X0131383Y0146822D01*
X0129663Y0146822D01*
X0129090Y0146249D01*
X0129090Y0145102D01*
X0129663Y0144529D01*
X0131383Y0144529D01*
X0127758Y0145676D02*
X0126611Y0146822D01*
X0126611Y0143382D01*
X0125465Y0143382D02*
X0127758Y0143382D01*
X0124133Y0143956D02*
X0121840Y0146249D01*
X0121840Y0143956D01*
X0122413Y0143382D01*
X0123560Y0143382D01*
X0124133Y0143956D01*
X0124133Y0146249D01*
X0123560Y0146822D01*
X0122413Y0146822D01*
X0121840Y0146249D01*
X0191049Y0104910D02*
X0191622Y0105484D01*
X0192769Y0105484D01*
X0193342Y0104910D01*
X0194674Y0104910D02*
X0194674Y0102617D01*
X0195248Y0102044D01*
X0196394Y0102044D01*
X0196968Y0102617D01*
X0194674Y0104910D01*
X0195248Y0105484D01*
X0196394Y0105484D01*
X0196968Y0104910D01*
X0196968Y0102617D01*
X0198299Y0102044D02*
X0200593Y0102044D01*
X0199446Y0102044D02*
X0199446Y0105484D01*
X0200593Y0104337D01*
X0201924Y0103764D02*
X0202498Y0103190D01*
X0204218Y0103190D01*
X0204218Y0102044D02*
X0204218Y0105484D01*
X0202498Y0105484D01*
X0201924Y0104910D01*
X0201924Y0103764D01*
X0205550Y0105484D02*
X0207843Y0105484D01*
X0206696Y0105484D02*
X0206696Y0102044D01*
X0193342Y0102044D02*
X0191049Y0104337D01*
X0191049Y0104910D01*
X0191049Y0102044D02*
X0193342Y0102044D01*
X0201301Y0109918D02*
X0203594Y0109918D01*
X0202447Y0109918D02*
X0202447Y0113358D01*
X0203594Y0112211D01*
X0204926Y0112784D02*
X0204926Y0110491D01*
X0205499Y0109918D01*
X0206646Y0109918D01*
X0207219Y0110491D01*
X0204926Y0112784D01*
X0205499Y0113358D01*
X0206646Y0113358D01*
X0207219Y0112784D01*
X0207219Y0110491D01*
X0208551Y0109918D02*
X0210844Y0109918D01*
X0209698Y0109918D02*
X0209698Y0113358D01*
X0210844Y0112211D01*
X0212176Y0111638D02*
X0212750Y0111064D01*
X0214469Y0111064D01*
X0213323Y0111064D02*
X0212176Y0109918D01*
X0212176Y0111638D02*
X0212176Y0112784D01*
X0212750Y0113358D01*
X0214469Y0113358D01*
X0214469Y0109918D01*
X0219760Y0109197D02*
X0223200Y0109197D01*
X0223200Y0110917D01*
X0222627Y0111490D01*
X0221480Y0111490D01*
X0220907Y0110917D01*
X0220907Y0109197D01*
X0223200Y0107865D02*
X0223200Y0105572D01*
X0223200Y0106718D02*
X0219760Y0106718D01*
X0219760Y0112822D02*
X0219760Y0115115D01*
X0219760Y0113968D02*
X0223200Y0113968D01*
X0222054Y0112822D01*
X0222627Y0116447D02*
X0220334Y0116447D01*
X0222627Y0118740D01*
X0220334Y0118740D01*
X0219760Y0118167D01*
X0219760Y0117020D01*
X0220334Y0116447D01*
X0222627Y0116447D02*
X0223200Y0117020D01*
X0223200Y0118167D01*
X0222627Y0118740D01*
X0222054Y0120072D02*
X0223200Y0121219D01*
X0219760Y0121219D01*
X0219760Y0122365D02*
X0219760Y0120072D01*
X0229996Y0023940D02*
X0229996Y0021647D01*
X0229996Y0022794D02*
X0233436Y0022794D01*
X0232290Y0021647D01*
X0232863Y0020315D02*
X0230570Y0020315D01*
X0229996Y0019742D01*
X0229996Y0018595D01*
X0230570Y0018022D01*
X0232863Y0020315D01*
X0233436Y0019742D01*
X0233436Y0018595D01*
X0232863Y0018022D01*
X0230570Y0018022D01*
X0231716Y0016690D02*
X0231716Y0014397D01*
X0233436Y0016117D01*
X0229996Y0016117D01*
X0231716Y0013065D02*
X0231143Y0012491D01*
X0231143Y0010771D01*
X0229996Y0010771D02*
X0233436Y0010771D01*
X0233436Y0012491D01*
X0232863Y0013065D01*
X0231716Y0013065D01*
X0233436Y0009440D02*
X0233436Y0007146D01*
X0233436Y0008293D02*
X0229996Y0008293D01*
D34*
X0208979Y0021176D02*
X0207209Y0021176D01*
X0207209Y0020586D02*
X0207209Y0021766D01*
X0207504Y0022398D02*
X0208684Y0023578D01*
X0207504Y0023578D01*
X0207209Y0023283D01*
X0207209Y0022693D01*
X0207504Y0022398D01*
X0208684Y0022398D01*
X0208979Y0022693D01*
X0208979Y0023283D01*
X0208684Y0023578D01*
X0208979Y0024211D02*
X0207209Y0024211D01*
X0207799Y0024211D02*
X0208389Y0025096D01*
X0207799Y0024211D02*
X0207209Y0025096D01*
X0208979Y0021176D02*
X0208389Y0020586D01*
X0200482Y0032654D02*
X0201006Y0033178D01*
X0199433Y0033178D01*
X0199433Y0032654D02*
X0199433Y0033702D01*
X0199695Y0034285D02*
X0200744Y0035334D01*
X0199695Y0035334D01*
X0199433Y0035071D01*
X0199433Y0034547D01*
X0199695Y0034285D01*
X0200744Y0034285D01*
X0201006Y0034547D01*
X0201006Y0035071D01*
X0200744Y0035334D01*
X0201006Y0035916D02*
X0199433Y0035916D01*
X0199957Y0035916D02*
X0200482Y0036703D01*
X0199957Y0035916D02*
X0199433Y0036703D01*
X0148173Y0075614D02*
X0146993Y0076794D01*
X0146993Y0075614D01*
X0147288Y0075319D01*
X0147878Y0075319D01*
X0148173Y0075614D01*
X0148173Y0076794D01*
X0147878Y0077089D01*
X0147288Y0077089D01*
X0146993Y0076794D01*
X0146360Y0075614D02*
X0146065Y0075614D01*
X0146065Y0075319D01*
X0146360Y0075319D01*
X0146360Y0075614D01*
X0145454Y0075614D02*
X0145454Y0075909D01*
X0145159Y0076204D01*
X0144569Y0076204D01*
X0144274Y0075909D01*
X0144274Y0075614D01*
X0144569Y0075319D01*
X0145159Y0075319D01*
X0145454Y0075614D01*
X0145159Y0076204D02*
X0145454Y0076499D01*
X0145454Y0076794D01*
X0145159Y0077089D01*
X0144569Y0077089D01*
X0144274Y0076794D01*
X0144274Y0076499D01*
X0144569Y0076204D01*
X0143641Y0076794D02*
X0143346Y0077089D01*
X0142756Y0077089D01*
X0142461Y0076794D01*
X0142461Y0076499D01*
X0143641Y0075319D01*
X0142461Y0075319D01*
X0138330Y0075319D02*
X0137150Y0076499D01*
X0137150Y0076794D01*
X0137445Y0077089D01*
X0138035Y0077089D01*
X0138330Y0076794D01*
X0138330Y0075319D02*
X0137150Y0075319D01*
X0136518Y0075319D02*
X0136223Y0075319D01*
X0136223Y0075614D01*
X0136518Y0075614D01*
X0136518Y0075319D01*
X0135611Y0075319D02*
X0134431Y0076499D01*
X0134431Y0076794D01*
X0134726Y0077089D01*
X0135316Y0077089D01*
X0135611Y0076794D01*
X0135611Y0075319D02*
X0134431Y0075319D01*
X0133799Y0075319D02*
X0133799Y0076499D01*
X0132914Y0076499D01*
X0132619Y0076204D01*
X0132619Y0075319D01*
X0132619Y0093035D02*
X0132619Y0094215D01*
X0132619Y0093035D02*
X0133504Y0093035D01*
X0133799Y0093330D01*
X0133799Y0094215D01*
X0134431Y0093035D02*
X0135611Y0093035D01*
X0135021Y0093035D02*
X0135021Y0094805D01*
X0135611Y0094215D01*
X0136223Y0093330D02*
X0136223Y0093035D01*
X0136518Y0093035D01*
X0136518Y0093330D01*
X0136223Y0093330D01*
X0137150Y0093330D02*
X0137150Y0094510D01*
X0138330Y0093330D01*
X0138035Y0093035D01*
X0137445Y0093035D01*
X0137150Y0093330D01*
X0138330Y0093330D02*
X0138330Y0094510D01*
X0138035Y0094805D01*
X0137445Y0094805D01*
X0137150Y0094510D01*
X0122577Y0103075D02*
X0121987Y0103075D01*
X0122282Y0103075D02*
X0122282Y0104255D01*
X0122577Y0104255D01*
X0122282Y0104845D02*
X0122282Y0105140D01*
X0121369Y0104550D02*
X0121369Y0103370D01*
X0121074Y0103075D01*
X0120484Y0103075D01*
X0120189Y0103370D01*
X0119556Y0103960D02*
X0118376Y0103960D01*
X0117744Y0103960D02*
X0116564Y0103960D01*
X0115931Y0103665D02*
X0114751Y0104845D01*
X0114119Y0104845D02*
X0113234Y0104845D01*
X0112939Y0104550D01*
X0112939Y0104255D01*
X0113234Y0103960D01*
X0114119Y0103960D01*
X0114119Y0103075D02*
X0114119Y0104845D01*
X0113234Y0103960D02*
X0112939Y0103665D01*
X0112939Y0103370D01*
X0113234Y0103075D01*
X0114119Y0103075D01*
X0114751Y0103075D02*
X0115636Y0103960D01*
X0115931Y0104845D02*
X0115931Y0103075D01*
X0116564Y0103075D02*
X0116564Y0104845D01*
X0117744Y0104845D02*
X0117744Y0103075D01*
X0120189Y0104550D02*
X0120484Y0104845D01*
X0121074Y0104845D01*
X0121369Y0104550D01*
X0096774Y0105219D02*
X0096479Y0104924D01*
X0095299Y0104924D01*
X0096479Y0106104D01*
X0095299Y0106104D01*
X0095004Y0105809D01*
X0095004Y0105219D01*
X0095299Y0104924D01*
X0096774Y0105219D02*
X0096774Y0105809D01*
X0096479Y0106104D01*
X0096479Y0096262D02*
X0095299Y0096262D01*
X0095004Y0095967D01*
X0095004Y0095377D01*
X0095299Y0095082D01*
X0096479Y0096262D01*
X0096774Y0095967D01*
X0096774Y0095377D01*
X0096479Y0095082D01*
X0095299Y0095082D01*
X0095169Y0077644D02*
X0095169Y0077044D01*
X0095169Y0077344D02*
X0096971Y0077344D01*
X0096971Y0077044D02*
X0096971Y0077644D01*
X0096971Y0076403D02*
X0095169Y0076403D01*
X0096971Y0075202D01*
X0095169Y0075202D01*
X0095470Y0074562D02*
X0096671Y0074562D01*
X0096971Y0074262D01*
X0096971Y0073361D01*
X0095169Y0073361D01*
X0095169Y0074262D01*
X0095470Y0074562D01*
X0151007Y0130671D02*
X0151007Y0131851D01*
X0150417Y0132483D02*
X0150122Y0132483D01*
X0150417Y0132483D02*
X0151597Y0133663D01*
X0151892Y0133663D01*
X0151892Y0132483D01*
X0151892Y0131556D02*
X0151007Y0130671D01*
X0150122Y0131556D02*
X0151892Y0131556D01*
X0151302Y0134296D02*
X0151302Y0135181D01*
X0151007Y0135476D01*
X0150122Y0135476D01*
X0150122Y0134296D02*
X0151302Y0134296D01*
X0151007Y0138243D02*
X0151007Y0139423D01*
X0150417Y0140055D02*
X0150417Y0140350D01*
X0150122Y0140350D01*
X0150122Y0140055D01*
X0150417Y0140055D01*
X0150417Y0140962D02*
X0150122Y0140962D01*
X0150417Y0140962D02*
X0151597Y0142142D01*
X0151892Y0142142D01*
X0151892Y0140962D01*
X0151892Y0142774D02*
X0150122Y0142774D01*
X0150712Y0142774D02*
X0151302Y0143659D01*
X0150712Y0142774D02*
X0150122Y0143659D01*
X0150122Y0139128D02*
X0151892Y0139128D01*
X0151007Y0138243D01*
X0197465Y0131191D02*
X0197989Y0130404D01*
X0198513Y0131191D01*
X0199038Y0130404D02*
X0197465Y0130404D01*
X0197727Y0129822D02*
X0197465Y0129560D01*
X0197465Y0129035D01*
X0197727Y0128773D01*
X0198775Y0129822D01*
X0197727Y0129822D01*
X0198775Y0129822D02*
X0199038Y0129560D01*
X0199038Y0129035D01*
X0198775Y0128773D01*
X0197727Y0128773D01*
X0197465Y0128190D02*
X0197465Y0127142D01*
X0197465Y0127666D02*
X0199038Y0127666D01*
X0198513Y0127142D01*
X0207209Y0119584D02*
X0207799Y0118699D01*
X0208389Y0119584D01*
X0208979Y0118699D02*
X0207209Y0118699D01*
X0207504Y0118066D02*
X0207209Y0117771D01*
X0207209Y0117181D01*
X0207504Y0116886D01*
X0208684Y0118066D01*
X0207504Y0118066D01*
X0207504Y0116886D02*
X0208684Y0116886D01*
X0208979Y0117181D01*
X0208979Y0117771D01*
X0208684Y0118066D01*
X0207209Y0116254D02*
X0207209Y0115074D01*
X0207209Y0115664D02*
X0208979Y0115664D01*
X0208389Y0115074D01*
D35*
X0017755Y0113857D02*
X0011755Y0113857D01*
X0011755Y0109857D01*
X0005255Y0109857D01*
X0011755Y0109857D02*
X0011755Y0105357D01*
X0017755Y0105357D01*
X0011755Y0105357D02*
X0011755Y0100857D01*
X0005255Y0100857D01*
X0011755Y0100857D02*
X0011755Y0096357D01*
X0017755Y0096357D01*
D36*
X0016855Y0096357D02*
X0016857Y0096416D01*
X0016863Y0096476D01*
X0016873Y0096534D01*
X0016886Y0096592D01*
X0016904Y0096649D01*
X0016925Y0096705D01*
X0016950Y0096759D01*
X0016978Y0096811D01*
X0017010Y0096862D01*
X0017045Y0096910D01*
X0017083Y0096956D01*
X0017124Y0096999D01*
X0017168Y0097039D01*
X0017214Y0097076D01*
X0017263Y0097110D01*
X0017314Y0097141D01*
X0017366Y0097169D01*
X0017421Y0097193D01*
X0017477Y0097213D01*
X0017534Y0097229D01*
X0017592Y0097242D01*
X0017651Y0097251D01*
X0017710Y0097256D01*
X0017770Y0097257D01*
X0017829Y0097254D01*
X0017888Y0097247D01*
X0017947Y0097236D01*
X0018005Y0097222D01*
X0018061Y0097203D01*
X0018117Y0097181D01*
X0018170Y0097156D01*
X0018222Y0097126D01*
X0018272Y0097094D01*
X0018319Y0097058D01*
X0018365Y0097019D01*
X0018407Y0096977D01*
X0018447Y0096933D01*
X0018483Y0096886D01*
X0018516Y0096837D01*
X0018547Y0096785D01*
X0018573Y0096732D01*
X0018596Y0096677D01*
X0018615Y0096621D01*
X0018631Y0096563D01*
X0018643Y0096505D01*
X0018651Y0096446D01*
X0018655Y0096387D01*
X0018655Y0096327D01*
X0018651Y0096268D01*
X0018643Y0096209D01*
X0018631Y0096151D01*
X0018615Y0096093D01*
X0018596Y0096037D01*
X0018573Y0095982D01*
X0018547Y0095929D01*
X0018516Y0095877D01*
X0018483Y0095828D01*
X0018447Y0095781D01*
X0018407Y0095737D01*
X0018365Y0095695D01*
X0018319Y0095656D01*
X0018272Y0095620D01*
X0018222Y0095588D01*
X0018170Y0095558D01*
X0018117Y0095533D01*
X0018061Y0095511D01*
X0018005Y0095492D01*
X0017947Y0095478D01*
X0017888Y0095467D01*
X0017829Y0095460D01*
X0017770Y0095457D01*
X0017710Y0095458D01*
X0017651Y0095463D01*
X0017592Y0095472D01*
X0017534Y0095485D01*
X0017477Y0095501D01*
X0017421Y0095521D01*
X0017366Y0095545D01*
X0017314Y0095573D01*
X0017263Y0095604D01*
X0017214Y0095638D01*
X0017168Y0095675D01*
X0017124Y0095715D01*
X0017083Y0095758D01*
X0017045Y0095804D01*
X0017010Y0095852D01*
X0016978Y0095903D01*
X0016950Y0095955D01*
X0016925Y0096009D01*
X0016904Y0096065D01*
X0016886Y0096122D01*
X0016873Y0096180D01*
X0016863Y0096238D01*
X0016857Y0096298D01*
X0016855Y0096357D01*
X0004355Y0100857D02*
X0004357Y0100916D01*
X0004363Y0100976D01*
X0004373Y0101034D01*
X0004386Y0101092D01*
X0004404Y0101149D01*
X0004425Y0101205D01*
X0004450Y0101259D01*
X0004478Y0101311D01*
X0004510Y0101362D01*
X0004545Y0101410D01*
X0004583Y0101456D01*
X0004624Y0101499D01*
X0004668Y0101539D01*
X0004714Y0101576D01*
X0004763Y0101610D01*
X0004814Y0101641D01*
X0004866Y0101669D01*
X0004921Y0101693D01*
X0004977Y0101713D01*
X0005034Y0101729D01*
X0005092Y0101742D01*
X0005151Y0101751D01*
X0005210Y0101756D01*
X0005270Y0101757D01*
X0005329Y0101754D01*
X0005388Y0101747D01*
X0005447Y0101736D01*
X0005505Y0101722D01*
X0005561Y0101703D01*
X0005617Y0101681D01*
X0005670Y0101656D01*
X0005722Y0101626D01*
X0005772Y0101594D01*
X0005819Y0101558D01*
X0005865Y0101519D01*
X0005907Y0101477D01*
X0005947Y0101433D01*
X0005983Y0101386D01*
X0006016Y0101337D01*
X0006047Y0101285D01*
X0006073Y0101232D01*
X0006096Y0101177D01*
X0006115Y0101121D01*
X0006131Y0101063D01*
X0006143Y0101005D01*
X0006151Y0100946D01*
X0006155Y0100887D01*
X0006155Y0100827D01*
X0006151Y0100768D01*
X0006143Y0100709D01*
X0006131Y0100651D01*
X0006115Y0100593D01*
X0006096Y0100537D01*
X0006073Y0100482D01*
X0006047Y0100429D01*
X0006016Y0100377D01*
X0005983Y0100328D01*
X0005947Y0100281D01*
X0005907Y0100237D01*
X0005865Y0100195D01*
X0005819Y0100156D01*
X0005772Y0100120D01*
X0005722Y0100088D01*
X0005670Y0100058D01*
X0005617Y0100033D01*
X0005561Y0100011D01*
X0005505Y0099992D01*
X0005447Y0099978D01*
X0005388Y0099967D01*
X0005329Y0099960D01*
X0005270Y0099957D01*
X0005210Y0099958D01*
X0005151Y0099963D01*
X0005092Y0099972D01*
X0005034Y0099985D01*
X0004977Y0100001D01*
X0004921Y0100021D01*
X0004866Y0100045D01*
X0004814Y0100073D01*
X0004763Y0100104D01*
X0004714Y0100138D01*
X0004668Y0100175D01*
X0004624Y0100215D01*
X0004583Y0100258D01*
X0004545Y0100304D01*
X0004510Y0100352D01*
X0004478Y0100403D01*
X0004450Y0100455D01*
X0004425Y0100509D01*
X0004404Y0100565D01*
X0004386Y0100622D01*
X0004373Y0100680D01*
X0004363Y0100738D01*
X0004357Y0100798D01*
X0004355Y0100857D01*
X0016855Y0105357D02*
X0016857Y0105416D01*
X0016863Y0105476D01*
X0016873Y0105534D01*
X0016886Y0105592D01*
X0016904Y0105649D01*
X0016925Y0105705D01*
X0016950Y0105759D01*
X0016978Y0105811D01*
X0017010Y0105862D01*
X0017045Y0105910D01*
X0017083Y0105956D01*
X0017124Y0105999D01*
X0017168Y0106039D01*
X0017214Y0106076D01*
X0017263Y0106110D01*
X0017314Y0106141D01*
X0017366Y0106169D01*
X0017421Y0106193D01*
X0017477Y0106213D01*
X0017534Y0106229D01*
X0017592Y0106242D01*
X0017651Y0106251D01*
X0017710Y0106256D01*
X0017770Y0106257D01*
X0017829Y0106254D01*
X0017888Y0106247D01*
X0017947Y0106236D01*
X0018005Y0106222D01*
X0018061Y0106203D01*
X0018117Y0106181D01*
X0018170Y0106156D01*
X0018222Y0106126D01*
X0018272Y0106094D01*
X0018319Y0106058D01*
X0018365Y0106019D01*
X0018407Y0105977D01*
X0018447Y0105933D01*
X0018483Y0105886D01*
X0018516Y0105837D01*
X0018547Y0105785D01*
X0018573Y0105732D01*
X0018596Y0105677D01*
X0018615Y0105621D01*
X0018631Y0105563D01*
X0018643Y0105505D01*
X0018651Y0105446D01*
X0018655Y0105387D01*
X0018655Y0105327D01*
X0018651Y0105268D01*
X0018643Y0105209D01*
X0018631Y0105151D01*
X0018615Y0105093D01*
X0018596Y0105037D01*
X0018573Y0104982D01*
X0018547Y0104929D01*
X0018516Y0104877D01*
X0018483Y0104828D01*
X0018447Y0104781D01*
X0018407Y0104737D01*
X0018365Y0104695D01*
X0018319Y0104656D01*
X0018272Y0104620D01*
X0018222Y0104588D01*
X0018170Y0104558D01*
X0018117Y0104533D01*
X0018061Y0104511D01*
X0018005Y0104492D01*
X0017947Y0104478D01*
X0017888Y0104467D01*
X0017829Y0104460D01*
X0017770Y0104457D01*
X0017710Y0104458D01*
X0017651Y0104463D01*
X0017592Y0104472D01*
X0017534Y0104485D01*
X0017477Y0104501D01*
X0017421Y0104521D01*
X0017366Y0104545D01*
X0017314Y0104573D01*
X0017263Y0104604D01*
X0017214Y0104638D01*
X0017168Y0104675D01*
X0017124Y0104715D01*
X0017083Y0104758D01*
X0017045Y0104804D01*
X0017010Y0104852D01*
X0016978Y0104903D01*
X0016950Y0104955D01*
X0016925Y0105009D01*
X0016904Y0105065D01*
X0016886Y0105122D01*
X0016873Y0105180D01*
X0016863Y0105238D01*
X0016857Y0105298D01*
X0016855Y0105357D01*
X0004355Y0109857D02*
X0004357Y0109916D01*
X0004363Y0109976D01*
X0004373Y0110034D01*
X0004386Y0110092D01*
X0004404Y0110149D01*
X0004425Y0110205D01*
X0004450Y0110259D01*
X0004478Y0110311D01*
X0004510Y0110362D01*
X0004545Y0110410D01*
X0004583Y0110456D01*
X0004624Y0110499D01*
X0004668Y0110539D01*
X0004714Y0110576D01*
X0004763Y0110610D01*
X0004814Y0110641D01*
X0004866Y0110669D01*
X0004921Y0110693D01*
X0004977Y0110713D01*
X0005034Y0110729D01*
X0005092Y0110742D01*
X0005151Y0110751D01*
X0005210Y0110756D01*
X0005270Y0110757D01*
X0005329Y0110754D01*
X0005388Y0110747D01*
X0005447Y0110736D01*
X0005505Y0110722D01*
X0005561Y0110703D01*
X0005617Y0110681D01*
X0005670Y0110656D01*
X0005722Y0110626D01*
X0005772Y0110594D01*
X0005819Y0110558D01*
X0005865Y0110519D01*
X0005907Y0110477D01*
X0005947Y0110433D01*
X0005983Y0110386D01*
X0006016Y0110337D01*
X0006047Y0110285D01*
X0006073Y0110232D01*
X0006096Y0110177D01*
X0006115Y0110121D01*
X0006131Y0110063D01*
X0006143Y0110005D01*
X0006151Y0109946D01*
X0006155Y0109887D01*
X0006155Y0109827D01*
X0006151Y0109768D01*
X0006143Y0109709D01*
X0006131Y0109651D01*
X0006115Y0109593D01*
X0006096Y0109537D01*
X0006073Y0109482D01*
X0006047Y0109429D01*
X0006016Y0109377D01*
X0005983Y0109328D01*
X0005947Y0109281D01*
X0005907Y0109237D01*
X0005865Y0109195D01*
X0005819Y0109156D01*
X0005772Y0109120D01*
X0005722Y0109088D01*
X0005670Y0109058D01*
X0005617Y0109033D01*
X0005561Y0109011D01*
X0005505Y0108992D01*
X0005447Y0108978D01*
X0005388Y0108967D01*
X0005329Y0108960D01*
X0005270Y0108957D01*
X0005210Y0108958D01*
X0005151Y0108963D01*
X0005092Y0108972D01*
X0005034Y0108985D01*
X0004977Y0109001D01*
X0004921Y0109021D01*
X0004866Y0109045D01*
X0004814Y0109073D01*
X0004763Y0109104D01*
X0004714Y0109138D01*
X0004668Y0109175D01*
X0004624Y0109215D01*
X0004583Y0109258D01*
X0004545Y0109304D01*
X0004510Y0109352D01*
X0004478Y0109403D01*
X0004450Y0109455D01*
X0004425Y0109509D01*
X0004404Y0109565D01*
X0004386Y0109622D01*
X0004373Y0109680D01*
X0004363Y0109738D01*
X0004357Y0109798D01*
X0004355Y0109857D01*
X0016855Y0113857D02*
X0016857Y0113916D01*
X0016863Y0113976D01*
X0016873Y0114034D01*
X0016886Y0114092D01*
X0016904Y0114149D01*
X0016925Y0114205D01*
X0016950Y0114259D01*
X0016978Y0114311D01*
X0017010Y0114362D01*
X0017045Y0114410D01*
X0017083Y0114456D01*
X0017124Y0114499D01*
X0017168Y0114539D01*
X0017214Y0114576D01*
X0017263Y0114610D01*
X0017314Y0114641D01*
X0017366Y0114669D01*
X0017421Y0114693D01*
X0017477Y0114713D01*
X0017534Y0114729D01*
X0017592Y0114742D01*
X0017651Y0114751D01*
X0017710Y0114756D01*
X0017770Y0114757D01*
X0017829Y0114754D01*
X0017888Y0114747D01*
X0017947Y0114736D01*
X0018005Y0114722D01*
X0018061Y0114703D01*
X0018117Y0114681D01*
X0018170Y0114656D01*
X0018222Y0114626D01*
X0018272Y0114594D01*
X0018319Y0114558D01*
X0018365Y0114519D01*
X0018407Y0114477D01*
X0018447Y0114433D01*
X0018483Y0114386D01*
X0018516Y0114337D01*
X0018547Y0114285D01*
X0018573Y0114232D01*
X0018596Y0114177D01*
X0018615Y0114121D01*
X0018631Y0114063D01*
X0018643Y0114005D01*
X0018651Y0113946D01*
X0018655Y0113887D01*
X0018655Y0113827D01*
X0018651Y0113768D01*
X0018643Y0113709D01*
X0018631Y0113651D01*
X0018615Y0113593D01*
X0018596Y0113537D01*
X0018573Y0113482D01*
X0018547Y0113429D01*
X0018516Y0113377D01*
X0018483Y0113328D01*
X0018447Y0113281D01*
X0018407Y0113237D01*
X0018365Y0113195D01*
X0018319Y0113156D01*
X0018272Y0113120D01*
X0018222Y0113088D01*
X0018170Y0113058D01*
X0018117Y0113033D01*
X0018061Y0113011D01*
X0018005Y0112992D01*
X0017947Y0112978D01*
X0017888Y0112967D01*
X0017829Y0112960D01*
X0017770Y0112957D01*
X0017710Y0112958D01*
X0017651Y0112963D01*
X0017592Y0112972D01*
X0017534Y0112985D01*
X0017477Y0113001D01*
X0017421Y0113021D01*
X0017366Y0113045D01*
X0017314Y0113073D01*
X0017263Y0113104D01*
X0017214Y0113138D01*
X0017168Y0113175D01*
X0017124Y0113215D01*
X0017083Y0113258D01*
X0017045Y0113304D01*
X0017010Y0113352D01*
X0016978Y0113403D01*
X0016950Y0113455D01*
X0016925Y0113509D01*
X0016904Y0113565D01*
X0016886Y0113622D01*
X0016873Y0113680D01*
X0016863Y0113738D01*
X0016857Y0113798D01*
X0016855Y0113857D01*
D37*
X0016501Y0090529D02*
X0014765Y0090529D01*
X0013897Y0089661D01*
X0013897Y0087926D01*
X0014765Y0087058D01*
X0016501Y0087058D01*
X0017368Y0087926D01*
X0017368Y0089661D01*
X0016501Y0090529D01*
X0017368Y0084979D02*
X0017368Y0084111D01*
X0015633Y0082375D01*
X0017368Y0082375D02*
X0013897Y0082375D01*
X0011171Y0082169D02*
X0011171Y0080434D01*
X0010303Y0079566D01*
X0009435Y0079566D01*
X0008568Y0080434D01*
X0008568Y0082169D01*
X0007700Y0083037D01*
X0006832Y0083037D01*
X0005964Y0082169D01*
X0005964Y0080434D01*
X0006832Y0079566D01*
X0006832Y0077418D02*
X0011171Y0077418D01*
X0013897Y0077693D02*
X0019104Y0077693D01*
X0019104Y0074815D02*
X0019972Y0074815D01*
X0017368Y0074815D02*
X0017368Y0073947D01*
X0017368Y0074815D02*
X0013897Y0074815D01*
X0013897Y0075682D02*
X0013897Y0073947D01*
X0013897Y0071799D02*
X0016501Y0071799D01*
X0017368Y0070931D01*
X0016501Y0070063D01*
X0013897Y0070063D01*
X0013897Y0068328D02*
X0017368Y0068328D01*
X0017368Y0069196D01*
X0016501Y0070063D01*
X0011171Y0070931D02*
X0011171Y0068328D01*
X0005964Y0068328D01*
X0005964Y0070931D01*
X0006832Y0071799D01*
X0007700Y0071799D01*
X0008568Y0070931D01*
X0008568Y0068328D01*
X0008568Y0070931D02*
X0009435Y0071799D01*
X0010303Y0071799D01*
X0011171Y0070931D01*
X0011171Y0073947D02*
X0006832Y0073947D01*
X0005964Y0074815D01*
X0005964Y0076550D01*
X0006832Y0077418D01*
X0011171Y0082169D02*
X0010303Y0083037D01*
X0013897Y0080296D02*
X0015633Y0077693D01*
X0017368Y0080296D01*
D38*
X0068644Y0086104D02*
X0068644Y0098381D01*
X0068644Y0092243D02*
X0087060Y0092243D01*
X0080921Y0086104D01*
M02*
